<svg width="134" height="134" viewBox="0 0 134 134" fill="none" xmlns="http://www.w3.org/2000/svg">
<path d="M67 134C30.0551 134 0 103.945 0 67.0008C0 30.0564 30.0551 0.00164795 67 0.00164795C82.0136 0.00164795 96.1618 4.83117 107.892 13.9654C110.327 15.8581 110.762 19.37 108.869 21.7987C106.971 24.233 103.929 24.3871 101.5 22.5C91.7459 14.9068 79.5067 10.5 67 10.5C36.2135 10.5 10.5 36.2147 10.5 67.0008C10.5 97.7869 36.2135 123.5 67 123.5C97.7865 123.5 123.5 97.7869 123.5 67.0008C123.5 63.9188 125.329 61.4175 128.417 61.4175C131.504 61.4175 134 63.9188 134 67.0008C134 103.945 103.945 134 67 134Z" fill="#175697"/>
<path d="M118.646 33.5013H93.5207C91.8233 33.5013 90.2991 32.4795 89.6514 30.9162C89.0093 29.3529 89.3611 27.5495 90.5615 26.3547L115.686 1.23C116.887 0.0351841 118.685 -0.333311 120.248 0.31993C121.811 0.967589 122.833 2.4974 122.833 4.18913V29.3138C122.833 31.6253 120.957 33.5013 118.646 33.5013Z" fill="#175697"/>
<path d="M22.142 79.2492C21.8859 79.2492 21.6648 79.1561 21.4786 78.97C21.2923 78.7839 21.1992 78.5629 21.1992 78.307V74.6779C21.1992 73.8404 21.4902 73.2123 22.0722 72.7935L22.4563 72.5144L23.7832 71.5722C26.3904 69.6878 28.3109 68.2688 29.5447 67.315C30.8018 66.3379 31.7795 65.4655 32.4779 64.6978C33.1762 63.9068 33.5254 63.2089 33.5254 62.6041C33.5254 62.1621 33.4439 61.8248 33.281 61.5921C33.1413 61.3362 32.8038 61.2083 32.2684 61.2083C31.8261 61.2083 31.4769 61.313 31.2208 61.5223C30.9647 61.7084 30.7901 61.8945 30.697 62.0807C30.6272 62.2668 30.5108 62.5692 30.3478 62.9879C30.2315 63.2904 30.0569 63.4997 29.8241 63.6161C29.5913 63.7324 29.3003 63.7905 28.9511 63.7905H22.3864C22.1769 63.7905 21.9907 63.7207 21.8278 63.5812C21.6881 63.4183 21.6182 63.2322 21.6182 63.0228C21.6415 61.3013 22.1187 59.7892 23.0499 58.4864C23.9811 57.1604 25.2381 56.1368 26.8211 55.4156C28.4273 54.6945 30.2315 54.3339 32.2334 54.3339C35.4459 54.3339 37.9833 55.0318 39.8457 56.4276C41.7313 57.8002 42.674 59.7078 42.674 62.1504C42.674 63.9417 42.0455 65.5818 40.7885 67.0707C39.5547 68.5363 37.6691 70.1415 35.1317 71.8863L34.8872 72.0607H42.255C42.5111 72.0607 42.7322 72.1538 42.9185 72.3399C43.1047 72.526 43.1978 72.747 43.1978 73.0029V78.307C43.1978 78.5629 43.1047 78.7839 42.9185 78.97C42.7322 79.1561 42.5111 79.2492 42.255 79.2492H22.142Z" fill="#175697"/>
<path d="M57.7973 79.2492C57.5412 79.2492 57.3201 79.1561 57.1338 78.97C56.9476 78.7839 56.8545 78.5629 56.8545 78.307V75.3409H46.4139C46.1578 75.3409 45.9366 75.2478 45.7504 75.0617C45.5642 74.8756 45.4711 74.6546 45.4711 74.3987V69.4087C45.4711 69.0132 45.5991 68.6526 45.8552 68.3269L55.7371 55.4156C56.063 55.0202 56.4937 54.8224 57.0291 54.8224H64.2921C64.5482 54.8224 64.7693 54.9155 64.9555 55.1016C65.1418 55.2877 65.2349 55.5087 65.2349 55.7646V68.2571H68.2728C68.5521 68.2571 68.7849 68.3502 68.9712 68.5363C69.1574 68.7224 69.2505 68.9434 69.2505 69.1993V74.3987C69.2505 74.6546 69.1574 74.8756 68.9712 75.0617C68.7849 75.2478 68.5638 75.3409 68.3077 75.3409H65.2349V78.307C65.2349 78.5629 65.1418 78.7839 64.9555 78.97C64.7693 79.1561 64.5482 79.2492 64.2921 79.2492H57.7973ZM57.0989 68.641V63.6161L53.4325 68.641H57.0989Z" fill="#175697"/>
<path d="M71.3328 82.1804C71.1233 82.1804 70.9371 82.099 70.7741 81.9361C70.6344 81.7965 70.5646 81.6221 70.5646 81.4127C70.5646 81.3196 70.5879 81.215 70.6344 81.0986L82.3321 52.8683C82.6347 52.1704 83.1469 51.8214 83.8685 51.8214H88.5476C88.7571 51.8214 88.9317 51.9028 89.0714 52.0657C89.2343 52.2053 89.3158 52.3797 89.3158 52.5891C89.3158 52.6822 89.2925 52.7868 89.2459 52.9032L77.4435 81.1335C77.1642 81.8314 76.652 82.1804 75.9071 82.1804H71.3328Z" fill="#175697"/>
<path d="M94.7317 79.2492C94.5222 79.2492 94.3359 79.1794 94.173 79.0398C94.0333 78.877 93.9635 78.6909 93.9635 78.4815C93.9635 78.3652 93.9868 78.2605 94.0333 78.1674L101.576 61.976H91.9731C91.7171 61.976 91.4959 61.8829 91.3097 61.6968C91.1234 61.5107 91.0303 61.2897 91.0303 61.0338V55.7646C91.0303 55.5087 91.1234 55.2877 91.3097 55.1016C91.4959 54.9155 91.7171 54.8224 91.9731 54.8224H110.026C110.305 54.8224 110.526 54.9155 110.689 55.1016C110.876 55.2877 110.969 55.5087 110.969 55.7646V60.3708C110.969 60.7197 110.922 61.0222 110.829 61.2781C110.759 61.534 110.654 61.8248 110.515 62.1504L102.903 78.4466C102.6 78.9817 102.123 79.2492 101.471 79.2492H94.7317Z" fill="#175697"/>
</svg>
