<svg width="140" height="140" viewBox="0 0 140 140" fill="none" xmlns="http://www.w3.org/2000/svg">
<path d="M59.0625 26.25H80.9375V30.625H59.0625V26.25Z" fill="#175697"/>
<path d="M59.0625 35H80.9375V39.375H59.0625V35Z" fill="#175697"/>
<path d="M124.688 118.125V100.625C124.688 99.6537 124.047 98.7984 123.112 98.525L72.1875 83.6719V56.875H87.5C88.7097 56.875 89.6875 55.895 89.6875 54.6875V19.6875C89.6875 19.1078 89.4578 18.55 89.0466 18.1409L75.9216 5.01594C75.5125 4.60469 74.9569 4.375 74.375 4.375H52.5C51.2903 4.375 50.3125 5.355 50.3125 6.5625V54.6875C50.3125 55.895 51.2903 56.875 52.5 56.875H67.8125V83.6719L16.8875 98.525C15.9534 98.7984 15.3125 99.6537 15.3125 100.625V118.125C15.3125 119.096 15.9534 119.952 16.8875 120.225L69.3875 135.537C69.5887 135.597 69.7922 135.625 70 135.625C70.2078 135.625 70.4112 135.597 70.6125 135.537L123.112 120.225C124.047 119.952 124.688 119.096 124.688 118.125ZM76.5625 11.8431L82.2194 17.5H76.5625V11.8431ZM54.6875 8.75H72.1875V19.6875C72.1875 20.895 73.1653 21.875 74.375 21.875H85.3125V52.5H54.6875V8.75ZM67.8125 88.2284V99.7194L62.7966 94.7034L59.7034 97.7966L68.4534 106.547C68.88 106.973 69.44 107.188 70 107.188C70.56 107.188 71.12 106.973 71.5466 106.547L80.2966 97.7966L77.2034 94.7034L72.1875 99.7194V88.2284L114.688 100.625L70 113.658L25.3116 100.625L67.8125 88.2284ZM19.6875 103.541L67.8125 117.578V130.522L19.6875 116.484V103.541ZM72.1875 130.522V117.578L120.312 103.541V116.484L72.1875 130.522Z" fill="#175697"/>
<path d="M59.0625 17.5H67.8125V21.875H59.0625V17.5Z" fill="#175697"/>
<path d="M6.5625 56.875H21.875C21.875 62.9059 26.7816 67.8125 32.8125 67.8125H39.375C42.9931 67.8125 45.9375 70.7569 45.9375 74.375V77.8444L40.9216 72.8284L37.8284 75.9216L46.5784 84.6716C47.005 85.0981 47.565 85.3125 48.125 85.3125C48.685 85.3125 49.245 85.0981 49.6716 84.6716L58.4216 75.9216L55.3284 72.8284L50.3125 77.8444V74.375C50.3125 68.3441 45.4059 63.4375 39.375 63.4375H32.8125C29.1944 63.4375 26.25 60.4931 26.25 56.875H41.5625C42.7722 56.875 43.75 55.895 43.75 54.6875V19.6875C43.75 19.1078 43.5203 18.55 43.1091 18.1409L29.9841 5.01594C29.575 4.60469 29.0194 4.375 28.4375 4.375H6.5625C5.35281 4.375 4.375 5.355 4.375 6.5625V54.6875C4.375 55.895 5.35281 56.875 6.5625 56.875ZM30.625 11.8431L36.2819 17.5H30.625V11.8431ZM8.75 8.75H26.25V19.6875C26.25 20.895 27.2278 21.875 28.4375 21.875H39.375V52.5H8.75V8.75Z" fill="#175697"/>
<path d="M13.125 26.25H35V30.625H13.125V26.25Z" fill="#175697"/>
<path d="M13.125 35H35V39.375H13.125V35Z" fill="#175697"/>
<path d="M13.125 43.75H35V48.125H13.125V43.75Z" fill="#175697"/>
<path d="M13.125 17.5H21.875V21.875H13.125V17.5Z" fill="#175697"/>
<path d="M135.625 54.6875V19.6875C135.625 19.1078 135.395 18.55 134.984 18.1409L121.859 5.01594C121.45 4.60469 120.894 4.375 120.312 4.375H98.4374C97.2277 4.375 96.2499 5.355 96.2499 6.5625V54.6875C96.2499 55.895 97.2277 56.875 98.4374 56.875H113.75C113.75 60.4931 110.806 63.4375 107.187 63.4375H100.625C94.594 63.4375 89.6874 68.3441 89.6874 74.375V77.8444L84.6715 72.8284L81.5784 75.9216L90.3284 84.6716C90.7549 85.0981 91.3149 85.3125 91.8749 85.3125C92.4349 85.3125 92.9949 85.0981 93.4215 84.6716L102.171 75.9216L99.0784 72.8284L94.0624 77.8444V74.375C94.0624 70.7569 97.0068 67.8125 100.625 67.8125H107.187C113.218 67.8125 118.125 62.9059 118.125 56.875H133.437C134.647 56.875 135.625 55.895 135.625 54.6875ZM122.5 11.8431L128.157 17.5H122.5V11.8431ZM100.625 52.5V8.75H118.125V19.6875C118.125 20.895 119.103 21.875 120.312 21.875H131.25V52.5H100.625Z" fill="#175697"/>
<path d="M105 26.25H126.875V30.625H105V26.25Z" fill="#175697"/>
<path d="M105 35H126.875V39.375H105V35Z" fill="#175697"/>
<path d="M105 43.75H126.875V48.125H105V43.75Z" fill="#175697"/>
<path d="M105 17.5H113.75V21.875H105V17.5Z" fill="#175697"/>
<path d="M59.0625 43.75H63.4375V48.125H59.0625V43.75Z" fill="#175697"/>
<path d="M67.8125 43.75H72.1875V48.125H67.8125V43.75Z" fill="#175697"/>
<path d="M76.5625 43.75H80.9375V48.125H76.5625V43.75Z" fill="#175697"/>
</svg>
