<svg width="138" height="138" viewBox="0 0 138 138" fill="none" xmlns="http://www.w3.org/2000/svg">
<path fill-rule="evenodd" clip-rule="evenodd" d="M69 128C101.585 128 128 101.585 128 69C128 36.4152 101.585 10 69 10C36.4152 10 10 36.4152 10 69C10 101.585 36.4152 128 69 128ZM69 138C107.108 138 138 107.108 138 69C138 30.8924 107.108 0 69 0C30.8924 0 0 30.8924 0 69C0 107.108 30.8924 138 69 138Z" fill="#175697"/>
<path d="M66.3743 92.4345H71.7487V107H66.3743V92.4345ZM67.0963 91.147V47.1288L70.9465 46.2436V91.3079L67.0963 91.147ZM66.3743 32H71.7487V45.2779L66.3743 46.0826V32ZM84.1016 55.4174C83.7273 55.0418 83.0321 54.5322 82.016 53.8884C81.0535 53.2446 79.8503 52.6277 78.4064 52.0376C77.016 51.4474 75.492 50.9378 73.8342 50.5086C72.1765 50.0258 70.492 49.7843 68.7808 49.7843C65.7861 49.7843 63.5134 50.3476 61.9626 51.4743C60.4652 52.6009 59.7166 54.1835 59.7166 56.2221C59.7166 57.7779 60.1979 59.0118 61.1604 59.9238C62.123 60.8358 63.5668 61.6137 65.492 62.2575C67.4171 62.9013 69.8235 63.5987 72.7112 64.3498C76.4545 65.2618 79.6898 66.3884 82.4171 67.7296C85.1979 69.0172 87.3102 70.7339 88.754 72.8798C90.2513 74.9721 91 77.7618 91 81.2489C91 84.3069 90.4385 86.9356 89.3155 89.1352C88.1925 91.2811 86.6417 93.0247 84.6631 94.3659C82.6845 95.7071 80.4118 96.6996 77.8449 97.3433C75.3316 97.9335 72.6845 98.2285 69.9037 98.2285C67.0695 98.2285 64.2086 97.9335 61.3209 97.3433C58.4866 96.7532 55.7594 95.9217 53.139 94.8487C50.5722 93.7221 48.1925 92.3809 46 90.8251L50.893 81.2489C51.3743 81.7318 52.2299 82.3755 53.4599 83.1803C54.6898 83.9313 56.1604 84.7092 57.8717 85.5139C59.6364 86.265 61.5615 86.9088 63.6471 87.4453C65.7861 87.9818 67.9251 88.25 70.0642 88.25C73.0588 88.25 75.3316 87.7403 76.8824 86.721C78.4332 85.7017 79.2086 84.2532 79.2086 82.3755C79.2086 80.6588 78.5936 79.3176 77.3636 78.3519C76.1337 77.3863 74.3957 76.5547 72.1497 75.8573C69.9572 75.1062 67.3904 74.3015 64.4492 73.4431C60.8128 72.4238 57.7914 71.2972 55.385 70.0633C52.9786 68.7757 51.1872 67.1663 50.0107 65.235C48.8342 63.3036 48.246 60.8895 48.246 57.9925C48.246 54.0762 49.1818 50.8037 51.0535 48.1749C52.9251 45.4925 55.4385 43.4807 58.5936 42.1395C61.7487 40.7446 65.2513 40.0472 69.1016 40.0472C71.7754 40.0472 74.2888 40.3423 76.6417 40.9324C79.0481 41.5225 81.2941 42.3004 83.3797 43.2661C85.4652 44.2318 87.3369 45.2779 88.9947 46.4045L84.1016 55.4174Z" fill="#175697"/>
</svg>
