<svg width="183" height="180" viewBox="0 0 183 180" fill="none" xmlns="http://www.w3.org/2000/svg">
<path fill-rule="evenodd" clip-rule="evenodd" d="M116.157 37.0951L104.556 13.4383L85.7366 31.878L63.6233 16.9528L56.8491 42.1872L30.148 39.9928L37.2346 65.2604L13.1002 76.3848L32.1487 94.9151L17.0478 116.378L42.9542 123.205L40.9331 149.255L66.7558 142.551L78.356 166.208L97.1758 147.768L119.289 162.693L126.063 137.459L152.764 139.653L145.678 114.386L169.812 103.261L150.764 84.731L165.865 63.2686L139.958 56.4407L141.979 30.3911L116.157 37.0951ZM133.136 40.9522L118.167 44.8384C114.489 45.7933 110.647 44.0291 108.974 40.6173L102.248 26.9005L91.3354 37.5923C88.6212 40.2517 84.4107 40.6348 81.261 38.509L68.4424 29.8571L64.5755 44.2614C63.5734 47.9942 60.0459 50.4769 56.1938 50.1603L40.9571 48.9081L44.9374 63.1001C45.9989 66.885 44.1534 70.8802 40.5834 72.5257L27.0288 78.7736L37.727 89.1808C40.5447 91.9218 40.9535 96.3037 38.6915 99.5186L30.2098 111.573L44.9931 115.47C48.7305 116.455 51.2292 119.971 50.9302 123.824L49.7765 138.694L64.7455 134.808C68.4235 133.853 72.2657 135.617 73.9387 139.029L80.6648 152.746L91.577 142.054C94.2912 139.394 98.5017 139.011 101.651 141.137L114.47 149.789L118.337 135.385C119.339 131.652 122.867 129.169 126.719 129.486L141.955 130.738L137.975 116.546C136.914 112.761 138.759 108.766 142.329 107.12L155.884 100.873L145.185 90.4653C142.368 87.7243 141.959 83.3424 144.221 80.1275L152.703 68.0728L137.919 64.1765C134.182 63.1915 131.683 59.6753 131.982 55.8218L133.136 40.9522Z" fill="#175697"/>
<path d="M53 103V79H69.1532V83.0901H57.6733V89.2761H67.223V93.062H57.6733V103H53Z" fill="#175697"/>
<path d="M72.4455 103V79H83.0789C84.1851 79 85.201 79.2254 86.1266 79.6761C87.0748 80.1268 87.8876 80.7352 88.5649 81.5014C89.2647 82.2676 89.7953 83.1239 90.1565 84.0704C90.5403 85.0169 90.7322 85.9859 90.7322 86.9775C90.7322 87.9915 90.5516 88.9718 90.1903 89.9183C89.8517 90.8423 89.355 91.6535 88.7003 92.3521C88.0456 93.0507 87.278 93.5916 86.3976 93.9746L91.8836 103H86.7362L81.792 94.9549H77.1188V103H72.4455ZM77.1188 90.8648H82.9773C83.5642 90.8648 84.0835 90.6958 84.535 90.3577C84.9865 89.9972 85.3478 89.5239 85.6187 88.938C85.8896 88.3521 86.0251 87.6986 86.0251 86.9775C86.0251 86.2113 85.867 85.5465 85.5509 84.9831C85.2349 84.3972 84.8285 83.9352 84.3318 83.5972C83.8577 83.2592 83.3385 83.0901 82.7741 83.0901H77.1188V90.8648Z" fill="#175697"/>
<path d="M111.662 98.9099V103H94.9665V79H111.357V83.0901H99.6398V88.8704H109.765V92.6563H99.6398V98.9099H111.662Z" fill="#175697"/>
<path d="M132 98.9099V103H115.305V79H131.695V83.0901H119.978V88.8704H130.104V92.6563H119.978V98.9099H132Z" fill="#175697"/>
</svg>
