<svg width="346" height="198" viewBox="0 0 346 198" fill="none" xmlns="http://www.w3.org/2000/svg">
<path d="M19.1806 77.4873C19.1806 77.4873 14.9934 77.1728 15.3794 86.972C15.7653 96.7711 16.7222 101.996 16.7222 101.996C16.7222 101.996 16.6006 104.17 14.9882 103.745C13.3757 103.32 10.341 101.202 8.84481 102.785C7.29047 104.424 7.84559 106.94 9.90218 109.903C11.9641 112.866 16.2517 119.525 16.6377 120.132C17.0183 120.723 17.1663 121.837 16.0244 121.732C14.8824 121.628 7.16358 118.896 6.14322 122.797C5.12285 126.698 12.165 133.965 12.9157 134.776C13.6717 135.587 13.714 136.095 13.4074 136.586C13.1007 137.077 10.5895 135.901 8.3637 135.223C6.13793 134.539 3.44162 134.158 3.03453 136.459C2.62745 138.76 5.72555 145.496 17.3408 152.57L22.929 155.483L28.2159 151.963C39.0963 143.709 41.5335 136.685 40.9097 134.439C40.2805 132.194 37.6371 132.856 35.4906 133.766C33.3442 134.677 30.9545 136.106 30.6056 135.653C30.2514 135.195 30.2461 134.682 30.9175 133.799C31.5889 132.916 37.9015 124.949 36.511 121.175C35.1206 117.401 27.7031 120.921 26.577 121.148C25.4509 121.374 25.4932 120.254 25.8157 119.619C26.1435 118.979 29.7702 111.9 31.5361 108.739C33.3019 105.577 33.6138 103.017 31.9061 101.549C30.2619 100.131 27.4493 102.553 25.8844 103.144C24.3195 103.734 23.9917 101.588 23.9917 101.588C23.9917 101.588 24.4464 96.2911 23.8912 86.503C23.3361 76.7093 19.1013 77.4983 19.1013 77.4983" fill="#EBEBEB"/>
<path d="M20.0019 85.4832C20.0019 85.4832 20.0103 85.5553 20.0187 85.6885C20.0272 85.8329 20.0398 86.0327 20.0524 86.2936C20.0819 86.8376 20.1199 87.6203 20.1704 88.6194C20.2716 90.64 20.4022 93.5709 20.5539 97.1901C20.8573 104.428 21.2155 114.426 21.5822 125.478C21.9488 136.53 22.2859 146.532 22.5599 153.771C22.6989 157.384 22.8127 160.31 22.8928 162.341C22.9307 163.346 22.9602 164.129 22.9813 164.673C22.9897 164.934 22.9939 165.133 22.9981 165.278C23.0023 165.417 22.9981 165.483 22.9981 165.483C22.9981 165.483 22.9897 165.411 22.9813 165.278C22.9728 165.133 22.9602 164.934 22.9476 164.673C22.9181 164.129 22.8801 163.346 22.8296 162.347C22.7284 160.326 22.5978 157.395 22.4461 153.776C22.1427 146.538 21.7845 136.535 21.4178 125.483C21.0512 114.437 20.7141 104.434 20.4401 97.1956C20.3011 93.582 20.1873 90.6566 20.1072 88.625C20.0693 87.6203 20.0398 86.8376 20.0187 86.2936C20.0103 86.0327 20.0061 85.8329 20.0019 85.6885C19.9977 85.5498 20.0019 85.4832 20.0019 85.4832Z" fill="#E0E0E0"/>
<path d="M13.0007 105.484C13.01 105.472 13.1179 105.587 13.3101 105.799C13.5023 106.011 13.7695 106.325 14.0976 106.72C14.7492 107.51 15.6305 108.632 16.582 109.892C17.5149 111.134 18.354 112.261 19.0056 113.131C19.2962 113.515 19.54 113.841 19.7415 114.11C19.915 114.339 20.0087 114.471 19.9994 114.482C19.99 114.494 19.8822 114.385 19.69 114.173C19.4978 113.961 19.2306 113.647 18.9071 113.246C18.2602 112.445 17.393 111.311 16.4414 110.052C15.5039 108.815 14.6554 107.699 13.9991 106.835C13.7085 106.451 13.4601 106.131 13.2585 105.862C13.0804 105.627 12.9913 105.495 13.0007 105.484Z" fill="#E0E0E0"/>
<path d="M21.0007 113.483C20.9551 113.442 23.1599 111.395 25.9174 108.912C28.6805 106.425 30.9537 104.448 30.9993 104.484C31.0449 104.524 28.8458 106.572 26.0826 109.054C23.3252 111.541 21.0463 113.523 21.0007 113.483Z" fill="#E0E0E0"/>
<path d="M21.0001 130.481C20.9948 130.47 21.1328 130.382 21.3927 130.237C21.6897 130.071 22.0558 129.874 22.4907 129.635C23.4138 129.127 24.6922 128.422 26.0714 127.592C27.4506 126.767 28.676 125.979 29.5565 125.398C29.9703 125.128 30.3151 124.9 30.6015 124.713C30.8509 124.552 30.9941 124.469 30.9994 124.485C31.01 124.495 30.8827 124.604 30.6493 124.781C30.4159 124.962 30.0711 125.216 29.6414 125.517C28.7821 126.129 27.5673 126.938 26.1775 127.768C24.793 128.598 23.5039 129.288 22.5597 129.765C22.0876 130.004 21.7004 130.185 21.4298 130.31C21.1593 130.434 21.0055 130.496 21.0001 130.481Z" fill="#E0E0E0"/>
<path d="M12.0002 124.484C12.0053 124.473 12.1385 124.542 12.3741 124.68C12.6097 124.817 12.9426 125.03 13.3575 125.288C14.1822 125.81 15.3142 126.551 16.5538 127.377C17.7985 128.203 18.9151 128.967 19.7193 129.529C20.1239 129.81 20.4466 130.04 20.6669 130.206C20.8872 130.373 21.005 130.465 20.9998 130.482C20.9947 130.493 20.8615 130.425 20.6259 130.287C20.3903 130.149 20.0574 129.937 19.6425 129.678C18.8178 129.156 17.6858 128.416 16.4462 127.589C15.2015 126.763 14.0849 126 13.2807 125.437C12.8761 125.156 12.5534 124.926 12.3331 124.76C12.1128 124.593 11.995 124.502 12.0002 124.484Z" fill="#E0E0E0"/>
<path d="M10.0005 140.484C10.0058 140.475 10.1805 140.548 10.493 140.689C10.8372 140.852 11.2767 141.057 11.7956 141.307C12.8918 141.835 14.3957 142.576 16.0531 143.404C17.7106 144.231 19.2039 144.991 20.2789 145.546C20.7872 145.814 21.2109 146.037 21.5498 146.214C21.8463 146.373 22.0052 146.469 21.9999 146.482C21.9946 146.491 21.8198 146.419 21.5074 146.278C21.1632 146.114 20.7237 145.909 20.2047 145.659C19.1086 145.132 17.6047 144.39 15.9472 143.563C14.2898 142.735 12.7965 141.976 11.7215 141.421C11.2131 141.152 10.7895 140.93 10.4506 140.752C10.154 140.589 9.98989 140.493 10.0005 140.484Z" fill="#E0E0E0"/>
<path d="M22.0001 146.482C21.995 146.472 22.1583 146.357 22.4697 146.158C22.8116 145.944 23.2557 145.673 23.7814 145.343C24.889 144.654 26.415 143.693 28.0687 142.59C29.7275 141.488 31.2026 140.448 32.2642 139.691C32.7695 139.33 33.1931 139.027 33.5249 138.792C33.826 138.583 33.9944 138.473 33.9995 138.484C34.0097 138.494 33.8566 138.63 33.5708 138.86C33.285 139.09 32.8715 139.419 32.3458 139.811C31.3046 140.6 29.8398 141.66 28.1759 142.768C26.5171 143.875 24.9757 144.816 23.8477 145.474C23.2812 145.803 22.8219 146.064 22.5003 146.232C22.189 146.404 22.0052 146.493 22.0001 146.482Z" fill="#E0E0E0"/>
<path d="M30 157.483H14L19.2257 196.483H24.7798L30 157.483Z" fill="#E0E0E0"/>
<path d="M15.0008 161.853C14.9955 161.858 15.0167 161.899 15.0858 161.973C15.1495 162.042 15.2716 162.135 15.4628 162.204C15.8293 162.342 16.4772 162.356 17.1038 162.028C17.7305 161.728 18.2775 161.137 19.1166 160.874C19.9504 160.597 20.9807 160.647 21.9738 160.925C22.9775 161.192 23.8432 161.636 24.6345 162.047C25.4258 162.453 26.148 162.818 26.7959 163.054C27.4385 163.298 28.0015 163.409 28.3892 163.455C28.5857 163.479 28.7344 163.483 28.8406 163.483C28.9415 163.483 28.9999 163.479 28.9999 163.474C29.0105 163.428 28.1236 163.437 26.8703 162.915C26.2436 162.666 25.5373 162.292 24.7566 161.876C23.9759 161.456 23.0837 160.998 22.0535 160.721C21.0338 160.435 19.9345 160.384 19.0369 160.694C18.5908 160.841 18.2138 161.072 17.9004 161.303C17.5818 161.53 17.3003 161.747 17.0135 161.904C16.4453 162.222 15.8505 162.236 15.5 162.13C15.1335 162.015 15.022 161.834 15.0008 161.853Z" fill="#F5F5F5"/>
<path d="M16.0027 168.483C16.0237 168.49 16.1235 168.37 16.3651 168.189C16.612 168.015 17.0113 167.785 17.5944 167.631C18.1723 167.473 18.913 167.378 19.7325 167.401C20.5573 167.42 21.4504 167.552 22.4065 167.661C23.3573 167.774 24.3029 167.827 25.1435 167.744C25.984 167.665 26.7142 167.491 27.2973 167.303C27.8805 167.114 28.3112 166.903 28.5897 166.749C28.8734 166.594 29.0099 166.492 28.9994 166.485C28.9732 166.455 28.3795 166.835 27.2238 167.186C26.6459 167.356 25.9315 167.514 25.112 167.578C24.2924 167.65 23.3889 167.597 22.4433 167.484C21.4977 167.375 20.5888 167.246 19.7378 167.235C18.8867 167.22 18.1198 167.333 17.5261 167.514C16.9272 167.691 16.5227 167.948 16.2916 168.144C16.1813 168.245 16.1025 168.328 16.0604 168.389C16.0132 168.449 15.9921 168.483 16.0027 168.483Z" fill="#F5F5F5"/>
<path d="M27.9999 173.768C28.0049 173.755 27.868 173.641 27.5889 173.501C27.315 173.362 26.8939 173.222 26.3612 173.171C25.8285 173.12 25.1943 173.159 24.5044 173.305C23.8144 173.444 23.0686 173.685 22.2924 173.889C21.5162 174.092 20.7654 174.231 20.0856 174.2C19.4057 174.168 18.802 173.984 18.3302 173.724C17.3764 173.197 17.0365 172.435 17.001 172.486C16.9909 172.492 17.0568 172.682 17.2496 172.968C17.4424 173.254 17.7721 173.616 18.2592 173.914C18.7411 174.212 19.3651 174.428 20.0754 174.473C20.7857 174.523 21.5568 174.384 22.3432 174.181C23.1295 173.971 23.8651 173.724 24.545 173.571C25.2197 173.419 25.8386 173.355 26.3561 173.374C27.3911 173.425 27.9846 173.825 27.9999 173.768Z" fill="#F5F5F5"/>
<path d="M18.0002 178.421C18.0049 178.465 18.4951 178.063 19.3516 178.261C19.7703 178.349 20.2367 178.591 20.7648 178.872C21.2883 179.153 21.9212 179.395 22.6016 179.455C23.9673 179.609 25.1855 179.098 25.9278 178.564C26.3085 178.3 26.575 178.019 26.7558 177.827C26.9271 177.617 27.0127 177.496 26.9985 177.485C26.9699 177.447 26.6035 177.92 25.8469 178.404C25.0998 178.883 23.9292 179.34 22.6207 179.197C21.3026 179.109 20.2938 178.201 19.3801 178.08C18.9328 178.003 18.5617 178.074 18.3285 178.184C18.0906 178.289 17.9954 178.41 18.0002 178.421Z" fill="#F5F5F5"/>
<path d="M19 186.473C19 186.498 19.4492 186.498 20.1183 186.236C20.792 185.994 21.6261 185.437 22.5977 185.022C23.0881 184.82 23.5739 184.697 24.0231 184.701C24.4676 184.701 24.8663 184.82 25.1688 184.983C25.783 185.313 25.9617 185.782 25.9984 185.753C26.0075 185.748 25.98 185.629 25.87 185.447C25.76 185.264 25.5584 185.027 25.2422 184.835C24.9305 184.642 24.5089 184.499 24.0276 184.484C23.5464 184.47 23.0285 184.593 22.5244 184.8C21.5161 185.234 20.7095 185.807 20.0633 186.078C19.4263 186.374 18.9955 186.438 19 186.473Z" fill="#F5F5F5"/>
<path d="M301.352 89.7923L255.292 100.991L262.387 134.019L308.448 122.821L301.352 89.7923Z" fill="#F5F5F5"/>
<path d="M301.999 90.4832C302.009 90.4943 301.893 90.6832 301.655 91.0334C301.391 91.4169 301.042 91.9226 300.609 92.5562C299.658 93.9068 298.326 95.7909 296.693 98.1029C293.326 102.794 288.718 109.219 283.607 116.333L283.501 116.483L283.338 116.399C283.216 116.338 283.079 116.271 282.947 116.199C275.23 112.259 268.249 108.696 263.144 106.09C260.649 104.795 258.62 103.733 257.166 102.977C256.495 102.616 255.956 102.327 255.549 102.11C255.185 101.91 254.994 101.793 255 101.782C255.005 101.771 255.211 101.854 255.586 102.027C256.004 102.227 256.553 102.488 257.24 102.816C258.71 103.538 260.76 104.556 263.281 105.795C268.402 108.368 275.4 111.892 283.137 115.782C283.269 115.849 283.406 115.916 283.528 115.982L283.258 116.049C288.406 108.968 293.051 102.571 296.444 97.9029C298.125 95.6297 299.494 93.7734 300.472 92.4451C300.931 91.8337 301.301 91.3446 301.581 90.9778C301.846 90.6443 301.983 90.4721 301.999 90.4832Z" fill="#E0E0E0"/>
<path d="M263.003 134.482C262.904 134.427 265.284 129.003 268.317 122.377C271.355 115.746 273.893 110.422 273.997 110.483C274.096 110.539 271.716 115.963 268.683 122.588C265.645 129.214 263.102 134.538 263.003 134.482Z" fill="#E0E0E0"/>
<path d="M289.001 106.485C289.076 106.384 293.62 110.11 299.139 114.801C304.664 119.497 309.074 123.38 308.999 123.481C308.924 123.582 304.385 119.855 298.861 115.165C293.336 110.469 288.921 106.586 289.001 106.485Z" fill="#E0E0E0"/>
<path d="M96.1624 9.88179e-05L91.9375 19.4646L119.082 26.1327L123.307 6.66818L96.1624 9.88179e-05Z" fill="#F5F5F5"/>
<path d="M122.999 6.98303C123.004 6.98841 122.896 7.0583 122.69 7.17658C122.463 7.30561 122.159 7.47227 121.788 7.68194C120.974 8.1228 119.836 8.74107 118.439 9.5045C115.58 11.0314 111.664 13.1227 107.325 15.4345L107.232 15.4829L107.171 15.3969C107.124 15.3324 107.068 15.2625 107.016 15.1926C103.966 11.1496 101.204 7.49377 99.1841 4.82177C98.2051 3.50458 97.4064 2.42933 96.8345 1.66053C96.5717 1.30032 96.3656 1.01 96.2059 0.794947C96.0668 0.596025 95.9946 0.488499 95.9998 0.483123C96.0049 0.477746 96.0925 0.574519 96.2471 0.762689C96.4171 0.972363 96.6387 1.25193 96.9118 1.60139C97.4992 2.35944 98.3184 3.41319 99.3232 4.70887C101.358 7.37012 104.136 11.0099 107.212 15.0313C107.263 15.1012 107.32 15.1711 107.366 15.2356L107.212 15.198C111.561 12.9131 115.492 10.8432 118.362 9.33784C119.774 8.61204 120.923 8.01527 121.747 7.59055C122.134 7.397 122.438 7.24647 122.675 7.12819C122.881 7.02604 122.994 6.97228 122.999 6.98303Z" fill="#E0E0E0"/>
<path d="M92 19.4819C91.9615 19.4242 94.393 17.3648 97.4298 14.8808C100.467 12.3969 102.961 10.4265 102.999 10.4841C103.038 10.5418 100.606 12.6013 97.5692 15.0852C94.5323 17.5691 92.0384 19.5343 92 19.4819Z" fill="#E0E0E0"/>
<path d="M113.002 12.4832C113.061 12.4505 114.456 15.5621 116.109 19.4257C117.763 23.2948 119.057 26.45 118.998 26.4827C118.938 26.5154 117.543 23.4037 115.89 19.5401C114.231 15.6711 112.942 12.5104 113.002 12.4832Z" fill="#E0E0E0"/>
<path d="M268.229 4.8726L248.397 13.9382L254.142 28.1606L273.974 19.0949L268.229 4.8726Z" fill="#F5F5F5"/>
<path d="M267.999 5.48289C268.004 5.48791 267.968 5.57326 267.889 5.73393C267.8 5.90966 267.686 6.14062 267.544 6.43182C267.226 7.05441 266.782 7.92301 266.233 8.98743C265.099 11.1564 263.548 14.1237 261.834 17.4124L261.798 17.4827L261.719 17.4626C261.662 17.4475 261.594 17.4274 261.531 17.4124C257.801 16.4183 254.42 15.5145 251.949 14.8568C250.742 14.5254 249.755 14.2543 249.055 14.0635C248.731 13.9681 248.47 13.8928 248.271 13.8375C248.094 13.7823 248 13.7522 248 13.7472C248 13.7422 248.099 13.7622 248.282 13.8024C248.48 13.8526 248.747 13.9129 249.076 13.9932C249.786 14.1739 250.774 14.425 251.991 14.7313C254.462 15.3739 257.848 16.2576 261.583 17.2316C261.646 17.2467 261.714 17.2668 261.771 17.2818L261.656 17.332C263.396 14.0534 264.964 11.0962 266.108 8.9322C266.677 7.87782 267.142 7.01926 267.477 6.4017C267.633 6.11551 267.759 5.88958 267.858 5.71887C267.942 5.5582 267.994 5.47787 267.999 5.48289Z" fill="#E0E0E0"/>
<path d="M254.003 28.4828C253.941 28.4659 254.785 25.7615 255.885 22.4518C256.99 19.1364 257.934 16.466 257.996 16.483C258.058 16.5 257.214 19.1987 256.108 22.514C255.009 25.8237 254.065 28.4998 254.003 28.4828Z" fill="#E0E0E0"/>
<path d="M264 13.4841C264.026 13.4415 266.284 14.5263 269.046 15.9047C271.808 17.288 274.025 18.4391 273.999 18.4817C273.973 18.5243 271.715 17.4395 268.953 16.0611C266.196 14.6826 263.974 13.5268 264 13.4841Z" fill="#E0E0E0"/>
<path d="M294 149.267C292.022 147.77 289.759 146.829 287.432 146.542C286.361 146.408 285.188 146.449 284.325 147.232C284.141 147.396 283.967 147.647 284.005 147.916C284.035 148.115 284.175 148.261 284.311 148.384C286.982 150.839 291.024 151.149 294 149.267Z" fill="#175697"/>
<path d="M294 148.483C292.508 147.133 291.012 145.771 289.748 144.133C288.485 142.494 287.459 140.556 287.08 138.398C286.964 137.743 286.93 136.997 287.289 136.483C290.681 139.562 293.344 143.545 294 148.483Z" fill="#175697"/>
<path d="M294.239 149.031C293.954 146.928 293.857 144.769 294.325 142.704C294.799 140.638 295.896 138.661 297.617 137.483C298.267 139.036 297.988 140.82 297.531 142.445C296.826 144.951 295.718 147.335 294.266 149.483" fill="#175697"/>
<path d="M298 155.483C295.812 155.761 293.903 156.98 292.274 158.544C290.64 160.108 289.48 162.212 289 164.483C291.146 164.344 292.97 162.746 294.288 160.954C295.612 159.162 296.524 157.197 297.974 155.522" fill="#175697"/>
<path d="M298.898 156.483C297.291 151.938 297.873 146.454 300.385 142.483C301.526 147.133 301.107 152.38 298.898 156.483Z" fill="#175697"/>
<path d="M303.948 162.5C301.753 162.39 299.524 162.816 297.621 163.721C295.718 164.622 294.146 165.992 293.162 167.611C293.028 167.832 292.912 168.11 293.093 168.306C293.25 168.478 293.547 168.493 293.808 168.478C295.933 168.363 297.819 167.314 299.373 166.117C300.927 164.919 302.283 163.534 304 162.5" fill="#175697"/>
<path d="M303.633 162.483C302.84 158.848 302.79 154.893 303.494 151.223C303.772 149.774 304.239 148.249 305.176 147.565C305.257 147.507 305.347 147.454 305.433 147.501C305.511 147.542 305.56 147.659 305.597 147.77C305.933 148.769 306.027 149.897 305.994 151.001C305.961 152.105 305.798 153.192 305.638 154.273C305.343 156.272 305.184 158.422 304.419 160.146C304.235 160.555 304.075 160.999 303.932 161.437C303.785 161.875 303.785 162.027 303.654 162.378" fill="#175697"/>
<path d="M315.368 163.483C314.387 159.991 315.429 155.758 317.784 152.898C317.956 152.686 318.189 152.463 318.472 152.484C318.904 152.52 319.015 153.059 318.998 153.468C318.827 157.033 317.552 160.55 315.368 163.483Z" fill="#175697"/>
<path d="M317 165.062C321.03 166.14 325.649 165.092 329 162.549C327.012 161.511 324.675 161.217 322.506 161.729C320.331 162.24 318.348 163.243 317 165.062Z" fill="#175697"/>
<path d="M318 162.483C320.28 158.392 324.648 155.724 329 155.483C328.498 157.43 327.042 158.945 325.403 159.858C323.763 160.771 321.93 161.17 320.121 161.559C319.421 161.712 318.457 161.876 318 162.483Z" fill="#175697"/>
<path d="M316.043 150.226C316.45 147.795 316.86 145.336 316.972 142.814C317.083 140.287 316.877 137.65 316.125 135.483C314.721 140.224 314.577 145.759 316.001 150.483" fill="#175697"/>
<path d="M323 146.48C325.743 141.252 331.339 137.069 337 136.483C334.815 142.194 328.858 146.607 323 146.48Z" fill="#175697"/>
<path d="M321 147.28C325.1 147.889 328.597 150.434 332.429 151.976C333.247 152.307 334.13 152.569 335.014 152.457C335.892 152.345 336.76 151.768 336.957 150.93C337.122 150.231 336.793 149.49 336.277 148.977C335.761 148.465 335.08 148.145 334.399 147.873C330.227 146.181 325.748 146.144 321.351 147.168" fill="#175697"/>
<path d="M320 150.682C320.878 150.942 321.179 151.419 321.875 152.036C324.232 154.131 327.062 155.647 330.074 156.427C330.385 156.508 330.796 156.541 330.951 156.243C331.086 155.983 330.915 155.674 330.739 155.441C329.477 153.795 327.68 152.675 325.79 151.938C323.9 151.202 322.259 150.319 320 150.509" fill="#175697"/>
<path d="M317 132.947C320.267 136.195 324.873 137.862 329.324 137.41C329.529 137.387 329.749 137.352 329.884 137.198C330.196 136.837 329.819 136.281 329.459 135.983C325.842 132.975 321.451 131.726 317 132.947Z" fill="#175697"/>
<path d="M320 131.723C324.214 128.588 329.993 127.64 335 129.265C333.111 131.114 330.492 132.108 327.852 132.379C325.212 132.655 322.572 132.363 320 131.723Z" fill="#175697"/>
<path d="M319 124.483C318.658 120.493 318.881 117.34 318.638 113.332C318.617 113.012 318.56 112.626 318.296 112.513C317.934 112.353 317.629 112.863 317.51 113.291C316.475 116.984 317.039 121.223 318.995 124.394" fill="#175697"/>
<path d="M319 124.483C321.162 122.882 322.779 120.792 324.278 118.339C325.321 116.629 326.198 114.585 325.961 112.484C324.496 112.45 323.106 113.415 322.153 114.75C321.2 116.084 320.636 117.748 320.214 119.429C319.792 121.11 319.493 122.836 319 124.483Z" fill="#175697"/>
<path d="M324.071 122.483C329.155 120.286 333.898 117.019 338 112.886C336.338 112.102 334.431 112.571 332.769 113.355C328.967 115.149 325.866 118.171 324 122.435" fill="#175697"/>
<path d="M320 126.149C322.659 126.472 325.36 126.684 327.992 126.19C330.583 125.708 333.032 124.555 335.454 123.414C335.654 123.32 335.874 123.209 335.964 122.985C336.058 122.744 335.958 122.45 335.78 122.268C335.606 122.091 335.37 122.003 335.144 121.932C332.511 121.109 329.669 121.491 327.078 122.473C324.493 123.455 322.365 124.62 320 126.149Z" fill="#175697"/>
<path d="M305.152 133.282C303.585 129.276 303.685 124.609 305.038 120.483C305.992 122.322 306.105 124.661 305.933 126.845C305.76 129.035 305.233 131.282 305.197 133.483" fill="#175697"/>
<path d="M298.784 129.486C294.009 129.39 289.24 131.584 286 135.363C288.382 135.769 290.836 135.106 293.001 133.964C295.167 132.822 297.095 131.22 299 129.629" fill="#175697"/>
<path d="M293 127.711C290.867 127.519 288.81 127.225 286.758 127.925C284.706 128.626 282.836 130.22 282 132.423C283.996 132.672 286.023 132.118 287.852 131.191C289.681 130.265 291.343 128.982 293 127.711Z" fill="#175697"/>
<path d="M299.757 128.097C297.801 126.711 295.787 125.297 293.51 124.722C291.234 124.146 288.59 124.571 287 126.432C288.843 127.605 291.084 127.745 293.221 127.739C295.359 127.739 297.981 127.711 300 128.483" fill="#175697"/>
<path d="M299.902 127.483C297.346 123.877 296.375 117.407 297.405 112.483C299.412 116.864 300.316 122.27 299.902 127.483Z" fill="#175697"/>
<path d="M310 118.46C310.62 116.834 311.057 115.122 311.616 113.468C312.175 111.813 312.867 110.181 313.919 108.865C314.971 107.548 316.429 106.569 318 106.483C317.019 111.498 314.061 115.975 310.081 118.483" fill="#175697"/>
<path d="M308 119.483C306.915 118.023 305.659 116.037 304.187 114.945C302.716 113.852 300.794 113.19 299 113.611C300.826 116.809 304.279 119.063 308 119.483Z" fill="#175697"/>
<path d="M308.597 118.443C307.591 116.513 306.586 114.567 306.178 112.512C305.77 110.462 306.019 108.269 307.402 106.483C310.093 110.336 310.955 114.47 308.733 118.483" fill="#175697"/>
<path d="M310 106.483C311.051 102.74 314.223 99.9847 317.65 98.7221C318.082 98.565 318.54 98.4303 318.992 98.5033C319.445 98.5762 319.887 98.9129 319.98 99.3955C320.105 100.03 319.616 100.602 319.158 101.023C316.491 103.486 313.354 105.355 310 106.483Z" fill="#175697"/>
<path d="M310.054 103.649C310.182 101.122 310.31 98.561 310.998 96.1699C311.685 93.7788 313.007 91.5345 314.934 90.4829C315.263 93.0326 314.319 95.5706 313.184 97.7679C312.049 99.9651 310.678 102.033 310 104.483" fill="#175697"/>
<path d="M310 105.483C309.065 102.573 308.97 98.8781 307.34 96.3392C306.203 94.5667 304.378 93.3572 303.398 91.4829C302.748 93.2374 302.944 95.2554 303.627 96.9979C304.31 98.7404 305.436 100.237 306.64 101.615C307.844 102.986 308.874 104.022 310 105.483Z" fill="#175697"/>
<path d="M324 129.486C324.005 129.504 323.788 129.601 323.398 129.765C322.964 129.947 322.411 130.177 321.745 130.45C320.348 131.032 318.434 131.881 316.351 132.93C314.289 134.015 312.349 134.9 311.239 136.076C310.686 136.658 310.371 137.289 310.213 137.743C310.055 138.204 310.025 138.489 310.005 138.483C309.996 138.483 310 138.41 310.01 138.277C310.03 138.143 310.055 137.949 310.129 137.707C310.262 137.222 310.573 136.549 311.13 135.931C311.688 135.306 312.463 134.748 313.346 134.239C314.234 133.73 315.216 133.202 316.258 132.675C318.345 131.626 320.274 130.808 321.691 130.268C322.396 129.995 322.974 129.801 323.368 129.668C323.773 129.528 323.995 129.468 324 129.486Z" fill="#263238"/>
<path d="M329 118.483C329.005 118.489 328.941 118.558 328.817 118.676C328.667 118.814 328.485 118.985 328.26 119.199C327.74 119.669 327.037 120.305 326.179 121.084C324.383 122.681 321.943 124.839 319.245 127.232C316.537 129.63 314.199 131.921 312.58 133.647C311.77 134.506 311.132 135.222 310.692 135.719C310.488 135.949 310.322 136.141 310.188 136.29C310.07 136.419 310.006 136.488 310 136.483C309.995 136.477 310.043 136.403 310.151 136.258C310.258 136.119 310.408 135.911 310.617 135.655C311.03 135.137 311.652 134.405 312.446 133.524C314.038 131.761 316.36 129.443 319.074 127.04C321.787 124.647 324.259 122.494 326.056 120.945C326.935 120.192 327.659 119.573 328.19 119.119C328.426 118.921 328.624 118.761 328.78 118.633C328.919 118.531 328.994 118.478 329 118.483Z" fill="#263238"/>
<path d="M317.006 129.482C316.936 129.45 317.504 128.151 318.072 126.504C318.646 124.857 318.916 123.472 318.987 123.483C319.052 123.488 318.889 124.921 318.31 126.584C318.023 127.418 317.709 128.146 317.461 128.67C317.212 129.188 317.033 129.498 317.006 129.482Z" fill="#263238"/>
<path d="M309.999 140.482C309.983 140.493 309.84 140.318 309.584 139.988C309.302 139.614 308.946 139.147 308.525 138.587C307.637 137.4 306.402 135.758 305.024 133.966C303.646 132.17 302.374 130.56 301.459 129.395C301.028 128.84 300.661 128.379 300.374 128.011C300.118 127.681 299.985 127.494 300.001 127.483C300.012 127.472 300.172 127.637 300.448 127.945C300.725 128.253 301.113 128.709 301.592 129.274C302.545 130.412 303.838 132.005 305.221 133.802C306.605 135.598 307.812 137.257 308.669 138.477C309.095 139.087 309.435 139.581 309.664 139.928C309.893 140.274 310.01 140.471 309.999 140.482Z" fill="#263238"/>
<path d="M305.996 135.481C305.946 135.53 304.924 134.329 304.385 132.497C303.989 131.204 303.97 130.028 304.02 129.489L304.15 129.501C304.094 129.734 304.051 129.85 304.026 129.85C304.001 129.844 304.001 129.722 304.02 129.483L304.15 129.495C304.199 130.028 304.28 131.168 304.664 132.424C305.178 134.188 306.07 135.432 305.996 135.481Z" fill="#263238"/>
<path d="M301 129.478C300.98 129.525 300.462 129.196 299.589 128.8C298.716 128.403 297.467 127.986 296.066 127.838C294.66 127.697 293.381 127.865 292.472 128.08C291.564 128.295 291.01 128.524 291 128.47C290.995 128.45 291.127 128.376 291.376 128.262C291.619 128.141 291.985 128 292.442 127.865C293.355 127.59 294.655 127.388 296.086 127.529C297.518 127.677 298.782 128.141 299.65 128.598C300.086 128.826 300.431 129.035 300.66 129.203C300.883 129.357 301.005 129.458 301 129.478Z" fill="#263238"/>
<path d="M309.993 123.483C309.921 123.5 309.426 121.722 308.876 119.517C308.326 117.306 307.941 115.5 308.007 115.483C308.079 115.466 308.574 117.238 309.124 119.449C309.674 121.66 310.059 123.466 309.993 123.483Z" fill="#263238"/>
<path d="M309.991 123.482C309.916 123.515 309.604 122.136 308.781 120.724C307.98 119.285 306.963 118.56 307.001 118.488C307.012 118.455 307.297 118.579 307.689 118.919C308.082 119.253 308.571 119.815 308.991 120.547C309.835 122.018 310.05 123.476 309.991 123.482Z" fill="#263238"/>
<path d="M309.998 174.483C309.971 174.488 309.917 174.054 309.723 173.296C309.53 172.538 309.163 171.466 308.555 170.214C307.348 167.697 305.151 164.51 302.366 161.318C300.982 159.708 299.641 158.186 298.505 156.73C297.363 155.28 296.426 153.895 295.742 152.67C295.058 151.444 294.611 150.395 294.347 149.653C294.218 149.28 294.126 148.994 294.072 148.791C294.019 148.593 293.992 148.483 294.002 148.483C294.024 148.477 294.153 148.89 294.439 149.615C294.724 150.34 295.193 151.373 295.893 152.571C296.593 153.774 297.535 155.137 298.683 156.576C299.824 158.016 301.165 159.527 302.555 161.142C305.35 164.346 307.542 167.571 308.716 170.131C309.309 171.406 309.653 172.499 309.815 173.269C309.896 173.653 309.95 173.955 309.971 174.164C309.998 174.373 310.004 174.483 309.998 174.483Z" fill="#263238"/>
<path d="M323 158.485C323.01 158.502 322.761 158.64 322.319 158.9C321.882 159.166 321.262 159.581 320.551 160.173C319.84 160.765 319.048 161.545 318.23 162.48C317.417 163.416 316.574 164.506 315.72 165.673C314.009 168.014 312.403 170.083 311.448 171.738C310.961 172.557 310.605 173.249 310.377 173.736C310.143 174.217 310.021 174.494 310.001 174.483C309.996 174.477 310.016 174.405 310.062 174.272C310.113 174.14 310.184 173.94 310.29 173.691C310.499 173.188 310.834 172.479 311.306 171.644C312.236 169.951 313.826 167.853 315.538 165.513C316.396 164.345 317.244 163.255 318.077 162.314C318.911 161.379 319.723 160.605 320.455 160.029C321.186 159.448 321.826 159.055 322.278 158.812C322.502 158.69 322.69 158.613 322.812 158.557C322.929 158.502 322.995 158.474 323 158.485Z" fill="#263238"/>
<path d="M323 163.504C323.005 163.545 322.451 163.621 321.556 163.743C320.666 163.878 319.431 164.048 318.134 164.516C316.843 165.001 315.77 165.738 315.074 166.364C314.367 166.99 314.037 167.511 314.001 167.482C313.991 167.47 314.057 167.33 314.215 167.101C314.367 166.867 314.621 166.557 314.967 166.218C315.653 165.534 316.736 164.756 318.063 164.258C319.39 163.773 320.641 163.632 321.541 163.55C322.441 163.474 322.995 163.468 323 163.504Z" fill="#263238"/>
<path d="M315.003 166.482C314.96 166.44 315.328 165.421 315.612 164.058C315.879 162.679 315.943 161.473 315.988 161.483C316.006 161.488 316.006 161.79 315.974 162.274C315.943 162.757 315.879 163.428 315.736 164.136C315.592 164.843 315.405 165.436 315.265 165.847C315.121 166.263 315.018 166.502 315.003 166.482Z" fill="#263238"/>
<path d="M327 144.485C327.005 144.496 326.925 144.539 326.774 144.615C326.598 144.702 326.378 144.81 326.107 144.946C325.816 145.081 325.46 145.255 325.058 145.482C324.657 145.704 324.185 145.937 323.699 146.252C323.453 146.403 323.192 146.561 322.921 146.729C322.65 146.896 322.384 147.092 322.103 147.287C321.531 147.66 320.959 148.121 320.347 148.592C319.148 149.573 317.889 150.733 316.68 152.077C315.481 153.431 314.447 154.829 313.579 156.157C313.163 156.834 312.756 157.468 312.43 158.097C312.265 158.411 312.089 158.704 311.944 159.002C311.798 159.3 311.663 159.581 311.527 159.858C311.251 160.394 311.056 160.909 310.86 161.353C310.664 161.792 310.514 162.182 310.398 162.502C310.283 162.8 310.193 163.044 310.118 163.233C310.052 163.401 310.012 163.488 310.002 163.483C309.992 163.477 310.017 163.391 310.072 163.217C310.138 163.017 310.213 162.773 310.313 162.464C310.414 162.139 310.549 161.738 310.74 161.294C310.92 160.844 311.111 160.324 311.377 159.776C311.507 159.5 311.643 159.213 311.778 158.909C311.919 158.611 312.094 158.308 312.255 157.994C312.576 157.354 312.982 156.709 313.394 156.027C314.257 154.683 315.295 153.269 316.504 151.903C317.723 150.554 318.998 149.384 320.212 148.408C320.834 147.937 321.411 147.482 321.993 147.113C322.279 146.924 322.55 146.728 322.826 146.566C323.102 146.403 323.362 146.252 323.613 146.1C324.11 145.791 324.587 145.569 324.998 145.358C325.404 145.141 325.771 144.984 326.067 144.859C326.343 144.745 326.573 144.648 326.754 144.572C326.909 144.501 326.995 144.474 327 144.485Z" fill="#263238"/>
<path d="M316.003 151.482C315.979 151.479 316.107 151.249 316.644 150.992C317.17 150.738 318.123 150.502 319.238 150.484C320.348 150.469 321.313 150.629 321.965 150.756C322.624 150.889 323.011 150.995 323 151.013C322.982 151.033 322.572 150.956 321.908 150.85C321.243 150.747 320.301 150.608 319.25 150.623C318.204 150.64 317.297 150.844 316.771 151.066C316.234 151.287 316.043 151.497 316.003 151.482Z" fill="#263238"/>
<path d="M315.006 153.481C314.934 153.44 315.567 152.45 315.711 151.035C315.878 149.621 315.472 148.507 315.55 148.483C315.578 148.471 315.722 148.731 315.844 149.196C315.966 149.656 316.05 150.334 315.966 151.07C315.883 151.807 315.661 152.444 315.439 152.862C315.222 153.286 315.033 153.505 315.006 153.481Z" fill="#263238"/>
<path d="M298 176.483C298.36 183.379 300.279 190.392 303.232 197.483H316.077C318.896 190.464 320.681 183.463 321 176.483H298Z" fill="#455A64"/>
<path d="M261.46 194.483H77.5404C73.3743 194.483 70 190.893 70 186.461V62.5048C70 58.0726 73.3743 54.4829 77.5404 54.4829H261.46C265.626 54.4829 269 58.0726 269 62.5048V186.461C269 190.893 265.626 194.483 261.46 194.483Z" fill="#455A64"/>
<path d="M268.776 197.483H71.2292C66.1324 197.483 62 193.184 62 187.883V185.483H278V187.883C278.005 193.184 273.873 197.483 268.776 197.483Z" fill="#455A64"/>
<path d="M263 59.4827H75V178.483H263V59.4827Z" fill="#263238"/>
<path d="M150 184.483L152.688 188.483H190.505L193 184.483H150Z" fill="#263238"/>
<path d="M258.302 177.483H80.6979C79.7581 177.483 79 176.672 79 175.68V65.2855C79 64.2876 79.7633 63.4827 80.6979 63.4827H258.302C259.242 63.4827 260 64.2931 260 65.2855V175.68C260.005 176.678 259.242 177.483 258.302 177.483Z" fill="#EBEBEB"/>
<path d="M260 178.483H79L79.1973 72.4827H260V178.483Z" fill="#FAFAFA"/>
<path d="M94 67.9829C94 68.8138 93.3255 69.4829 92.5 69.4829C91.6691 69.4829 91 68.8085 91 67.9829C91 67.152 91.6745 66.4829 92.5 66.4829C93.3255 66.4829 94 67.152 94 67.9829Z" fill="#263238"/>
<path d="M85 67.9827C85 68.8136 84.3255 69.4827 83.5 69.4827C82.6691 69.4827 82 68.8082 82 67.9827C82 67.1517 82.6745 66.4827 83.5 66.4827C84.3309 66.4827 85 67.1517 85 67.9827Z" fill="#263238"/>
<path d="M89 67.9829C89 68.8138 88.5504 69.4829 88 69.4829C87.446 69.4829 87 68.8085 87 67.9829C87 67.152 87.4496 66.4829 88 66.4829C88.554 66.4829 89 67.152 89 67.9829Z" fill="#263238"/>
<path d="M116 113.254V102.485H117.599V110.858L123.008 102.485H124.507V113.254H122.908V105.018L117.556 113.254H116Z" fill="#175697"/>
<path d="M126.657 113.254V105.321H128.227V108.476H131.696V105.321H133.266V113.254H131.696V109.917H128.227V113.254H126.657Z" fill="#175697"/>
<path d="M136.93 113.254V106.793H134.46V105.321H140.983V106.793H138.5V113.254H136.93Z" fill="#175697"/>
<path d="M145.54 113.406C144.959 113.406 144.431 113.3 143.956 113.087C143.489 112.865 143.085 112.566 142.742 112.192C142.4 111.808 142.133 111.373 141.943 110.888C141.762 110.392 141.672 109.867 141.672 109.31C141.672 108.562 141.834 107.88 142.157 107.263C142.481 106.636 142.933 106.135 143.513 105.761C144.094 105.377 144.774 105.185 145.554 105.185C146.335 105.185 147.005 105.377 147.567 105.761C148.138 106.135 148.58 106.631 148.894 107.248C149.208 107.864 149.365 108.527 149.365 109.235C149.365 109.356 149.361 109.472 149.351 109.583C149.341 109.685 149.332 109.771 149.322 109.841H143.342C143.37 110.306 143.489 110.716 143.699 111.07C143.918 111.414 144.193 111.687 144.527 111.889C144.86 112.081 145.216 112.177 145.597 112.177C146.016 112.177 146.411 112.066 146.782 111.843C147.162 111.621 147.419 111.328 147.553 110.964L148.894 111.373C148.732 111.758 148.485 112.106 148.152 112.42C147.828 112.723 147.443 112.966 146.996 113.148C146.549 113.32 146.063 113.406 145.54 113.406ZM143.299 108.734H147.809C147.781 108.279 147.657 107.88 147.438 107.536C147.229 107.182 146.958 106.909 146.625 106.717C146.301 106.514 145.94 106.413 145.54 106.413C145.15 106.413 144.788 106.514 144.455 106.717C144.132 106.909 143.865 107.182 143.656 107.536C143.447 107.88 143.328 108.279 143.299 108.734Z" fill="#175697"/>
<path d="M150.646 113.254V105.321H155.413V106.793H152.216V113.254H150.646Z" fill="#175697"/>
<path d="M160.837 113.406C160.238 113.406 159.71 113.254 159.253 112.951C158.796 112.647 158.434 112.253 158.168 111.768V116.485H156.598V105.321H157.982V106.747C158.268 106.272 158.639 105.893 159.096 105.609C159.553 105.326 160.062 105.185 160.623 105.185C161.137 105.185 161.608 105.296 162.036 105.518C162.464 105.731 162.835 106.029 163.149 106.413C163.463 106.798 163.706 107.237 163.877 107.733C164.058 108.218 164.149 108.734 164.149 109.28C164.149 110.038 164.006 110.731 163.72 111.358C163.444 111.985 163.054 112.486 162.55 112.86C162.055 113.224 161.484 113.406 160.837 113.406ZM160.323 111.98C160.656 111.98 160.956 111.904 161.223 111.752C161.499 111.601 161.732 111.399 161.922 111.146C162.122 110.893 162.274 110.605 162.379 110.281C162.483 109.958 162.536 109.624 162.536 109.28C162.536 108.916 162.479 108.572 162.364 108.249C162.25 107.925 162.084 107.642 161.865 107.399C161.656 107.157 161.408 106.964 161.123 106.823C160.847 106.681 160.542 106.611 160.209 106.611C160.009 106.611 159.8 106.651 159.581 106.732C159.362 106.813 159.158 106.924 158.967 107.066C158.777 107.207 158.61 107.374 158.468 107.566C158.325 107.758 158.225 107.96 158.168 108.173V110.251C158.301 110.574 158.477 110.868 158.696 111.131C158.915 111.383 159.167 111.591 159.453 111.752C159.738 111.904 160.028 111.98 160.323 111.98Z" fill="#175697"/>
<path d="M165.018 110.933C165.018 110.428 165.152 109.988 165.418 109.614C165.694 109.23 166.07 108.936 166.546 108.734C167.021 108.522 167.573 108.416 168.201 108.416C168.534 108.416 168.872 108.441 169.215 108.491C169.567 108.542 169.876 108.623 170.142 108.734V108.234C170.142 107.677 169.985 107.243 169.671 106.929C169.357 106.616 168.905 106.459 168.315 106.459C167.897 106.459 167.502 106.54 167.131 106.702C166.76 106.853 166.365 107.071 165.946 107.354L165.418 106.231C165.913 105.877 166.408 105.615 166.902 105.443C167.407 105.271 167.935 105.185 168.487 105.185C169.486 105.185 170.271 105.468 170.842 106.034C171.422 106.59 171.713 107.384 171.713 108.416V111.373C171.713 111.565 171.741 111.702 171.798 111.783C171.865 111.864 171.974 111.909 172.127 111.919V113.254C171.984 113.284 171.855 113.305 171.741 113.315C171.627 113.325 171.532 113.33 171.456 113.33C171.123 113.33 170.87 113.244 170.699 113.072C170.528 112.9 170.428 112.698 170.399 112.465L170.357 112.01C170.033 112.455 169.619 112.799 169.115 113.042C168.61 113.284 168.101 113.406 167.588 113.406C167.093 113.406 166.65 113.3 166.26 113.087C165.87 112.865 165.565 112.566 165.347 112.192C165.128 111.818 165.018 111.399 165.018 110.933ZM169.771 111.419C169.886 111.287 169.976 111.156 170.043 111.024C170.109 110.893 170.142 110.777 170.142 110.676V109.765C169.876 109.654 169.595 109.573 169.3 109.523C169.005 109.462 168.715 109.432 168.43 109.432C167.859 109.432 167.392 109.553 167.031 109.796C166.679 110.038 166.503 110.372 166.503 110.797C166.503 111.029 166.56 111.252 166.674 111.464C166.798 111.677 166.969 111.849 167.188 111.98C167.416 112.111 167.697 112.177 168.03 112.177C168.373 112.177 168.701 112.106 169.015 111.965C169.329 111.823 169.581 111.641 169.771 111.419Z" fill="#175697"/>
<path d="M179.47 115.15V113.254H173.617V105.321H175.188V111.798H178.242V105.321H179.812V111.798H180.854V115.15H179.47Z" fill="#175697"/>
<path d="M182.176 113.254V105.336H183.746V111.024L187.529 105.321H188.956V113.254H187.386V107.687L183.646 113.254H182.176Z" fill="#175697"/>
<path d="M190.361 113.254L192.359 110.114C191.893 109.993 191.522 109.74 191.246 109.356C190.97 108.972 190.832 108.456 190.832 107.809C190.832 107.313 190.937 106.879 191.146 106.504C191.365 106.13 191.669 105.837 192.06 105.625C192.45 105.412 192.902 105.306 193.416 105.306H196.699V113.254H195.128V110.387H193.901L192.074 113.254H190.361ZM193.573 109.174H195.128V106.595H193.673C193.273 106.595 192.954 106.712 192.716 106.944C192.488 107.177 192.374 107.48 192.374 107.854C192.374 108.228 192.474 108.542 192.673 108.795C192.883 109.048 193.182 109.174 193.573 109.174Z" fill="#175697"/>
<path d="M204.803 102.485H206.316L210.255 113.254H208.571L207.5 110.327H203.589L202.533 113.254H200.834L204.803 102.485ZM207.186 109.068L205.559 104.351L203.875 109.068H207.186Z" fill="#175697"/>
<path d="M211.508 113.254V102.485H215.762C216.219 102.485 216.637 102.586 217.018 102.788C217.398 102.99 217.732 103.258 218.017 103.592C218.302 103.926 218.521 104.3 218.674 104.715C218.826 105.129 218.902 105.554 218.902 105.989C218.902 106.585 218.774 107.157 218.517 107.703C218.269 108.239 217.912 108.673 217.446 109.007C216.989 109.341 216.456 109.508 215.847 109.508H213.107V113.254H211.508ZM213.107 108.006H215.748C216.052 108.006 216.318 107.92 216.547 107.748C216.775 107.566 216.951 107.323 217.075 107.02C217.208 106.717 217.275 106.373 217.275 105.989C217.275 105.594 217.199 105.245 217.046 104.942C216.894 104.639 216.694 104.406 216.447 104.244C216.209 104.072 215.947 103.986 215.662 103.986H213.107V108.006Z" fill="#175697"/>
<path d="M220.401 113.254V102.485H222V113.254H220.401Z" fill="#175697"/>
<path d="M105 127.96C105 127.318 105.106 126.692 105.317 126.08C105.538 125.459 105.854 124.897 106.267 124.394C106.69 123.881 107.203 123.476 107.808 123.18C108.413 122.875 109.099 122.722 109.868 122.722C110.78 122.722 111.562 122.939 112.215 123.373C112.868 123.797 113.353 124.344 113.669 125.015L112.647 125.696C112.445 125.252 112.186 124.902 111.869 124.645C111.562 124.379 111.226 124.191 110.861 124.083C110.506 123.974 110.156 123.92 109.81 123.92C109.243 123.92 108.739 124.039 108.298 124.275C107.866 124.512 107.501 124.828 107.203 125.222C106.906 125.617 106.68 126.061 106.526 126.554C106.382 127.037 106.31 127.526 106.31 128.019C106.31 128.561 106.397 129.084 106.57 129.587C106.752 130.09 107.002 130.534 107.319 130.919C107.635 131.304 108.01 131.609 108.442 131.836C108.874 132.063 109.344 132.177 109.853 132.177C110.208 132.177 110.573 132.112 110.948 131.984C111.322 131.856 111.672 131.659 111.999 131.392C112.325 131.116 112.584 130.761 112.776 130.327L113.857 130.934C113.645 131.457 113.319 131.9 112.877 132.265C112.436 132.63 111.941 132.907 111.394 133.094C110.856 133.281 110.324 133.375 109.796 133.375C109.095 133.375 108.451 133.222 107.866 132.916C107.28 132.601 106.771 132.186 106.339 131.674C105.917 131.151 105.586 130.569 105.346 129.928C105.115 129.276 105 128.62 105 127.96Z" fill="#175697"/>
<path d="M115.479 133.286V122.781H119.857C120.308 122.781 120.721 122.879 121.095 123.077C121.469 123.264 121.796 123.521 122.074 123.846C122.353 124.162 122.569 124.522 122.722 124.926C122.876 125.321 122.953 125.725 122.953 126.14C122.953 126.623 122.862 127.082 122.679 127.516C122.506 127.95 122.257 128.32 121.93 128.625C121.613 128.931 121.239 129.143 120.807 129.262L123.284 133.286H121.815L119.482 129.513H116.775V133.286H115.479ZM116.775 128.329H119.871C120.226 128.329 120.533 128.231 120.793 128.034C121.061 127.826 121.268 127.555 121.412 127.22C121.565 126.884 121.642 126.524 121.642 126.14C121.642 125.745 121.556 125.385 121.383 125.059C121.21 124.724 120.985 124.458 120.706 124.26C120.428 124.063 120.121 123.965 119.785 123.965H116.775V128.329Z" fill="#175697"/>
<path d="M133.785 133.286V125.267L130.416 131.437H129.624L126.239 125.267V133.286H124.943V122.781H126.311L130.012 129.602L133.728 122.781H135.082V133.286H133.785Z" fill="#175697"/>
<path d="M143.833 122.781H144.928L149.104 133.286H147.721L146.512 130.209H142.22L141.025 133.286H139.642L143.833 122.781ZM146.224 129.173L144.38 124.32L142.479 129.173H146.224Z" fill="#175697"/>
<path d="M161.6 133.286H160.333V128.966C160.333 128.157 160.203 127.56 159.944 127.175C159.695 126.791 159.32 126.598 158.821 126.598C158.312 126.598 157.851 126.791 157.438 127.175C157.026 127.55 156.733 128.039 156.56 128.64V133.286H155.293V128.966C155.293 128.147 155.168 127.55 154.918 127.175C154.669 126.791 154.294 126.598 153.795 126.598C153.296 126.598 152.835 126.786 152.412 127.161C152 127.526 151.707 128.014 151.534 128.625V133.286H150.267V125.563H151.419V127.22C151.726 126.648 152.124 126.209 152.614 125.903C153.104 125.587 153.656 125.429 154.27 125.429C154.894 125.429 155.393 125.607 155.768 125.962C156.142 126.307 156.373 126.756 156.459 127.309C156.795 126.697 157.203 126.233 157.683 125.918C158.163 125.592 158.71 125.429 159.325 125.429C159.757 125.429 160.117 125.513 160.405 125.681C160.703 125.839 160.938 126.066 161.111 126.362C161.283 126.648 161.408 126.988 161.485 127.383C161.562 127.777 161.6 128.206 161.6 128.67V133.286Z" fill="#175697"/>
<path d="M166.854 133.434C166.288 133.434 165.774 133.331 165.313 133.124C164.852 132.907 164.454 132.616 164.118 132.251C163.782 131.876 163.523 131.447 163.34 130.963C163.158 130.48 163.067 129.972 163.067 129.439C163.067 128.897 163.158 128.384 163.34 127.9C163.523 127.417 163.782 126.993 164.118 126.628C164.454 126.253 164.852 125.962 165.313 125.755C165.784 125.538 166.302 125.429 166.869 125.429C167.425 125.429 167.934 125.538 168.395 125.755C168.856 125.962 169.254 126.253 169.59 126.628C169.936 126.993 170.2 127.417 170.382 127.9C170.565 128.384 170.656 128.897 170.656 129.439C170.656 129.972 170.565 130.48 170.382 130.963C170.2 131.447 169.941 131.876 169.605 132.251C169.269 132.616 168.865 132.907 168.395 133.124C167.934 133.331 167.421 133.434 166.854 133.434ZM164.363 129.454C164.363 129.987 164.473 130.47 164.694 130.904C164.924 131.338 165.227 131.683 165.601 131.94C165.976 132.186 166.393 132.31 166.854 132.31C167.315 132.31 167.733 132.182 168.107 131.925C168.491 131.669 168.793 131.323 169.014 130.889C169.245 130.445 169.36 129.957 169.36 129.424C169.36 128.892 169.245 128.408 169.014 127.974C168.793 127.54 168.491 127.195 168.107 126.939C167.733 126.682 167.315 126.554 166.854 126.554C166.393 126.554 165.976 126.687 165.601 126.953C165.227 127.21 164.924 127.555 164.694 127.989C164.473 128.423 164.363 128.911 164.363 129.454Z" fill="#175697"/>
<path d="M171.954 134.485L172.242 133.168H171.809V131.629H173.005V133.168L172.573 134.485H171.954Z" fill="#175697"/>
<path d="M186.641 130.579C186.641 131.121 186.506 131.595 186.237 131.999C185.968 132.403 185.604 132.719 185.143 132.946C184.692 133.173 184.192 133.286 183.645 133.286H178.792V122.781H183.876C184.356 122.781 184.768 122.914 185.114 123.18C185.469 123.437 185.738 123.772 185.92 124.186C186.112 124.591 186.208 125.015 186.208 125.459C186.208 125.972 186.079 126.455 185.82 126.909C185.57 127.353 185.21 127.683 184.74 127.9C185.325 128.078 185.786 128.408 186.122 128.892C186.468 129.365 186.641 129.928 186.641 130.579ZM185.33 130.342C185.33 130.016 185.258 129.715 185.114 129.439C184.98 129.163 184.792 128.941 184.552 128.773C184.322 128.606 184.053 128.522 183.746 128.522H180.088V132.132H183.645C183.962 132.132 184.245 132.048 184.495 131.881C184.754 131.713 184.956 131.496 185.1 131.23C185.253 130.953 185.33 130.657 185.33 130.342ZM180.088 123.935V127.442H183.343C183.65 127.442 183.919 127.363 184.149 127.205C184.389 127.047 184.576 126.835 184.711 126.569C184.855 126.302 184.927 126.011 184.927 125.696C184.927 125.36 184.86 125.064 184.725 124.808C184.6 124.542 184.423 124.329 184.192 124.172C183.972 124.014 183.717 123.935 183.429 123.935H180.088Z" fill="#175697"/>
<path d="M188.252 133.286V125.563H189.519V133.286H188.252ZM188.252 124.112V122.485H189.519V124.112H188.252Z" fill="#175697"/>
<path d="M195.459 132.902C195.354 132.951 195.21 133.015 195.027 133.094C194.845 133.173 194.633 133.242 194.393 133.301C194.153 133.36 193.899 133.39 193.63 133.39C193.323 133.39 193.04 133.336 192.781 133.227C192.521 133.109 192.315 132.931 192.161 132.694C192.008 132.448 191.931 132.142 191.931 131.777V126.584H190.908V125.563H191.931V122.988H193.198V125.563H194.883V126.584H193.198V131.378C193.217 131.654 193.309 131.861 193.472 131.999C193.635 132.127 193.827 132.191 194.048 132.191C194.297 132.191 194.528 132.147 194.739 132.058C194.95 131.969 195.09 131.905 195.157 131.866L195.459 132.902Z" fill="#175697"/>
<path d="M200.608 126.702C199.975 126.712 199.413 126.879 198.923 127.205C198.443 127.521 198.103 127.96 197.901 128.522V133.286H196.634V125.563H197.815V127.353C198.074 126.82 198.415 126.391 198.837 126.066C199.269 125.73 199.72 125.543 200.191 125.503C200.287 125.503 200.368 125.503 200.436 125.503C200.503 125.503 200.56 125.508 200.608 125.518V126.702Z" fill="#175697"/>
<path d="M201.865 133.286V125.563H203.133V133.286H201.865ZM201.865 124.112V122.485H203.133V124.112H201.865Z" fill="#175697"/>
<path d="M205.746 125.563L207.733 128.403L207.848 128.64L207.978 128.403L209.951 125.563H211.362L208.583 129.439L211.377 133.286H209.965L207.978 130.46L207.848 130.238L207.733 130.46L205.746 133.286H204.335L207.128 129.439L204.349 125.563H205.746Z" fill="#175697"/>
<path d="M212.611 134.485L212.899 133.168H212.467V131.629H213.662V133.168L213.23 134.485H212.611Z" fill="#175697"/>
<path d="M224.259 132.103V133.286H219.176V132.103H221.134V124.039C221.057 124.157 220.933 124.29 220.76 124.438C220.587 124.576 220.385 124.714 220.155 124.852C219.934 124.981 219.708 125.089 219.478 125.178C219.248 125.267 219.036 125.311 218.844 125.311V124.098C219.104 124.098 219.363 124.029 219.622 123.891C219.891 123.752 220.136 123.59 220.357 123.402C220.587 123.215 220.769 123.047 220.904 122.899C221.048 122.751 221.125 122.672 221.134 122.662H222.43V132.103H224.259Z" fill="#175697"/>
<path d="M225.143 127.96C225.143 127.318 225.249 126.692 225.46 126.08C225.681 125.459 225.998 124.897 226.411 124.394C226.833 123.881 227.347 123.476 227.952 123.18C228.556 122.875 229.243 122.722 230.011 122.722C230.923 122.722 231.705 122.939 232.358 123.373C233.011 123.797 233.496 124.344 233.813 125.015L232.79 125.696C232.589 125.252 232.329 124.902 232.013 124.645C231.705 124.379 231.369 124.191 231.005 124.083C230.649 123.974 230.299 123.92 229.953 123.92C229.387 123.92 228.883 124.039 228.441 124.275C228.009 124.512 227.644 124.828 227.347 125.222C227.049 125.617 226.824 126.061 226.67 126.554C226.526 127.037 226.454 127.526 226.454 128.019C226.454 128.561 226.54 129.084 226.713 129.587C226.896 130.09 227.145 130.534 227.462 130.919C227.779 131.304 228.153 131.609 228.585 131.836C229.017 132.063 229.488 132.177 229.997 132.177C230.352 132.177 230.717 132.112 231.091 131.984C231.465 131.856 231.816 131.659 232.142 131.392C232.469 131.116 232.728 130.761 232.92 130.327L234 130.934C233.789 131.457 233.462 131.9 233.021 132.265C232.579 132.63 232.085 132.907 231.537 133.094C231 133.281 230.467 133.375 229.939 133.375C229.238 133.375 228.595 133.222 228.009 132.916C227.424 132.601 226.915 132.186 226.483 131.674C226.06 131.151 225.729 130.569 225.489 129.928C225.259 129.276 225.143 128.62 225.143 127.96Z" fill="#175697"/>
</svg>
