<svg width="352" height="375" viewBox="0 0 352 375" fill="none" xmlns="http://www.w3.org/2000/svg">
<path d="M3.74121 169.27V212.285C3.74121 220.068 10.0526 226.38 17.8358 226.38H172.063C179.846 226.38 186.158 220.068 186.158 212.285V175.943L205.354 155.772L17.8809 155.185C10.0797 155.158 3.74121 161.478 3.74121 169.27Z" fill="#F5F5F5"/>
<path d="M163.413 181.243L23.47 180.593L23.479 176.295L163.431 176.945L163.413 181.243Z" fill="#E0E0E0"/>
<path d="M163.413 195.392L23.47 194.751L23.479 190.444L163.431 191.094L163.413 195.392Z" fill="#E0E0E0"/>
<path d="M108.062 204.611L108.041 208.909L163.417 209.182L163.438 204.884L108.062 204.611Z" fill="#E0E0E0"/>
<path d="M146.646 317.89V360.905C146.646 368.689 152.957 375 160.741 375H314.968C322.751 375 329.063 368.689 329.063 360.905V324.563L348.259 304.392L160.786 303.805C152.984 303.778 146.646 310.098 146.646 317.89Z" fill="#F5F5F5"/>
<path d="M306.995 328.743L167.043 328.102L167.052 323.795L307.004 324.445L306.995 328.743Z" fill="#E0E0E0"/>
<path d="M306.995 342.892L167.043 342.251L167.052 337.944L307.004 338.594L306.995 342.892Z" fill="#E0E0E0"/>
<path d="M251.637 352.114L251.616 356.412L306.992 356.685L307.013 352.387L251.637 352.114Z" fill="#E0E0E0"/>
<path d="M86.1777 7.25049H177.138C181.643 7.25049 185.291 10.8983 185.291 15.4038V59.8997C185.291 64.4052 181.643 68.053 177.138 68.053H99.9472C95.4417 68.053 91.7939 64.4052 91.7939 59.8997V12.8757L86.1777 7.25049Z" fill="#F5F5F5"/>
<path d="M138.908 50.5004V79.0235C138.908 84.1882 134.728 88.3688 129.563 88.3688H27.2714C22.1067 88.3688 17.9262 84.1882 17.9262 79.0235V54.9156L5.19507 41.5344L129.536 41.1461C134.71 41.1461 138.908 45.3266 138.908 50.5004Z" fill="#E0E0E0"/>
<path d="M33.0051 58.4371L125.834 58.0128L125.816 55.1595L32.9961 55.5929L33.0051 58.4371Z" fill="#F5F5F5"/>
<path d="M33.0051 67.8274L125.834 67.403L125.816 64.5498L32.9961 64.9742L33.0051 67.8274Z" fill="#F5F5F5"/>
<path d="M69.7297 73.9413L32.999 74.1221L33.0131 76.9753L69.7438 76.7945L69.7297 73.9413Z" fill="#F5F5F5"/>
<path d="M332.683 182.787V211.31C332.683 216.475 328.503 220.655 323.338 220.655H221.056C215.891 220.655 211.71 216.475 211.71 211.31V187.202L198.979 173.821L323.32 173.433C328.485 173.433 332.683 177.622 332.683 182.787Z" fill="#E0E0E0"/>
<path d="M226.78 190.732L319.609 190.299L319.591 187.446L226.771 187.879L226.78 190.732Z" fill="#F5F5F5"/>
<path d="M226.78 200.114L319.609 199.689L319.591 196.836L226.771 197.261L226.78 200.114Z" fill="#F5F5F5"/>
<path d="M263.507 206.229L226.777 206.41L226.791 209.263L263.521 209.082L263.507 206.229Z" fill="#F5F5F5"/>
<path d="M245.064 324.41C229.778 309.521 229.525 286.496 233.507 266.488C234.166 263.147 234.383 259.544 236.459 256.863C238.536 254.181 242.599 252.772 245.371 254.678C247.674 256.258 248.288 259.337 249.29 261.964C250.626 265.458 252.956 268.555 255.935 270.777C257.895 272.239 260.432 273.35 262.734 272.528C265.895 271.4 266.888 267.454 267.421 264.113C268.405 257.883 269.38 251.644 270.364 245.414C270.888 242.073 271.439 238.66 273.001 235.653C274.563 232.655 277.335 230.082 280.657 229.712C283.98 229.342 287.61 231.816 287.745 235.202C287.799 236.61 287.294 237.974 287.158 239.373C287.023 240.773 287.42 242.416 288.675 243.021C289.948 243.635 291.438 242.904 292.594 242.091C296.594 239.283 299.646 235.319 302.544 231.355C305.442 227.391 308.287 223.319 312.016 220.15C315.745 216.981 320.548 214.778 325.379 215.292C330.209 215.807 334.823 219.59 335.266 224.484C335.708 229.396 332.178 233.721 328.566 237.044C323.203 241.974 317.135 246.118 310.616 249.305C309.442 249.883 308.169 250.497 307.564 251.671C306.472 253.784 308.223 256.339 310.3 257.432C312.657 258.669 315.402 258.849 317.957 259.589C320.512 260.321 323.149 261.937 323.727 264.556C324.539 268.194 321.09 271.309 317.903 273.187C311.51 276.962 304.476 279.616 297.208 281.007C294.607 281.503 291.89 281.864 289.623 283.273C287.357 284.673 285.669 287.481 286.481 290.027C287.294 292.582 290.246 293.837 292.892 293.783C295.546 293.729 298.075 292.709 300.684 292.185C305.56 291.201 311.438 292.492 313.731 296.943C315.239 299.869 314.815 303.526 313.325 306.478C311.835 309.431 309.415 311.778 306.905 313.909C298.129 321.34 287.574 326.749 276.323 328.699C265.046 330.631 255.014 330.017 245.064 324.41Z" fill="#175697"/>
<path d="M242.355 339.29C244.387 331.435 247.682 322.306 252.323 312.654C256.946 302.984 262.897 292.808 269.479 282.37C271.131 279.77 272.775 277.196 274.382 274.659C275.998 272.131 277.596 269.63 279.321 267.273C282.743 262.551 286.382 258.271 289.975 254.316C293.56 250.361 297.108 246.732 300.449 243.373C303.799 240.014 306.986 236.944 310.002 234.262C316.024 228.89 321.388 225.134 325.18 222.705C327.076 221.486 328.566 220.583 329.595 219.996C330.083 219.716 330.471 219.491 330.76 219.328C331.022 219.184 331.166 219.111 331.166 219.121C331.175 219.13 331.049 219.22 330.787 219.382C330.507 219.563 330.128 219.798 329.649 220.105C328.647 220.737 327.166 221.667 325.297 222.913C321.559 225.396 316.25 229.197 310.282 234.597C307.293 237.287 304.133 240.366 300.801 243.743C297.478 247.12 293.948 250.75 290.381 254.714C286.815 258.668 283.194 262.939 279.799 267.643C278.093 269.982 276.504 272.474 274.887 275.002C273.28 277.539 271.646 280.104 269.985 282.704C263.402 293.133 257.452 303.272 252.811 312.907C248.152 322.523 244.838 331.597 242.753 339.407" fill="#263238"/>
<path d="M279.501 267.273C279.456 267.273 279.429 266.75 279.411 265.792C279.384 264.844 279.393 263.463 279.438 261.756C279.51 258.352 279.772 253.657 280.079 248.474C280.386 243.292 280.576 238.606 280.603 235.211C280.621 233.513 280.612 232.141 280.603 231.193C280.594 230.245 280.612 229.712 280.657 229.712C280.702 229.712 280.765 230.235 280.847 231.184C280.937 232.132 281 233.513 281.045 235.211C281.136 238.615 281.018 243.328 280.711 248.511C280.395 253.621 280.106 258.244 279.89 261.774C279.799 263.373 279.727 264.718 279.664 265.792C279.601 266.75 279.546 267.273 279.501 267.273Z" fill="#263238"/>
<path d="M323.771 266.28C323.762 266.325 323.139 266.289 322.029 266.208C320.909 266.126 319.293 266 317.288 265.901C313.288 265.684 307.744 265.576 301.623 265.72C295.501 265.874 289.966 266.253 285.975 266.641C283.98 266.822 282.363 267.011 281.244 267.138C280.124 267.264 279.51 267.318 279.501 267.273C279.492 267.228 280.106 267.102 281.208 266.894C282.318 266.695 283.925 266.442 285.921 266.199C289.912 265.693 295.465 265.242 301.605 265.088C307.744 264.944 313.297 265.124 317.306 265.458C319.311 265.612 320.927 265.801 322.038 265.964C323.166 266.126 323.78 266.235 323.771 266.28Z" fill="#263238"/>
<path d="M252.983 311.941C252.965 311.95 252.892 311.751 252.775 311.372C252.649 310.92 252.486 310.37 252.296 309.701C251.89 308.248 251.348 306.126 250.716 303.489C249.452 298.225 247.926 290.912 246.355 282.813C244.784 274.704 243.33 267.382 242.175 262.109C241.606 259.544 241.136 257.431 240.784 255.86C240.64 255.183 240.513 254.614 240.414 254.154C240.333 253.766 240.306 253.558 240.324 253.549C240.342 253.549 240.414 253.739 240.531 254.118C240.658 254.569 240.82 255.12 241.01 255.788C241.416 257.242 241.958 259.364 242.59 262C243.854 267.264 245.38 274.578 246.951 282.686C248.522 290.785 249.976 298.108 251.123 303.39C251.691 305.954 252.161 308.067 252.513 309.638C252.658 310.315 252.784 310.884 252.883 311.345C252.974 311.733 253.001 311.941 252.983 311.941Z" fill="#263238"/>
<path d="M313.072 302.893C313.072 302.911 312.864 302.966 312.467 303.038C311.997 303.11 311.42 303.209 310.715 303.318C309.099 303.562 306.923 303.896 304.277 304.302C298.842 305.133 291.348 306.361 283.068 307.733C274.788 309.105 267.276 310.27 261.822 310.984C259.095 311.345 256.883 311.607 255.357 311.769C254.653 311.832 254.066 311.886 253.597 311.941C253.19 311.968 252.983 311.977 252.974 311.959C252.974 311.941 253.181 311.886 253.579 311.814C254.048 311.742 254.626 311.643 255.33 311.534C256.946 311.291 259.113 310.956 261.768 310.55C267.204 309.719 274.698 308.491 282.978 307.119C291.257 305.747 298.77 304.582 304.223 303.869C306.95 303.507 309.162 303.246 310.688 303.083C311.392 303.02 311.979 302.957 312.449 302.911C312.855 302.875 313.063 302.866 313.072 302.893Z" fill="#263238"/>
<path d="M93.1752 121.38C90.3852 119.213 89.1392 115.384 89.7171 111.899C90.304 108.414 92.5522 105.335 95.4596 103.33C96.805 102.409 98.4754 101.678 100.046 102.138C101.509 102.572 102.529 103.989 102.827 105.488C103.125 106.987 102.8 108.54 102.304 109.985C100.588 114.933 98.0239 119.411 93.1752 121.38Z" fill="#175697"/>
<path d="M88.5975 129.831C83.0987 124.81 75.0717 122.716 67.8213 124.395C65.9703 124.82 63.8936 125.795 63.5866 127.673C63.2796 129.551 64.9591 131.14 66.6024 132.088C73.4375 136.052 82.7014 135.302 88.8142 130.3" fill="#175697"/>
<path d="M62.0877 90.6984C65.1396 89.8587 68.4804 90.6171 71.1801 92.2604C73.8799 93.9038 75.9927 96.3778 77.6811 99.0504C80.9497 104.215 82.1054 111.168 82.2499 117.28C75.46 117.009 69.6632 111.673 66.8913 108.775C62.5031 104.215 57.3564 93.2988 62.0877 90.6984Z" fill="#175697"/>
<path d="M98.8638 139.068C98.4665 138.345 97.8164 137.84 97.1663 136.512C95.8932 133.867 94.1776 130.093 93.3469 125.614C92.5163 121.127 93.0761 116.883 94.1957 114.12C94.7374 112.73 95.3514 111.673 95.839 111.005C96.3266 110.328 96.6426 110.003 96.6787 110.021C96.7961 110.093 95.5952 111.52 94.6562 114.283C93.69 117.018 93.2205 121.118 94.0241 125.497C94.8368 129.876 96.453 133.623 97.6177 136.314" fill="#263238"/>
<path d="M98.927 139.149C98.0151 137.975 96.8322 136.44 95.3876 134.589C92.417 130.734 88.2906 125.416 83.6587 119.601C79.0267 113.795 74.7649 108.585 71.6679 104.829C70.1871 103.014 68.9501 101.515 68.0111 100.369C67.1533 99.3122 66.7018 98.7073 66.7289 98.6802C66.7651 98.6531 67.2888 99.1948 68.2097 100.197C69.1307 101.199 70.4399 102.68 72.0291 104.522C75.2254 108.206 79.5504 113.371 84.1824 119.185C88.8143 125 92.8865 130.373 95.7578 134.309C97.1934 136.278 98.3491 137.876 99.1166 139.005" fill="#263238"/>
<path d="M72.0558 128.414C72.0468 128.368 72.4621 128.242 73.2296 128.052C73.6178 127.953 74.0874 127.845 74.6472 127.782C75.207 127.709 75.839 127.592 76.5523 127.574C77.9699 127.465 79.6674 127.52 81.5365 127.763C83.3965 128.043 85.419 128.531 87.4596 129.307C89.4821 130.111 91.306 131.122 92.8681 132.17C94.4121 133.253 95.7032 134.364 96.6694 135.402C97.184 135.89 97.5723 136.413 97.9334 136.838C98.3036 137.262 98.5835 137.659 98.8002 137.994C99.2427 138.653 99.1795 138.96 99.1434 138.987C99.035 139.068 98.3398 137.678 96.3353 135.736C95.3421 134.761 94.0419 133.714 92.5159 132.684C90.9719 131.691 89.1842 130.716 87.2158 129.939C85.2294 129.181 83.261 128.693 81.4552 128.386C79.6403 128.116 77.9789 128.007 76.5794 128.052C73.7804 128.125 72.0829 128.54 72.0558 128.414Z" fill="#263238"/>
<path d="M223.52 358.802L119.233 358.323C106.692 358.269 96.5701 348.057 96.6242 335.507L97.7258 74.0576C97.78 61.507 108.001 51.3763 120.552 51.4395L224.839 51.918C237.38 51.9722 247.502 62.1842 247.448 74.7348L246.346 336.184C246.292 348.725 236.071 358.856 223.52 358.802Z" fill="#263238"/>
<path d="M224.694 60.9383L204.478 60.848C201.769 60.839 199.557 63.1233 199.548 65.9585L199.53 69.6244C199.521 72.4595 197.309 74.7439 194.6 74.7349L155.188 74.5543C152.479 74.5453 150.285 72.2338 150.303 69.3986L150.321 65.7328C150.33 62.8976 148.145 60.5861 145.436 60.5771L138.321 60.541L120.624 60.4597C111.838 60.4236 104.678 67.5115 104.642 76.306L103.568 331.498C103.532 340.283 110.62 347.434 119.405 347.479L223.484 347.958C232.27 348.003 239.43 340.906 239.466 332.112L240.54 76.9199C240.568 68.1255 233.471 60.9744 224.694 60.9383Z" fill="#175697"/>
<path d="M211.722 151H132.278C124.312 151 117.833 157.366 117.833 165.194V229.07C117.833 236.898 124.312 243.264 132.278 243.264V257.451C132.278 258.828 133.087 260.077 134.358 260.666C134.842 260.886 135.369 261 135.889 261C136.719 261 137.543 260.723 138.2 260.177L158.863 243.264H211.722C219.688 243.264 226.167 236.898 226.167 229.07V165.194C226.167 157.366 219.688 151 211.722 151Z" fill="white"/>
<path d="M143.436 214.856H136.33C134.369 214.856 132.777 213.264 132.777 211.303C132.777 209.341 134.369 207.75 136.33 207.75H143.436C145.397 207.75 146.989 206.158 146.989 204.197C146.989 202.235 145.397 200.644 143.436 200.644C137.559 200.644 132.777 195.861 132.777 189.984C132.777 184.108 137.559 179.325 143.436 179.325H150.542C152.503 179.325 154.095 180.917 154.095 182.878C154.095 184.84 152.503 186.431 150.542 186.431H143.436C141.475 186.431 139.883 188.023 139.883 189.984C139.883 191.946 141.475 193.537 143.436 193.537C149.313 193.537 154.095 198.32 154.095 204.197C154.095 210.073 149.313 214.856 143.436 214.856Z" fill="#175697"/>
<path d="M200.285 214.855H193.179C191.217 214.855 189.625 213.264 189.625 211.302C189.625 209.341 191.217 207.749 193.179 207.749H200.285C202.239 207.749 203.838 206.157 203.838 204.196C203.838 202.235 202.239 200.643 200.285 200.643C194.408 200.643 189.625 195.861 189.625 189.984C189.625 184.107 194.408 179.325 200.285 179.325H207.391C209.352 179.325 210.944 180.917 210.944 182.878C210.944 184.839 209.352 186.431 207.391 186.431H200.285C198.33 186.431 196.732 188.023 196.732 189.984C196.732 191.945 198.33 193.537 200.285 193.537C206.161 193.537 210.944 198.319 210.944 204.196C210.944 210.073 206.161 214.855 200.285 214.855Z" fill="#175697"/>
<path d="M178.966 214.855C177.005 214.855 175.413 213.263 175.413 211.302V197.929L175.037 198.682C173.829 201.091 169.885 201.091 168.677 198.682L168.307 197.929V211.302C168.307 213.263 166.715 214.855 164.754 214.855C162.793 214.855 161.201 213.263 161.201 211.302V182.878C161.201 181.229 162.338 179.794 163.937 179.417C165.522 179.034 167.192 179.815 167.931 181.286L171.86 189.146L175.79 181.293C176.522 179.808 178.149 179.041 179.784 179.417C181.39 179.794 182.519 181.229 182.519 182.878V211.302C182.519 213.263 180.928 214.855 178.966 214.855Z" fill="#175697"/>
<path d="M232.793 14.9436C232.92 14.9436 233.028 20.5688 233.028 27.5122C233.028 34.4557 232.92 40.0809 232.793 40.0809C232.667 40.0809 232.559 34.4557 232.559 27.5122C232.559 20.5688 232.658 14.9436 232.793 14.9436Z" fill="#263238"/>
<path d="M277.325 43.8642C277.379 43.9816 272.269 46.3473 265.921 49.1554C259.574 51.9544 254.382 54.1304 254.328 54.0131C254.274 53.8957 259.375 51.53 265.732 48.7219C272.079 45.9139 277.271 43.7378 277.325 43.8642Z" fill="#263238"/>
<path d="M276.196 0.0003768C276.215 0.00940598 276.124 0.17193 275.953 0.478922C275.754 0.831061 275.492 1.26446 275.176 1.80621C274.499 2.96195 273.497 4.61429 272.233 6.63683C269.704 10.6909 266.066 16.2078 261.948 22.2212C257.822 28.2346 254.147 33.7154 251.547 37.7153C250.274 39.6836 249.235 41.2908 248.477 42.4646C248.134 42.9883 247.854 43.4127 247.628 43.7468C247.429 44.0357 247.321 44.1892 247.303 44.1802C247.285 44.1712 247.375 44.0086 247.547 43.7016C247.746 43.3495 248.007 42.9161 248.314 42.3743C248.992 41.2186 249.994 39.5753 251.258 37.5437C253.786 33.4896 257.425 27.9728 261.551 21.9594C265.668 15.9459 269.352 10.4742 271.944 6.46527C273.217 4.49691 274.255 2.88971 275.014 1.71592C275.357 1.19223 275.637 0.767857 275.862 0.433777C276.079 0.144843 276.187 -0.00865239 276.196 0.0003768Z" fill="#263238"/>
</svg>
