<svg width="628" height="550" viewBox="0 0 628 550" fill="none" xmlns="http://www.w3.org/2000/svg">
<path d="M34.3476 140.254C34.3476 140.254 26.9028 139.684 27.589 157.444C28.2752 175.204 29.9766 184.674 29.9766 184.674C29.9766 184.674 29.7604 188.614 26.8934 187.844C24.0264 187.074 18.6308 183.234 15.9706 186.104C13.207 189.074 14.194 193.634 17.8506 199.004C21.5166 204.374 29.14 216.444 29.8262 217.544C30.503 218.614 30.7662 220.634 28.7358 220.444C26.7054 220.254 12.9814 215.304 11.1672 222.374C9.35302 229.444 21.8738 242.614 23.2086 244.084C24.5528 245.554 24.628 246.474 24.0828 247.364C23.5376 248.254 19.0726 246.124 15.1152 244.894C11.1578 243.654 6.36381 242.964 5.64001 247.134C4.91621 251.304 10.4246 263.514 31.0764 276.334L41.0122 281.614L50.4122 275.234C69.7574 260.274 74.0908 247.544 72.9816 243.474C71.863 239.404 67.163 240.604 63.3466 242.254C59.5302 243.904 55.2814 246.494 54.661 245.674C54.0312 244.844 54.0218 243.914 55.2156 242.314C56.4094 240.714 67.633 226.274 65.1608 219.434C62.6886 212.594 49.5004 218.974 47.4982 219.384C45.496 219.794 45.5712 217.764 46.1446 216.614C46.7274 215.454 53.1758 202.624 56.3154 196.894C59.455 191.164 60.0096 186.524 56.9734 183.864C54.05 181.294 49.0492 185.684 46.2668 186.754C43.4844 187.824 42.9016 183.934 42.9016 183.934C42.9016 183.934 43.71 174.334 42.723 156.594C41.736 138.844 34.2066 140.274 34.2066 140.274" fill="#EBEBEB"/>
<path d="M34.9397 156.164C34.9397 156.164 34.9585 156.294 34.9773 156.534C34.9961 156.794 35.0243 157.154 35.0525 157.624C35.1183 158.604 35.2029 160.014 35.3157 161.814C35.5413 165.454 35.8327 170.734 36.1711 177.254C36.8479 190.294 37.6469 208.304 38.4647 228.214C39.2825 248.124 40.0345 266.144 40.6455 279.184C40.9557 285.694 41.2095 290.964 41.3881 294.624C41.4727 296.434 41.5385 297.844 41.5855 298.824C41.6043 299.294 41.6137 299.654 41.6231 299.914C41.6325 300.164 41.6231 300.284 41.6231 300.284C41.6231 300.284 41.6043 300.154 41.5855 299.914C41.5667 299.654 41.5385 299.294 41.5103 298.824C41.4445 297.844 41.3599 296.434 41.2471 294.634C41.0215 290.994 40.7301 285.714 40.3917 279.194C39.7149 266.154 38.9159 248.134 38.0981 228.224C37.2803 208.324 36.5283 190.304 35.9173 177.264C35.6071 170.754 35.3533 165.484 35.1747 161.824C35.0901 160.014 35.0243 158.604 34.9773 157.624C34.9585 157.154 34.9491 156.794 34.9397 156.534C34.9303 156.284 34.9397 156.164 34.9397 156.164Z" fill="#E0E0E0"/>
<path d="M23.3119 191.784C23.3307 191.764 23.5469 191.964 23.9323 192.334C24.3177 192.704 24.8535 193.254 25.5115 193.944C26.8181 195.324 28.5853 197.284 30.4935 199.484C32.3641 201.654 34.0467 203.624 35.3533 205.144C35.9361 205.814 36.4249 206.384 36.8291 206.854C37.1769 207.254 37.3649 207.484 37.3461 207.504C37.3273 207.524 37.1111 207.334 36.7257 206.964C36.3403 206.594 35.8045 206.044 35.1559 205.344C33.8587 203.944 32.1197 201.964 30.2115 199.764C28.3315 197.604 26.6301 195.654 25.3141 194.144C24.7313 193.474 24.2331 192.914 23.8289 192.444C23.4717 192.034 23.2931 191.804 23.3119 191.784Z" fill="#E0E0E0"/>
<path d="M38.3239 207.144C38.2487 207.064 41.8865 203.014 46.4361 198.104C50.9951 193.184 54.7457 189.274 54.8209 189.344C54.8961 189.424 51.2677 193.474 46.7087 198.384C42.1591 203.304 38.3991 207.224 38.3239 207.144Z" fill="#E0E0E0"/>
<path d="M38.2862 237.774C38.2768 237.754 38.5211 237.584 38.9817 237.304C39.5081 236.984 40.1567 236.604 40.9275 236.144C42.5631 235.164 44.8285 233.804 47.2725 232.204C49.7165 230.614 51.8879 229.094 53.4483 227.974C54.1815 227.454 54.7925 227.014 55.3001 226.654C55.7419 226.344 55.9957 226.184 56.0051 226.214C56.0239 226.234 55.7983 226.444 55.3847 226.784C54.9711 227.134 54.3601 227.624 53.5987 228.204C52.0759 229.384 49.9233 230.944 47.4606 232.544C45.0072 234.144 42.723 235.474 41.0498 236.394C40.2132 236.854 39.5269 237.204 39.0475 237.444C38.5681 237.684 38.2956 237.804 38.2862 237.774Z" fill="#E0E0E0"/>
<path d="M21.8267 227.054C21.8361 227.034 22.0805 227.154 22.5129 227.394C22.9453 227.634 23.5563 228.004 24.3177 228.454C25.8311 229.364 27.9085 230.654 30.1833 232.094C32.4675 233.534 34.5167 234.864 35.9925 235.844C36.7351 236.334 37.3273 236.734 37.7315 237.024C38.1357 237.314 38.3519 237.474 38.3425 237.504C38.3331 237.524 38.0887 237.404 37.6563 237.164C37.2239 236.924 36.6129 236.554 35.8515 236.104C34.3381 235.194 32.2607 233.904 29.9859 232.464C27.7017 231.024 25.6525 229.694 24.1767 228.714C23.4341 228.224 22.8419 227.824 22.4377 227.534C22.0335 227.244 21.8173 227.084 21.8267 227.054Z" fill="#E0E0E0"/>
<path d="M18.5651 254.094C18.5745 254.074 18.8847 254.234 19.4393 254.544C20.0503 254.904 20.8305 255.354 21.7517 255.904C23.6975 257.064 26.3671 258.694 29.3093 260.514C32.2515 262.334 34.9023 264.004 36.8105 265.224C37.7129 265.814 38.4649 266.304 39.0665 266.694C39.5929 267.044 39.8749 267.254 39.8655 267.284C39.8561 267.304 39.5459 267.144 38.9913 266.834C38.3803 266.474 37.6001 266.024 36.6789 265.474C34.7331 264.314 32.0635 262.684 29.1213 260.864C26.1791 259.044 23.5283 257.374 21.6201 256.154C20.7177 255.564 19.9657 255.074 19.3641 254.684C18.8377 254.324 18.5463 254.114 18.5651 254.094Z" fill="#E0E0E0"/>
<path d="M39.4331 266.804C39.4237 266.784 39.7245 266.564 40.2979 266.184C40.9277 265.774 41.7455 265.254 42.7137 264.624C44.7535 263.304 47.5641 261.464 50.6097 259.354C53.6647 257.244 56.3813 255.254 58.3365 253.804C59.2671 253.114 60.0473 252.534 60.6583 252.084C61.2129 251.684 61.5231 251.474 61.5325 251.494C61.5513 251.514 61.2693 251.774 60.7429 252.214C60.2165 252.654 59.4551 253.284 58.4869 254.034C56.5693 255.544 53.8715 257.574 50.8071 259.694C47.7521 261.814 44.9133 263.614 42.8359 264.874C41.7925 265.504 40.9465 266.004 40.3543 266.324C39.7809 266.654 39.4425 266.824 39.4331 266.804Z" fill="#E0E0E0"/>
<path d="M54.3601 285.044H26.8745L35.8515 357.284H45.3925L54.3601 285.044Z" fill="#E0E0E0"/>
<path d="M28.3034 293.924C28.294 293.934 28.3316 294.024 28.4538 294.184C28.5666 294.334 28.7828 294.534 29.1212 294.684C29.7698 294.984 30.9166 295.014 32.0258 294.304C33.135 293.654 34.1032 292.374 35.5884 291.804C37.0642 291.204 38.8878 291.314 40.6456 291.914C42.4222 292.494 43.9544 293.454 45.355 294.344C46.7556 295.224 48.034 296.014 49.1808 296.524C50.3182 297.054 51.3146 297.294 52.0008 297.394C52.3486 297.444 52.6118 297.454 52.7998 297.454C52.9784 297.454 53.0818 297.444 53.0818 297.434C53.1006 297.334 51.5308 297.354 49.3124 296.224C48.2032 295.684 46.953 294.874 45.5712 293.974C44.1894 293.064 42.6102 292.074 40.7866 291.474C38.9818 290.854 37.036 290.744 35.4474 291.414C34.6578 291.734 33.9904 292.234 33.4358 292.734C32.8718 293.224 32.3736 293.694 31.866 294.034C30.8602 294.724 29.8074 294.754 29.187 294.524C28.5384 294.274 28.341 293.884 28.3034 293.924Z" fill="#F5F5F5"/>
<path d="M29.3092 307.224C29.3468 307.244 29.5254 306.924 29.9578 306.444C30.3996 305.984 31.114 305.374 32.1574 304.964C33.1914 304.544 34.5168 304.294 35.9832 304.354C37.459 304.404 39.057 304.754 40.7678 305.044C42.4692 305.344 44.1612 305.484 45.6652 305.264C47.1692 305.054 48.4758 304.594 49.5192 304.094C50.5626 303.594 51.3334 303.034 51.8316 302.624C52.3392 302.214 52.5836 301.944 52.5648 301.924C52.5178 301.844 51.4556 302.854 49.3876 303.784C48.3536 304.234 47.0752 304.654 45.6088 304.824C44.1424 305.014 42.5256 304.874 40.8336 304.574C39.1416 304.284 37.5154 303.944 35.9926 303.914C34.4698 303.874 33.0974 304.174 32.0352 304.654C30.9636 305.124 30.2398 305.804 29.8262 306.324C29.6288 306.594 29.4878 306.814 29.4126 306.974C29.328 307.134 29.2904 307.224 29.3092 307.224Z" fill="#F5F5F5"/>
<path d="M51.2487 314.354C51.2581 314.334 51.0043 314.154 50.4873 313.934C49.9797 313.714 49.1995 313.494 48.2125 313.414C47.2255 313.334 46.0505 313.394 44.7721 313.624C43.4937 313.844 42.1119 314.224 40.6737 314.544C39.2355 314.864 37.8443 315.084 36.5847 315.034C35.3251 314.984 34.2065 314.694 33.3323 314.284C31.5651 313.454 30.9353 312.254 30.8695 312.334C30.8507 312.344 30.9729 312.644 31.3301 313.094C31.6873 313.544 32.2983 314.114 33.2007 314.584C34.0937 315.054 35.2499 315.394 36.5659 315.464C37.8819 315.544 39.3107 315.324 40.7677 315.004C42.2247 314.674 43.5877 314.284 44.8473 314.044C46.0975 313.804 47.2443 313.704 48.2031 313.734C50.1207 313.814 51.2205 314.444 51.2487 314.354Z" fill="#F5F5F5"/>
<path d="M31.7342 324.374C31.7436 324.454 32.7118 323.724 34.4038 324.084C35.231 324.244 36.1522 324.684 37.1956 325.194C38.2296 325.704 39.4798 326.144 40.824 326.254C43.5218 326.534 45.9282 325.604 47.3946 324.634C48.1466 324.154 48.673 323.644 49.0302 323.294C49.3686 322.914 49.5378 322.694 49.5096 322.674C49.4532 322.604 48.7294 323.464 47.2348 324.344C45.759 325.214 43.4466 326.044 40.8616 325.784C38.2578 325.624 36.265 323.974 34.4602 323.754C33.5766 323.614 32.8434 323.744 32.3828 323.944C31.9128 324.134 31.7248 324.354 31.7342 324.374Z" fill="#F5F5F5"/>
<path d="M33.2664 338.234C33.2664 338.284 34.1876 338.284 35.56 337.754C36.9418 337.264 38.6526 336.134 40.6454 335.294C41.6512 334.884 42.6476 334.634 43.5688 334.644C44.4806 334.644 45.2984 334.884 45.9188 335.214C47.1784 335.884 47.545 336.834 47.6202 336.774C47.639 336.764 47.5826 336.524 47.357 336.154C47.1314 335.784 46.7178 335.304 46.0692 334.914C45.43 334.524 44.5652 334.234 43.5782 334.204C42.5912 334.174 41.529 334.424 40.495 334.844C38.427 335.724 36.7726 336.884 35.4472 337.434C34.1406 338.034 33.257 338.164 33.2664 338.234Z" fill="#F5F5F5"/>
<path d="M34.6107 344.684C34.5919 344.744 35.2499 344.994 36.3497 345.284C37.4495 345.574 38.9817 345.884 40.7019 346.064C42.4221 346.244 43.9825 346.254 45.1105 346.204C46.2385 346.144 46.9341 346.034 46.9247 345.974C46.9153 345.834 44.1423 345.954 40.7395 345.594C37.3461 345.244 34.6483 344.544 34.6107 344.684Z" fill="#F5F5F5"/>
<path d="M546.863 162.944L463.277 183.266L476.153 243.203L559.739 222.881L546.863 162.944Z" fill="#F5F5F5"/>
<path d="M547.268 163.604C547.287 163.624 547.08 163.964 546.657 164.594C546.187 165.284 545.567 166.194 544.796 167.334C543.104 169.764 540.735 173.154 537.831 177.314C531.843 185.754 523.646 197.314 514.556 210.114L514.368 210.384L514.077 210.234C513.861 210.124 513.616 210.004 513.381 209.874C499.657 202.784 487.24 196.374 478.159 191.684C473.723 189.354 470.113 187.444 467.528 186.084C466.334 185.434 465.375 184.914 464.652 184.524C464.003 184.164 463.665 183.954 463.674 183.934C463.683 183.914 464.05 184.064 464.717 184.374C465.46 184.734 466.438 185.204 467.66 185.794C470.273 187.094 473.92 188.924 478.404 191.154C487.512 195.784 499.958 202.124 513.72 209.124C513.955 209.244 514.199 209.364 514.415 209.484L513.936 209.604C523.091 196.864 531.354 185.354 537.389 176.954C540.378 172.864 542.813 169.524 544.552 167.134C545.369 166.034 546.027 165.154 546.526 164.494C546.996 163.894 547.24 163.584 547.268 163.604Z" fill="#E0E0E0"/>
<path d="M476.552 243.864C476.364 243.764 480.885 234.014 486.648 222.104C492.419 210.184 497.241 200.614 497.439 200.724C497.627 200.824 493.105 210.574 487.343 222.484C481.572 234.394 476.74 243.964 476.552 243.864Z" fill="#E0E0E0"/>
<path d="M525.065 193.214C525.197 193.034 533.168 199.684 542.85 208.054C552.542 216.434 560.278 223.364 560.146 223.544C560.015 223.724 552.053 217.074 542.361 208.704C532.67 200.324 524.924 193.394 525.065 193.214Z" fill="#E0E0E0"/>
<path d="M174.506 3.57717e-06L166.839 35.322L216.098 47.4225L223.765 12.1005L174.506 3.57717e-06Z" fill="#F5F5F5"/>
<path d="M223.833 12.5839C223.842 12.5939 223.645 12.7239 223.269 12.9439C222.855 13.1839 222.3 13.4939 221.624 13.8839C220.138 14.7039 218.061 15.8539 215.514 17.2739C210.297 20.1139 203.153 24.0039 195.238 28.3039L195.069 28.3939L194.956 28.2339C194.871 28.1139 194.768 27.9839 194.674 27.8539C189.109 20.3339 184.071 13.5339 180.386 8.56393C178.6 6.11393 177.143 4.11393 176.099 2.68393C175.62 2.01393 175.244 1.47393 174.953 1.07393C174.699 0.703927 174.567 0.503925 174.577 0.493925C174.586 0.483925 174.746 0.663926 175.028 1.01393C175.338 1.40393 175.742 1.92393 176.24 2.57393C177.312 3.98393 178.807 5.94393 180.64 8.35393C184.353 13.3039 189.419 20.0739 195.031 27.5539C195.125 27.6839 195.228 27.8139 195.313 27.9339L195.031 27.8639C202.965 23.6139 210.137 19.7639 215.373 16.9639C217.948 15.6139 220.044 14.5039 221.548 13.7139C222.253 13.3539 222.808 13.0739 223.24 12.8539C223.616 12.6639 223.823 12.5639 223.833 12.5839Z" fill="#E0E0E0"/>
<path d="M166.906 35.8039C166.831 35.6939 171.587 31.7639 177.528 27.0239C183.469 22.2839 188.348 18.5239 188.423 18.6339C188.498 18.7439 183.742 22.6739 177.801 27.4139C171.86 32.1539 166.981 35.9039 166.906 35.8039Z" fill="#E0E0E0"/>
<path d="M204.891 22.214C205.004 22.154 207.627 27.864 210.738 34.954C213.85 42.054 216.284 47.844 216.171 47.904C216.059 47.964 213.436 42.254 210.325 35.164C207.204 28.064 204.779 22.264 204.891 22.214Z" fill="#E0E0E0"/>
<path d="M486.753 8.84398L450.764 25.2953L461.189 51.1044L497.178 34.6531L486.753 8.84398Z" fill="#F5F5F5"/>
<path d="M486.976 9.09395C486.986 9.10395 486.92 9.27395 486.779 9.59395C486.619 9.94395 486.412 10.4039 486.159 10.9839C485.585 12.2239 484.786 13.954 483.799 16.074C481.759 20.394 478.968 26.304 475.884 32.854L475.819 32.9939L475.678 32.9539C475.574 32.924 475.452 32.884 475.339 32.854C468.628 30.874 462.546 29.074 458.1 27.764C455.928 27.104 454.152 26.564 452.892 26.184C452.309 25.994 451.839 25.8439 451.482 25.7339C451.162 25.6239 450.993 25.564 450.993 25.554C450.993 25.544 451.172 25.5839 451.501 25.6639C451.858 25.7639 452.337 25.884 452.93 26.044C454.208 26.404 455.985 26.904 458.175 27.514C462.621 28.794 468.712 30.554 475.433 32.4939C475.546 32.524 475.668 32.5639 475.772 32.5939L475.565 32.694C478.695 26.164 481.515 20.274 483.574 15.964C484.598 13.864 485.435 12.1539 486.036 10.9239C486.318 10.3539 486.544 9.90395 486.723 9.56395C486.873 9.24395 486.967 9.08395 486.976 9.09395Z" fill="#E0E0E0"/>
<path d="M461.408 51.3539C461.314 51.3239 462.593 46.5439 464.256 40.6939C465.93 34.8339 467.358 30.1139 467.452 30.1439C467.546 30.1739 466.268 34.9439 464.595 40.8039C462.931 46.6539 461.502 51.3839 461.408 51.3539Z" fill="#E0E0E0"/>
<path d="M479.287 24.3439C479.334 24.2539 483.423 26.5439 488.424 29.4539C493.425 32.3739 497.438 34.8039 497.391 34.8939C497.344 34.9839 493.255 32.6939 488.255 29.7839C483.263 26.8739 479.24 24.4339 479.287 24.3439Z" fill="#E0E0E0"/>
<path opacity="0.25" d="M510.434 265.559L512.764 264.652L510.434 265.559ZM377.5 174C377.5 175.92 378.38 177.452 379.728 178.569C380.976 179.603 382.625 180.294 384.371 180.818L385.809 176.029C384.297 175.575 383.401 175.12 382.919 174.719C382.536 174.403 382.5 174.212 382.5 174L377.5 174ZM394.29 182.735C398.489 183.341 403.276 183.945 408.62 184.821L409.429 179.886C404.027 179.002 399.09 178.376 395.005 177.786L394.29 182.735ZM418.042 186.585C422.469 187.532 427.11 188.709 431.876 190.225L433.392 185.461C428.445 183.887 423.645 182.67 419.088 181.695L418.042 186.585ZM440.834 193.448C445.077 195.163 449.374 197.183 453.664 199.579L456.102 195.213C451.615 192.708 447.129 190.599 442.707 188.812L440.834 193.448ZM461.742 204.565C465.516 207.131 469.26 210.028 472.931 213.307L476.261 209.577C472.421 206.148 468.504 203.116 464.553 200.43L461.742 204.565ZM479.722 219.914C482.849 223.224 485.903 226.854 488.855 230.837L492.872 227.86C489.802 223.718 486.621 219.936 483.357 216.481L479.722 219.914ZM494.238 238.686C496.684 242.542 499.042 246.683 501.291 251.132L505.753 248.876C503.433 244.286 500.995 240.004 498.459 236.007L494.238 238.686ZM505.351 259.778C506.293 261.942 507.212 264.17 508.105 266.465L512.764 264.652C511.848 262.297 510.904 260.007 509.935 257.781L505.351 259.778ZM508.105 266.465C509.044 268.879 509.931 271.263 510.769 273.619L515.48 271.942C514.625 269.54 513.721 267.111 512.764 264.652L508.105 266.465ZM513.957 283.185C515.497 288.146 516.819 292.979 517.948 297.697L522.811 296.534C521.656 291.708 520.305 286.768 518.733 281.703L513.957 283.185ZM520.062 307.545C521.033 312.656 521.783 317.635 522.345 322.496L527.312 321.922C526.737 316.943 525.969 311.845 524.974 306.612L520.062 307.545ZM523.256 332.507C523.601 337.657 523.748 342.684 523.74 347.608L528.74 347.616C528.748 342.586 528.598 337.446 528.245 332.173L523.256 332.507ZM523.517 357.68C523.301 362.81 522.943 367.841 522.494 372.802L527.474 373.253C527.929 368.228 528.293 363.115 528.512 357.89L523.517 357.68ZM521.464 382.869C520.891 387.964 520.259 392.995 519.627 398.004L524.588 398.63C525.219 393.623 525.856 388.561 526.433 383.428L521.464 382.869ZM518.367 408.127C517.753 413.211 517.182 418.291 516.722 423.389L521.702 423.839C522.155 418.81 522.719 413.786 523.331 408.727L518.367 408.127ZM515.969 433.632C515.689 438.729 515.56 443.869 515.65 449.079L520.649 448.993C520.562 443.921 520.687 438.904 520.961 433.907L515.969 433.632ZM516.123 459.408C516.505 464.45 517.121 469.571 518.026 474.795L522.952 473.941C522.076 468.884 521.479 463.922 521.109 459.031L516.123 459.408ZM520.128 484.932C521.301 489.786 522.74 494.734 524.483 499.796L529.211 498.168C527.519 493.255 526.124 488.458 524.988 483.757L520.128 484.932ZM528.137 509.467C530.018 514.043 532.152 518.714 534.567 523.492L539.03 521.237C536.672 516.571 534.591 512.018 532.762 507.566L528.137 509.467ZM539.426 532.573C540.677 534.791 541.988 537.031 543.363 539.297L547.637 536.703C546.29 534.482 545.005 532.287 543.78 530.116L539.426 532.573Z" fill="#175697"/>
<path opacity="0.25" d="M80.5 318L78.0076 318.195L80.5 318ZM235.5 160C235.5 159.821 235.582 160.03 234.964 160.698C234.382 161.328 233.421 162.101 232.007 163.018L234.729 167.212C236.29 166.199 237.645 165.164 238.635 164.093C239.589 163.061 240.5 161.677 240.5 160L235.5 160ZM223.917 167.443C220.23 169.258 215.86 171.257 210.948 173.48L213.009 178.036C217.918 175.814 222.356 173.784 226.125 171.929L223.917 167.443ZM202.29 177.396C198.161 179.271 193.788 181.279 189.247 183.43L191.388 187.948C195.894 185.814 200.241 183.818 204.357 181.949L202.29 177.396ZM180.613 187.606C176.419 189.68 172.129 191.874 167.796 194.197L170.159 198.604C174.437 196.311 178.677 194.142 182.829 192.088L180.613 187.606ZM159.384 198.849C155.251 201.209 151.109 203.689 147.003 206.299L149.685 210.519C153.717 207.956 157.791 205.516 161.863 203.191L159.384 198.849ZM138.965 211.614C135.003 214.343 131.102 217.202 127.306 220.198L130.404 224.123C134.107 221.2 137.92 218.405 141.801 215.731L138.965 211.614ZM119.865 226.377C116.21 229.574 112.689 232.916 109.346 236.411L112.958 239.867C116.191 236.489 119.604 233.248 123.157 230.14L119.865 226.377ZM102.869 243.652C99.7466 247.398 96.8351 251.307 94.1814 255.387L98.3726 258.113C100.911 254.211 103.704 250.46 106.71 246.853L102.869 243.652ZM89.2207 263.796C86.9413 268.09 84.9493 272.557 83.2908 277.205L87.9999 278.885C89.5731 274.476 91.4656 270.231 93.637 266.14L89.2207 263.796ZM80.4714 286.583C79.3266 291.241 78.5136 296.062 78.0707 301.052L83.0511 301.494C83.4714 296.76 84.2423 292.189 85.3269 287.776L80.4714 286.583ZM77.6848 310.823C77.706 313.244 77.8123 315.701 78.0076 318.195L82.9924 317.805C82.806 315.425 82.7048 313.083 82.6847 310.779L77.6848 310.823ZM78.0076 318.195C78.1985 320.632 78.339 323.023 78.4317 325.367L83.4278 325.17C83.3325 322.76 83.1881 320.305 82.9924 317.805L78.0076 318.195ZM78.5494 334.826C78.4739 339.725 78.1836 344.415 77.7059 348.913L82.6779 349.441C83.1718 344.792 83.471 339.951 83.5489 334.903L78.5494 334.826ZM76.4066 358.257C75.5724 363.085 74.5191 367.683 73.2864 372.076L78.1004 373.427C79.3784 368.873 80.4697 364.108 81.3336 359.108L76.4066 358.257ZM70.4319 381.051C68.8031 385.626 66.9858 389.973 65.0327 394.127L69.5575 396.254C71.5741 391.965 73.4548 387.468 75.1422 382.728L70.4319 381.051ZM60.7618 402.556C58.4461 406.823 56.0116 410.89 53.5265 414.802L57.747 417.483C60.2803 413.495 62.7755 409.329 65.1566 404.94L60.7618 402.556ZM48.3005 422.742C45.5398 426.814 42.7894 430.719 40.1152 434.556L44.2173 437.415C46.8732 433.604 49.6544 429.655 52.4389 425.548L48.3005 422.742ZM34.6507 442.527C31.8687 446.691 29.2711 450.815 27.0065 454.964L31.3955 457.36C33.5613 453.391 36.0696 449.404 38.8084 445.304L34.6507 442.527ZM22.7321 463.881C20.8331 468.547 19.4527 473.331 18.7941 478.335L23.7513 478.988C24.345 474.477 25.5959 470.108 27.3631 465.767L22.7321 463.881ZM18.4822 488.42C18.8058 493.105 19.7865 497.967 21.5296 503.075L26.2617 501.46C24.6484 496.732 23.7619 492.297 23.4703 488.076L18.4822 488.42ZM25.3357 512.192C27.3321 516.259 29.7914 520.486 32.7575 524.905L36.9091 522.118C34.0517 517.861 31.7091 513.828 29.824 509.989L25.3357 512.192ZM38.4537 532.813C39.9053 534.705 41.4454 536.632 43.0773 538.597L46.9237 535.403C45.3306 533.484 43.8307 531.607 42.4205 529.77L38.4537 532.813Z" fill="#175697"/>
<path opacity="0.25" d="M299.791 220L302.121 219.094L299.791 220ZM341 141C341 141.21 340.959 141.288 340.946 141.311C340.929 141.341 340.873 141.43 340.68 141.559C340.23 141.861 339.347 142.18 337.814 142.409L338.552 147.354C340.301 147.093 342.077 146.642 343.465 145.712C345.021 144.668 346 143.069 346 141L341 141ZM328.539 142.859C324.092 142.922 318.911 142.999 313.798 143.729L314.505 148.678C319.253 148.001 324.123 147.922 328.609 147.859L328.539 142.859ZM303.909 146.214C299.105 148.098 294.706 151.103 291.534 155.895L295.704 158.654C298.189 154.899 301.667 152.464 305.735 150.869L303.909 146.214ZM287.549 165.604C286.607 169.87 286.323 174.865 286.81 180.708L291.792 180.293C291.338 174.835 291.62 170.357 292.432 166.683L287.549 165.604ZM288.2 190.481C289.046 194.829 290.238 199.573 291.815 204.748L296.598 203.291C295.064 198.256 293.916 193.681 293.108 189.526L288.2 190.481ZM294.877 213.981C295.674 216.217 296.535 218.525 297.461 220.906L302.121 219.094C301.211 216.754 300.367 214.491 299.586 212.302L294.877 213.981ZM297.461 220.906C298.372 223.249 299.235 225.555 300.052 227.828L304.757 226.138C303.926 223.823 303.047 221.475 302.121 219.094L297.461 220.906ZM303.174 237.054C304.697 241.858 306.008 246.511 307.127 251.033L311.981 249.833C310.835 245.203 309.495 240.446 307.94 235.543L303.174 237.054ZM309.234 260.513C310.206 265.457 310.947 270.251 311.486 274.923L316.453 274.35C315.899 269.546 315.137 264.621 314.14 259.549L309.234 260.513ZM312.33 284.57C312.625 289.521 312.701 294.353 312.594 299.104L317.592 299.217C317.703 294.336 317.625 289.367 317.321 284.273L312.33 284.57ZM312.125 308.793C311.768 313.669 311.236 318.488 310.573 323.293L315.526 323.977C316.202 319.081 316.745 314.155 317.112 309.159L312.125 308.793ZM309.076 332.928C308.259 337.703 307.339 342.492 306.355 347.341L311.256 348.335C312.246 343.455 313.176 338.613 314.005 333.771L309.076 332.928ZM304.355 356.949C303.355 361.662 302.319 366.471 301.291 371.374L306.185 372.4C307.212 367.502 308.242 362.723 309.246 357.987L304.355 356.949ZM299.313 381.034C298.372 385.759 297.456 390.603 296.594 395.593L301.521 396.445C302.374 391.505 303.282 386.704 304.216 382.01L299.313 381.034ZM295.014 405.35C294.297 410.114 293.642 415.017 293.072 420.081L298.04 420.641C298.603 415.643 299.25 410.802 299.959 406.094L295.014 405.35ZM292.094 429.926C291.682 434.717 291.352 439.652 291.122 444.749L296.116 444.975C296.344 439.948 296.669 435.08 297.075 430.354L292.094 429.926ZM290.806 454.674C290.718 459.464 290.72 464.392 290.824 469.473L295.822 469.371C295.72 464.355 295.719 459.491 295.805 454.766L290.806 454.674ZM291.151 479.412C291.368 484.203 291.676 489.126 292.084 494.189L297.068 493.787C296.665 488.782 296.361 483.918 296.146 479.185L291.151 479.412ZM292.988 504.041C293.48 508.827 294.06 513.734 294.735 518.77L299.691 518.106C299.023 513.12 298.449 508.264 297.962 503.53L292.988 504.041ZM296.133 528.49C296.508 530.935 296.906 533.409 297.325 535.913L302.257 535.087C301.84 532.605 301.447 530.153 301.075 527.732L296.133 528.49Z" fill="#175697"/>
<path d="M534.39 269.904C530.555 267.344 526.165 265.734 521.653 265.244C519.576 265.014 517.301 265.084 515.628 266.424C515.271 266.704 514.932 267.134 515.008 267.594C515.064 267.934 515.337 268.184 515.6 268.394C520.779 272.594 528.619 273.124 534.39 269.904Z" fill="#175697"/>
<path d="M534.061 269.514C531.175 267.124 528.28 264.714 525.836 261.814C523.392 258.914 521.409 255.484 520.676 251.664C520.45 250.504 520.384 249.184 521.08 248.274C527.641 253.724 532.792 260.774 534.061 269.514Z" fill="#175697"/>
<path d="M534.325 269.844C533.826 266.024 533.657 262.104 534.475 258.354C535.302 254.604 537.22 251.014 540.228 248.874C541.365 251.694 540.876 254.934 540.077 257.884C538.846 262.434 536.91 266.764 534.372 270.664" fill="#175697"/>
<path d="M540.754 282.094C536.853 282.594 533.45 284.784 530.545 287.594C527.631 290.404 525.563 294.184 524.708 298.264C528.534 298.014 531.786 295.144 534.136 291.924C536.496 288.704 538.122 285.174 540.707 282.164" fill="#175697"/>
<path d="M542.145 284.054C539.005 275.824 540.143 265.894 545.05 258.704C547.277 267.124 546.46 276.624 542.145 284.054Z" fill="#175697"/>
<path d="M550.634 294.814C547.09 294.584 543.49 295.474 540.416 297.364C537.342 299.244 534.804 302.104 533.215 305.484C532.999 305.944 532.811 306.524 533.103 306.934C533.356 307.294 533.836 307.324 534.259 307.294C537.69 307.054 540.735 304.864 543.245 302.364C545.755 299.864 547.945 296.974 550.718 294.814" fill="#175697"/>
<path d="M550.37 294.234C548.546 288.014 548.434 281.244 550.05 274.964C550.69 272.484 551.761 269.874 553.914 268.704C554.102 268.604 554.309 268.514 554.506 268.594C554.685 268.664 554.797 268.864 554.882 269.054C555.653 270.764 555.869 272.694 555.794 274.584C555.719 276.474 555.343 278.334 554.976 280.184C554.299 283.604 553.933 287.284 552.175 290.234C551.752 290.934 551.385 291.694 551.056 292.444C550.718 293.194 550.718 293.454 550.417 294.054" fill="#175697"/>
<path d="M572.846 297.794C571.182 291.054 572.949 282.884 576.944 277.364C577.235 276.954 577.63 276.524 578.11 276.564C578.843 276.634 579.031 277.674 579.003 278.464C578.711 285.344 576.549 292.134 572.846 297.794Z" fill="#175697"/>
<path d="M574.876 299.264C582.575 301.394 591.401 299.324 597.802 294.304C594.005 292.254 589.54 291.674 585.395 292.684C581.24 293.694 577.452 295.674 574.876 299.264Z" fill="#175697"/>
<path d="M576.578 294.774C580.892 287.294 589.155 282.414 597.389 281.974C596.44 285.534 593.686 288.304 590.584 289.974C587.482 291.644 584.013 292.374 580.591 293.084C579.266 293.364 577.442 293.664 576.578 294.774Z" fill="#175697"/>
<path d="M573.278 273.004C574.444 268.754 575.619 264.454 575.938 260.044C576.258 255.624 575.666 251.014 573.513 247.224C569.49 255.514 569.076 265.194 573.156 273.454" fill="#175697"/>
<path d="M586.833 265.714C591.542 256.614 601.149 249.334 610.869 248.314C607.118 258.254 596.891 265.934 586.833 265.714Z" fill="#175697"/>
<path d="M583.862 267.504C590.884 268.644 596.872 273.414 603.433 276.304C604.834 276.924 606.347 277.414 607.86 277.204C609.364 276.994 610.85 275.914 611.188 274.344C611.47 273.034 610.906 271.644 610.022 270.684C609.139 269.724 607.973 269.124 606.808 268.614C599.664 265.444 591.993 265.374 584.464 267.294" fill="#175697"/>
<path d="M579.802 272.744C581.39 273.224 581.936 274.104 583.195 275.244C587.463 279.114 592.586 281.914 598.038 283.354C598.602 283.504 599.344 283.564 599.626 283.014C599.871 282.534 599.561 281.964 599.241 281.534C596.957 278.494 593.704 276.424 590.283 275.064C586.861 273.704 583.891 272.074 579.802 272.424" fill="#175697"/>
<path d="M575.214 241.094C580.92 246.764 588.967 249.674 596.74 248.884C597.098 248.844 597.483 248.784 597.718 248.514C598.263 247.884 597.605 246.914 596.975 246.394C590.659 241.144 582.988 238.964 575.214 241.094Z" fill="#175697"/>
<path d="M580.657 238.974C588.205 232.954 598.555 231.134 607.522 234.254C604.138 237.804 599.448 239.714 594.72 240.234C589.991 240.764 585.263 240.204 580.657 238.974Z" fill="#175697"/>
<path d="M578.495 224.434C577.874 217.714 578.279 212.404 577.837 205.654C577.799 205.114 577.696 204.464 577.216 204.274C576.558 204.004 576.004 204.864 575.788 205.584C573.908 211.804 574.932 218.944 578.485 224.284" fill="#175697"/>
<path d="M578.044 225.174C582.33 222.354 585.536 218.674 588.506 214.354C590.574 211.344 592.313 207.744 591.843 204.044C588.939 203.984 586.184 205.684 584.295 208.034C582.406 210.384 581.287 213.314 580.45 216.274C579.614 219.234 579.022 222.274 578.044 225.174Z" fill="#175697"/>
<path d="M588.318 222.144C597.718 218.444 606.488 212.944 614.074 205.984C611 204.664 607.475 205.454 604.402 206.774C597.37 209.794 591.636 214.884 588.187 222.064" fill="#175697"/>
<path d="M580.93 228.854C585.686 229.404 590.518 229.764 595.227 228.924C599.861 228.104 604.242 226.144 608.575 224.204C608.932 224.044 609.327 223.854 609.487 223.474C609.656 223.064 609.478 222.564 609.158 222.254C608.848 221.954 608.425 221.804 608.021 221.684C603.311 220.284 598.226 220.934 593.591 222.604C588.967 224.274 585.16 226.254 580.93 228.854Z" fill="#175697"/>
<path d="M553.783 241.324C550.54 234.354 550.746 226.234 553.548 219.054C555.522 222.254 555.757 226.324 555.399 230.124C555.042 233.934 553.952 237.844 553.877 241.674" fill="#175697"/>
<path d="M540.82 234.374C532.717 234.214 524.624 237.884 519.125 244.204C523.167 244.884 527.331 243.774 531.006 241.864C534.681 239.954 537.953 237.274 541.186 234.614" fill="#175697"/>
<path d="M532.115 231.274C528.158 230.934 524.342 230.414 520.535 231.654C516.728 232.894 513.259 235.714 511.708 239.614C515.412 240.054 519.172 239.074 522.565 237.434C525.958 235.794 529.042 233.524 532.115 231.274Z" fill="#175697"/>
<path d="M545.012 231.414C541.449 228.934 537.783 226.404 533.638 225.374C529.493 224.344 524.68 225.104 521.785 228.434C525.14 230.534 529.22 230.784 533.112 230.774C537.003 230.774 541.778 230.724 545.454 232.104" fill="#175697"/>
<path d="M545.031 231.614C538.94 225.244 536.628 213.814 539.081 205.114C543.866 212.854 546.018 222.404 545.031 231.614Z" fill="#175697"/>
<path d="M561.791 213.574C562.938 210.734 563.746 207.744 564.78 204.854C565.814 201.964 567.093 199.114 569.038 196.814C570.984 194.514 573.682 192.804 576.587 192.654C574.772 201.414 569.302 209.234 561.941 213.614" fill="#175697"/>
<path d="M558.755 217.334C556.856 214.554 554.657 210.774 552.081 208.694C549.505 206.614 546.14 205.354 543 206.154C546.196 212.244 552.241 216.534 558.755 217.334Z" fill="#175697"/>
<path d="M559.366 213.814C558.116 210.444 556.865 207.044 556.358 203.454C555.85 199.874 556.16 196.044 557.881 192.924C561.227 199.654 562.299 206.874 559.535 213.884" fill="#175697"/>
<path d="M561.819 192.924C563.718 186.254 569.452 181.344 575.647 179.094C576.427 178.814 577.254 178.574 578.072 178.704C578.89 178.834 579.689 179.434 579.858 180.294C580.084 181.424 579.2 182.444 578.373 183.194C573.551 187.584 567.882 190.914 561.819 192.924Z" fill="#175697"/>
<path d="M561.885 187.474C562.13 183.174 562.374 178.814 563.69 174.744C565.006 170.674 567.535 166.854 571.219 165.064C571.849 169.404 570.044 173.724 567.873 177.464C565.702 181.204 563.079 184.724 561.782 188.894" fill="#175697"/>
<path d="M561.791 190.434C560.221 185.574 560.061 179.404 557.326 175.164C555.418 172.204 552.353 170.184 550.708 167.054C549.618 169.984 549.947 173.354 551.094 176.264C552.241 179.174 554.13 181.674 556.151 183.974C558.172 186.264 559.902 187.994 561.791 190.434Z" fill="#175697"/>
<path d="M561.82 333.534C561.697 333.534 561.594 301.114 561.585 261.134C561.575 221.144 561.669 188.734 561.791 188.734C561.914 188.734 562.017 221.144 562.026 261.134C562.036 301.124 561.942 333.534 561.82 333.534Z" fill="#263238"/>
<path d="M588.449 236.434C588.459 236.464 588.045 236.624 587.303 236.894C586.475 237.194 585.423 237.574 584.154 238.024C581.493 238.984 577.846 240.384 573.879 242.114C569.95 243.904 566.256 245.364 564.141 247.304C563.088 248.264 562.487 249.304 562.186 250.054C561.885 250.814 561.829 251.284 561.791 251.274C561.772 251.274 561.782 251.154 561.8 250.934C561.838 250.714 561.885 250.394 562.026 249.994C562.28 249.194 562.872 248.084 563.934 247.064C564.996 246.034 566.472 245.114 568.155 244.274C569.847 243.434 571.717 242.564 573.701 241.694C577.677 239.964 581.352 238.614 584.05 237.724C585.394 237.274 586.494 236.954 587.246 236.734C588.017 236.504 588.44 236.404 588.449 236.434Z" fill="#263238"/>
<path d="M597.173 213.624C597.182 213.634 597.07 213.764 596.853 213.984C596.59 214.244 596.271 214.564 595.876 214.964C594.964 215.844 593.733 217.034 592.229 218.494C589.08 221.484 584.803 225.524 580.074 230.004C575.327 234.494 571.229 238.784 568.39 242.014C566.971 243.624 565.852 244.964 565.081 245.894C564.724 246.324 564.433 246.684 564.198 246.964C563.991 247.204 563.878 247.334 563.869 247.324C563.859 247.314 563.944 247.174 564.132 246.904C564.32 246.644 564.583 246.254 564.95 245.774C565.674 244.804 566.764 243.434 568.155 241.784C570.947 238.484 575.017 234.144 579.774 229.644C584.53 225.164 588.863 221.134 592.012 218.234C593.554 216.824 594.823 215.664 595.754 214.814C596.167 214.444 596.515 214.144 596.788 213.904C597.032 213.714 597.164 213.614 597.173 213.624Z" fill="#263238"/>
<path d="M574.96 234.564C574.838 234.504 575.825 232.074 576.812 228.994C577.809 225.914 578.279 223.324 578.401 223.344C578.514 223.354 578.232 226.034 577.226 229.144C576.728 230.704 576.183 232.064 575.75 233.044C575.318 234.014 575.007 234.594 574.96 234.564Z" fill="#263238"/>
<path d="M561.847 254.194C561.819 254.214 561.565 253.894 561.114 253.294C560.616 252.614 559.986 251.764 559.244 250.744C557.674 248.584 555.493 245.594 553.058 242.334C550.624 239.064 548.377 236.134 546.76 234.014C545.999 233.004 545.351 232.164 544.843 231.494C544.392 230.894 544.157 230.554 544.185 230.534C544.204 230.514 544.486 230.814 544.975 231.374C545.463 231.934 546.149 232.764 546.995 233.794C548.678 235.864 550.962 238.764 553.406 242.034C555.85 245.304 557.984 248.324 559.497 250.544C560.249 251.654 560.851 252.554 561.255 253.184C561.659 253.814 561.866 254.174 561.847 254.194Z" fill="#263238"/>
<path d="M556.01 246.214C555.935 246.294 554.384 244.334 553.566 241.344C552.965 239.234 552.937 237.314 553.012 236.434L553.209 236.454C553.124 236.834 553.059 237.024 553.021 237.024C552.984 237.014 552.984 236.814 553.012 236.424L553.209 236.444C553.284 237.314 553.407 239.174 553.989 241.224C554.77 244.104 556.123 246.134 556.01 246.214Z" fill="#263238"/>
<path d="M548.471 236.124C548.415 236.184 547.917 235.514 546.76 235.064C545.623 234.594 543.903 234.494 542.023 234.664C540.134 234.814 538.451 235.164 537.248 235.484C536.045 235.804 535.302 236.054 535.283 235.984C535.264 235.924 535.96 235.564 537.163 235.164C538.357 234.764 540.068 234.344 541.985 234.194C543.893 234.024 545.698 234.174 546.873 234.754C548.076 235.324 548.509 236.114 548.471 236.124Z" fill="#263238"/>
<path d="M546.685 233.684C546.648 233.754 545.689 233.264 544.072 232.674C542.455 232.084 540.143 231.464 537.548 231.244C534.945 231.034 532.576 231.284 530.893 231.604C529.211 231.924 528.186 232.264 528.167 232.184C528.158 232.154 528.402 232.044 528.863 231.874C529.314 231.694 529.991 231.484 530.837 231.284C532.529 230.874 534.935 230.574 537.586 230.784C540.237 231.004 542.577 231.694 544.185 232.374C544.993 232.714 545.632 233.024 546.055 233.274C546.469 233.504 546.695 233.654 546.685 233.684Z" fill="#263238"/>
<path d="M561.791 223.344C561.669 223.374 560.823 220.214 559.883 216.294C558.943 212.364 558.285 209.154 558.398 209.124C558.52 209.094 559.366 212.244 560.306 216.174C561.246 220.104 561.904 223.314 561.791 223.344Z" fill="#263238"/>
<path d="M561.913 223.344C561.782 223.394 561.236 221.284 559.798 219.124C558.398 216.924 556.621 215.814 556.687 215.704C556.706 215.654 557.204 215.844 557.89 216.364C558.576 216.874 559.432 217.734 560.165 218.854C561.641 221.104 562.017 223.334 561.913 223.344Z" fill="#263238"/>
<path d="M561.82 316.254C561.773 316.264 561.679 315.474 561.34 314.094C561.002 312.714 560.363 310.764 559.3 308.484C557.195 303.904 553.36 298.104 548.5 292.294C546.084 289.364 543.743 286.594 541.76 283.944C539.767 281.304 538.132 278.784 536.938 276.554C535.744 274.324 534.964 272.414 534.503 271.064C534.278 270.384 534.118 269.864 534.024 269.494C533.93 269.134 533.883 268.934 533.902 268.934C533.939 268.924 534.165 269.674 534.663 270.994C535.161 272.314 535.979 274.194 537.201 276.374C538.423 278.564 540.068 281.044 542.07 283.664C544.063 286.284 546.404 289.034 548.829 291.974C553.707 297.804 557.533 303.674 559.582 308.334C560.616 310.654 561.218 312.644 561.5 314.044C561.641 314.744 561.735 315.294 561.773 315.674C561.82 316.054 561.829 316.254 561.82 316.254Z" fill="#263238"/>
<path d="M585.883 287.344C585.902 287.374 585.441 287.624 584.624 288.094C583.815 288.574 582.668 289.324 581.352 290.394C580.036 291.464 578.57 292.874 577.057 294.564C575.553 296.254 573.992 298.224 572.413 300.334C569.245 304.564 566.275 308.304 564.508 311.294C563.605 312.774 562.947 314.024 562.524 314.904C562.092 315.774 561.866 316.274 561.829 316.254C561.819 316.244 561.857 316.114 561.941 315.874C562.035 315.634 562.167 315.274 562.364 314.824C562.75 313.914 563.37 312.634 564.244 311.124C565.965 308.064 568.907 304.274 572.075 300.044C573.663 297.934 575.233 295.964 576.775 294.264C578.316 292.574 579.82 291.174 581.174 290.134C582.527 289.084 583.712 288.374 584.548 287.934C584.962 287.714 585.31 287.574 585.535 287.474C585.752 287.374 585.874 287.324 585.883 287.344Z" fill="#263238"/>
<path d="M586.353 296.724C586.363 296.794 585.338 296.924 583.684 297.134C582.039 297.364 579.754 297.654 577.357 298.454C574.97 299.284 572.986 300.544 571.699 301.614C570.392 302.684 569.781 303.574 569.715 303.524C569.696 303.504 569.819 303.264 570.11 302.874C570.392 302.474 570.862 301.944 571.501 301.364C572.77 300.194 574.773 298.864 577.226 298.014C579.679 297.184 581.992 296.944 583.655 296.804C585.319 296.674 586.344 296.664 586.353 296.724Z" fill="#263238"/>
<path d="M570.505 302.494C570.364 302.414 571.567 300.454 572.498 297.834C573.372 295.184 573.579 292.864 573.729 292.884C573.786 292.894 573.786 293.474 573.682 294.404C573.579 295.334 573.372 296.624 572.902 297.984C572.432 299.344 571.821 300.484 571.36 301.274C570.89 302.074 570.552 302.534 570.505 302.494Z" fill="#263238"/>
<path d="M593.676 262.164C593.685 262.184 593.535 262.264 593.253 262.404C592.924 262.564 592.51 262.764 592.003 263.014C591.458 263.264 590.79 263.584 590.038 264.004C589.286 264.414 588.403 264.844 587.491 265.424C587.03 265.704 586.541 265.994 586.034 266.304C585.526 266.614 585.028 266.974 584.502 267.334C583.43 268.024 582.358 268.874 581.212 269.744C578.965 271.554 576.606 273.694 574.34 276.174C572.094 278.674 570.157 281.254 568.531 283.704C567.751 284.954 566.989 286.124 566.378 287.284C566.068 287.864 565.739 288.404 565.467 288.954C565.194 289.504 564.94 290.024 564.686 290.534C564.169 291.524 563.803 292.474 563.436 293.294C563.07 294.104 562.788 294.824 562.571 295.414C562.355 295.964 562.186 296.414 562.045 296.764C561.923 297.074 561.848 297.234 561.829 297.224C561.81 297.214 561.857 297.054 561.96 296.734C562.083 296.364 562.224 295.914 562.412 295.344C562.6 294.744 562.853 294.004 563.211 293.184C563.549 292.354 563.906 291.394 564.404 290.384C564.649 289.874 564.903 289.344 565.156 288.784C565.42 288.234 565.749 287.674 566.049 287.094C566.651 285.914 567.412 284.724 568.183 283.464C569.8 280.984 571.746 278.374 574.011 275.854C576.295 273.364 578.683 271.204 580.958 269.404C582.123 268.534 583.204 267.694 584.295 267.014C584.831 266.664 585.338 266.304 585.855 266.004C586.372 265.704 586.861 265.424 587.331 265.144C588.262 264.574 589.155 264.164 589.925 263.774C590.687 263.374 591.373 263.084 591.928 262.854C592.445 262.644 592.877 262.464 593.215 262.324C593.507 262.194 593.667 262.144 593.676 262.164Z" fill="#263238"/>
<path d="M574.632 275.734C574.594 275.724 574.801 274.944 575.675 274.074C576.53 273.214 578.081 272.414 579.896 272.354C581.7 272.304 583.27 272.844 584.332 273.274C585.404 273.724 586.034 274.084 586.015 274.144C585.987 274.214 585.319 273.954 584.238 273.594C583.157 273.244 581.625 272.774 579.914 272.824C578.213 272.884 576.737 273.574 575.882 274.324C575.008 275.074 574.697 275.784 574.632 275.734Z" fill="#263238"/>
<path d="M571.783 278.854C571.661 278.784 572.733 277.104 572.977 274.704C573.259 272.304 572.573 270.414 572.704 270.374C572.751 270.354 572.996 270.794 573.203 271.584C573.409 272.364 573.55 273.514 573.409 274.764C573.268 276.014 572.892 277.094 572.516 277.804C572.15 278.524 571.83 278.894 571.783 278.854Z" fill="#263238"/>
<path d="M540.773 320.904C541.431 333.294 544.937 345.894 550.333 358.634H573.805C578.956 346.024 582.218 333.444 582.8 320.904H540.773Z" fill="#455A64"/>
<path d="M579.003 340.944C579.003 341.074 571.276 341.174 561.744 341.174C552.213 341.174 544.486 341.074 544.486 340.944C544.486 340.814 552.213 340.714 561.744 340.714C571.266 340.714 579.003 340.824 579.003 340.944Z" fill="#FAFAFA"/>
<path d="M578.476 345.434C578.476 345.564 571.229 345.664 562.299 345.664C553.36 345.664 546.122 345.564 546.122 345.434C546.122 345.304 553.369 345.204 562.299 345.204C571.229 345.204 578.476 345.304 578.476 345.434Z" fill="#FAFAFA"/>
<path d="M474.531 352.724H140.474C132.907 352.724 126.778 346.204 126.778 338.154V113.014C126.778 104.964 132.907 98.444 140.474 98.444H474.531C482.098 98.444 488.227 104.964 488.227 113.014V338.154C488.227 346.204 482.098 352.724 474.531 352.724Z" fill="#455A64"/>
<path d="M487.521 358.554H129.381C120.141 358.554 112.649 350.584 112.649 340.754V336.304H504.244V340.754C504.253 350.584 496.762 358.554 487.521 358.554Z" fill="#455A64"/>
<path d="M477.51 108.544H136.479V323.274H477.51V108.544Z" fill="#263238"/>
<path d="M271.867 333.914L276.727 342.144H345.111L349.623 333.914H271.867Z" fill="#263238"/>
<path d="M468.11 322.594H146.583C144.882 322.594 143.509 321.124 143.509 319.324V119.094C143.509 117.284 144.891 115.824 146.583 115.824H468.11C469.811 115.824 471.184 117.294 471.184 119.094V319.324C471.193 321.134 469.811 322.594 468.11 322.594Z" fill="#EBEBEB"/>
<path d="M470.837 322.894H143.153L143.51 131.274H470.837V322.894Z" fill="#FAFAFA"/>
<circle cx="46" cy="538" r="12" transform="rotate(90 46 538)" fill="#C3D3E5"/>
<circle cx="299" cy="538" r="12" transform="rotate(90 299 538)" fill="#C3D3E5"/>
<circle cx="545" cy="538" r="12" transform="rotate(90 545 538)" fill="#C3D3E5"/>
<path d="M170.385 123.804C170.385 125.344 169.21 126.584 167.772 126.584C166.324 126.584 165.159 125.334 165.159 123.804C165.159 122.264 166.334 121.024 167.772 121.024C169.21 121.024 170.385 122.264 170.385 123.804Z" fill="#263238"/>
<path d="M154.517 123.804C154.517 125.344 153.342 126.584 151.904 126.584C150.457 126.584 149.291 125.334 149.291 123.804C149.291 122.264 150.466 121.024 151.904 121.024C153.352 121.024 154.517 122.264 154.517 123.804Z" fill="#263238"/>
<path d="M162.132 123.804C162.132 125.344 160.957 126.584 159.518 126.584C158.071 126.584 156.905 125.334 156.905 123.804C156.905 122.264 158.08 121.024 159.518 121.024C160.966 121.024 162.132 122.264 162.132 123.804Z" fill="#263238"/>
<path d="M485.115 333.914C485.115 334.054 404.896 334.164 305.951 334.164C206.979 334.164 126.769 334.054 126.769 333.914C126.769 333.774 206.979 333.664 305.951 333.664C404.896 333.664 485.115 333.784 485.115 333.914Z" fill="#263238"/>
<path d="M627.882 357.694C627.882 357.834 487.315 357.954 313.96 357.954C140.539 357.954 0 357.834 0 357.694C0 357.554 140.539 357.434 313.96 357.434C487.315 357.434 627.882 357.554 627.882 357.694Z" fill="#263238"/>
<path d="M210.517 205V186.54H213.429V200.892L223.283 186.54H226.013V205H223.101V190.882L213.351 205H210.517ZM229.929 205V191.402H232.789V196.81H239.107V191.402H241.967V205H239.107V199.28H232.789V205H229.929ZM248.641 205V193.924H244.143V191.402H256.025V193.924H251.501V205H248.641ZM264.325 205.26C263.268 205.26 262.306 205.078 261.439 204.714C260.59 204.333 259.853 203.821 259.229 203.18C258.605 202.521 258.12 201.776 257.773 200.944C257.444 200.095 257.279 199.193 257.279 198.24C257.279 196.957 257.574 195.787 258.163 194.73C258.753 193.655 259.576 192.797 260.633 192.156C261.691 191.497 262.93 191.168 264.351 191.168C265.773 191.168 266.995 191.497 268.017 192.156C269.057 192.797 269.863 193.647 270.435 194.704C271.007 195.761 271.293 196.897 271.293 198.11C271.293 198.318 271.285 198.517 271.267 198.708C271.25 198.881 271.233 199.029 271.215 199.15H260.321C260.373 199.947 260.59 200.649 260.971 201.256C261.37 201.845 261.873 202.313 262.479 202.66C263.086 202.989 263.736 203.154 264.429 203.154C265.192 203.154 265.911 202.963 266.587 202.582C267.281 202.201 267.749 201.698 267.991 201.074L270.435 201.776C270.141 202.435 269.69 203.033 269.083 203.57C268.494 204.09 267.792 204.506 266.977 204.818C266.163 205.113 265.279 205.26 264.325 205.26ZM260.243 197.252H268.459C268.407 196.472 268.182 195.787 267.783 195.198C267.402 194.591 266.908 194.123 266.301 193.794C265.712 193.447 265.053 193.274 264.325 193.274C263.615 193.274 262.956 193.447 262.349 193.794C261.76 194.123 261.275 194.591 260.893 195.198C260.512 195.787 260.295 196.472 260.243 197.252ZM273.626 205V191.402H282.31V193.924H276.486V205H273.626ZM292.19 205.26C291.098 205.26 290.136 205 289.304 204.48C288.472 203.96 287.813 203.284 287.328 202.452V210.538H284.468V191.402H286.99V193.846C287.51 193.031 288.186 192.381 289.018 191.896C289.85 191.411 290.777 191.168 291.8 191.168C292.736 191.168 293.594 191.359 294.374 191.74C295.154 192.104 295.83 192.615 296.402 193.274C296.974 193.933 297.416 194.687 297.728 195.536C298.057 196.368 298.222 197.252 298.222 198.188C298.222 199.488 297.962 200.675 297.442 201.75C296.939 202.825 296.229 203.683 295.31 204.324C294.409 204.948 293.369 205.26 292.19 205.26ZM291.254 202.816C291.861 202.816 292.407 202.686 292.892 202.426C293.395 202.166 293.819 201.819 294.166 201.386C294.53 200.953 294.807 200.459 294.998 199.904C295.189 199.349 295.284 198.777 295.284 198.188C295.284 197.564 295.18 196.975 294.972 196.42C294.764 195.865 294.461 195.38 294.062 194.964C293.681 194.548 293.23 194.219 292.71 193.976C292.207 193.733 291.653 193.612 291.046 193.612C290.682 193.612 290.301 193.681 289.902 193.82C289.503 193.959 289.131 194.149 288.784 194.392C288.437 194.635 288.134 194.921 287.874 195.25C287.614 195.579 287.432 195.926 287.328 196.29V199.852C287.571 200.407 287.891 200.909 288.29 201.36C288.689 201.793 289.148 202.149 289.668 202.426C290.188 202.686 290.717 202.816 291.254 202.816ZM299.806 201.022C299.806 200.155 300.049 199.401 300.534 198.76C301.037 198.101 301.721 197.599 302.588 197.252C303.455 196.888 304.46 196.706 305.604 196.706C306.211 196.706 306.826 196.749 307.45 196.836C308.091 196.923 308.655 197.061 309.14 197.252V196.394C309.14 195.441 308.854 194.695 308.282 194.158C307.71 193.621 306.887 193.352 305.812 193.352C305.049 193.352 304.33 193.491 303.654 193.768C302.978 194.028 302.259 194.401 301.496 194.886L300.534 192.962C301.435 192.355 302.337 191.905 303.238 191.61C304.157 191.315 305.119 191.168 306.124 191.168C307.944 191.168 309.374 191.653 310.414 192.624C311.471 193.577 312 194.938 312 196.706V201.776C312 202.105 312.052 202.339 312.156 202.478C312.277 202.617 312.477 202.695 312.754 202.712V205C312.494 205.052 312.26 205.087 312.052 205.104C311.844 205.121 311.671 205.13 311.532 205.13C310.925 205.13 310.466 204.983 310.154 204.688C309.842 204.393 309.66 204.047 309.608 203.648L309.53 202.868C308.941 203.631 308.187 204.22 307.268 204.636C306.349 205.052 305.422 205.26 304.486 205.26C303.585 205.26 302.779 205.078 302.068 204.714C301.357 204.333 300.803 203.821 300.404 203.18C300.005 202.539 299.806 201.819 299.806 201.022ZM308.464 201.854C308.672 201.629 308.837 201.403 308.958 201.178C309.079 200.953 309.14 200.753 309.14 200.58V199.02C308.655 198.829 308.143 198.691 307.606 198.604C307.069 198.5 306.54 198.448 306.02 198.448C304.98 198.448 304.131 198.656 303.472 199.072C302.831 199.488 302.51 200.06 302.51 200.788C302.51 201.187 302.614 201.568 302.822 201.932C303.047 202.296 303.359 202.591 303.758 202.816C304.174 203.041 304.685 203.154 305.292 203.154C305.916 203.154 306.514 203.033 307.086 202.79C307.658 202.547 308.117 202.235 308.464 201.854ZM326.13 208.25V205H315.47V191.402H318.33V202.504H323.894V191.402H326.754V202.504H328.652V208.25H326.13ZM331.06 205V191.428H333.92V201.178L340.81 191.402H343.41V205H340.55V195.458L333.738 205H331.06ZM345.969 205L349.609 199.618C348.76 199.41 348.084 198.977 347.581 198.318C347.079 197.659 346.827 196.775 346.827 195.666C346.827 194.817 347.018 194.071 347.399 193.43C347.798 192.789 348.353 192.286 349.063 191.922C349.774 191.558 350.597 191.376 351.533 191.376H357.513V205H354.653V200.086H352.417L349.089 205H345.969ZM351.819 198.006H354.653V193.586H352.001C351.273 193.586 350.693 193.785 350.259 194.184C349.843 194.583 349.635 195.103 349.635 195.744C349.635 196.385 349.817 196.923 350.181 197.356C350.563 197.789 351.109 198.006 351.819 198.006ZM372.275 186.54H375.031L382.207 205H379.139L377.189 199.982H370.065L368.141 205H365.047L372.275 186.54ZM376.617 197.824L373.653 189.738L370.585 197.824H376.617ZM384.49 205V186.54H392.238C393.07 186.54 393.833 186.713 394.526 187.06C395.219 187.407 395.826 187.866 396.346 188.438C396.866 189.01 397.265 189.651 397.542 190.362C397.819 191.073 397.958 191.801 397.958 192.546C397.958 193.569 397.724 194.548 397.256 195.484C396.805 196.403 396.155 197.148 395.306 197.72C394.474 198.292 393.503 198.578 392.394 198.578H387.402V205H384.49ZM387.402 196.004H392.212C392.767 196.004 393.252 195.857 393.668 195.562C394.084 195.25 394.405 194.834 394.63 194.314C394.873 193.794 394.994 193.205 394.994 192.546C394.994 191.87 394.855 191.272 394.578 190.752C394.301 190.232 393.937 189.833 393.486 189.556C393.053 189.261 392.576 189.114 392.056 189.114H387.402V196.004ZM400.689 205V186.54H403.601V205H400.689Z" fill="#175697"/>
<path d="M191.197 231.64C191.197 230.513 191.387 229.413 191.769 228.338C192.167 227.246 192.739 226.258 193.485 225.374C194.247 224.473 195.175 223.762 196.267 223.242C197.359 222.705 198.598 222.436 199.985 222.436C201.631 222.436 203.044 222.817 204.223 223.58C205.401 224.325 206.277 225.287 206.849 226.466L205.003 227.662C204.639 226.882 204.171 226.267 203.599 225.816C203.044 225.348 202.437 225.019 201.779 224.828C201.137 224.637 200.505 224.542 199.881 224.542C198.858 224.542 197.948 224.75 197.151 225.166C196.371 225.582 195.712 226.137 195.175 226.83C194.637 227.523 194.23 228.303 193.953 229.17C193.693 230.019 193.563 230.877 193.563 231.744C193.563 232.697 193.719 233.616 194.031 234.5C194.36 235.384 194.811 236.164 195.383 236.84C195.955 237.516 196.631 238.053 197.411 238.452C198.191 238.851 199.04 239.05 199.959 239.05C200.6 239.05 201.259 238.937 201.935 238.712C202.611 238.487 203.243 238.14 203.833 237.672C204.422 237.187 204.89 236.563 205.237 235.8L207.187 236.866C206.805 237.785 206.216 238.565 205.419 239.206C204.621 239.847 203.729 240.333 202.741 240.662C201.77 240.991 200.808 241.156 199.855 241.156C198.589 241.156 197.428 240.887 196.371 240.35C195.313 239.795 194.395 239.067 193.615 238.166C192.852 237.247 192.254 236.225 191.821 235.098C191.405 233.954 191.197 232.801 191.197 231.64ZM210.115 241V222.54H218.019C218.834 222.54 219.579 222.713 220.255 223.06C220.931 223.389 221.521 223.84 222.023 224.412C222.526 224.967 222.916 225.599 223.193 226.31C223.471 227.003 223.609 227.714 223.609 228.442C223.609 229.291 223.445 230.097 223.115 230.86C222.803 231.623 222.353 232.273 221.763 232.81C221.191 233.347 220.515 233.72 219.735 233.928L224.207 241H221.555L217.343 234.37H212.455V241H210.115ZM212.455 232.29H218.045C218.687 232.29 219.241 232.117 219.709 231.77C220.195 231.406 220.567 230.929 220.827 230.34C221.105 229.751 221.243 229.118 221.243 228.442C221.243 227.749 221.087 227.116 220.775 226.544C220.463 225.955 220.056 225.487 219.553 225.14C219.051 224.793 218.496 224.62 217.889 224.62H212.455V232.29ZM243.167 241V226.908L237.083 237.75H235.653L229.543 226.908V241H227.203V222.54H229.673L236.355 234.526L243.063 222.54H245.507V241H243.167ZM261.307 222.54H263.283L270.823 241H268.327L266.143 235.592H258.395L256.237 241H253.741L261.307 222.54ZM265.623 233.772L262.295 225.244L258.863 233.772H265.623ZM293.385 241H291.097V233.408C291.097 231.987 290.863 230.938 290.395 230.262C289.944 229.586 289.268 229.248 288.367 229.248C287.448 229.248 286.616 229.586 285.871 230.262C285.126 230.921 284.597 231.779 284.285 232.836V241H281.997V233.408C281.997 231.969 281.772 230.921 281.321 230.262C280.87 229.586 280.194 229.248 279.293 229.248C278.392 229.248 277.56 229.577 276.797 230.236C276.052 230.877 275.523 231.735 275.211 232.81V241H272.923V227.428H275.003V230.34C275.558 229.335 276.277 228.563 277.161 228.026C278.045 227.471 279.042 227.194 280.151 227.194C281.278 227.194 282.179 227.506 282.855 228.13C283.531 228.737 283.947 229.525 284.103 230.496C284.71 229.421 285.446 228.607 286.313 228.052C287.18 227.48 288.168 227.194 289.277 227.194C290.057 227.194 290.707 227.341 291.227 227.636C291.764 227.913 292.189 228.312 292.501 228.832C292.813 229.335 293.038 229.933 293.177 230.626C293.316 231.319 293.385 232.073 293.385 232.888V241ZM302.871 241.26C301.848 241.26 300.921 241.078 300.089 240.714C299.257 240.333 298.537 239.821 297.931 239.18C297.324 238.521 296.856 237.767 296.527 236.918C296.197 236.069 296.033 235.176 296.033 234.24C296.033 233.287 296.197 232.385 296.527 231.536C296.856 230.687 297.324 229.941 297.931 229.3C298.537 228.641 299.257 228.13 300.089 227.766C300.938 227.385 301.874 227.194 302.897 227.194C303.902 227.194 304.821 227.385 305.653 227.766C306.485 228.13 307.204 228.641 307.811 229.3C308.435 229.941 308.911 230.687 309.241 231.536C309.57 232.385 309.735 233.287 309.735 234.24C309.735 235.176 309.57 236.069 309.241 236.918C308.911 237.767 308.443 238.521 307.837 239.18C307.23 239.821 306.502 240.333 305.653 240.714C304.821 241.078 303.893 241.26 302.871 241.26ZM298.373 234.266C298.373 235.202 298.572 236.051 298.971 236.814C299.387 237.577 299.933 238.183 300.609 238.634C301.285 239.067 302.039 239.284 302.871 239.284C303.703 239.284 304.457 239.059 305.133 238.608C305.826 238.157 306.372 237.551 306.771 236.788C307.187 236.008 307.395 235.15 307.395 234.214C307.395 233.278 307.187 232.429 306.771 231.666C306.372 230.903 305.826 230.297 305.133 229.846C304.457 229.395 303.703 229.17 302.871 229.17C302.039 229.17 301.285 229.404 300.609 229.872C299.933 230.323 299.387 230.929 298.971 231.692C298.572 232.455 298.373 233.313 298.373 234.266ZM312.077 243.106L312.597 240.792H311.817V238.088H313.975V240.792L313.195 243.106H312.077ZM338.594 236.242C338.594 237.195 338.351 238.027 337.866 238.738C337.381 239.449 336.722 240.003 335.89 240.402C335.075 240.801 334.174 241 333.186 241H324.424V222.54H333.602C334.469 222.54 335.214 222.774 335.838 223.242C336.479 223.693 336.965 224.282 337.294 225.01C337.641 225.721 337.814 226.466 337.814 227.246C337.814 228.147 337.58 228.997 337.112 229.794C336.661 230.574 336.011 231.155 335.162 231.536C336.219 231.848 337.051 232.429 337.658 233.278C338.282 234.11 338.594 235.098 338.594 236.242ZM336.228 235.826C336.228 235.254 336.098 234.725 335.838 234.24C335.595 233.755 335.257 233.365 334.824 233.07C334.408 232.775 333.923 232.628 333.368 232.628H326.764V238.972H333.186C333.758 238.972 334.269 238.825 334.72 238.53C335.188 238.235 335.552 237.854 335.812 237.386C336.089 236.901 336.228 236.381 336.228 235.826ZM326.764 224.568V230.73H332.64C333.195 230.73 333.68 230.591 334.096 230.314C334.529 230.037 334.867 229.664 335.11 229.196C335.37 228.728 335.5 228.217 335.5 227.662C335.5 227.073 335.379 226.553 335.136 226.102C334.911 225.634 334.59 225.261 334.174 224.984C333.775 224.707 333.316 224.568 332.796 224.568H326.764ZM341.503 241V227.428H343.791V241H341.503ZM341.503 224.88V222.02H343.791V224.88H341.503ZM354.515 240.324C354.325 240.411 354.065 240.523 353.735 240.662C353.406 240.801 353.025 240.922 352.591 241.026C352.158 241.13 351.699 241.182 351.213 241.182C350.659 241.182 350.147 241.087 349.679 240.896C349.211 240.688 348.839 240.376 348.561 239.96C348.284 239.527 348.145 238.989 348.145 238.348V229.222H346.299V227.428H348.145V222.904H350.433V227.428H353.475V229.222H350.433V237.646C350.468 238.131 350.633 238.495 350.927 238.738C351.222 238.963 351.569 239.076 351.967 239.076C352.418 239.076 352.834 238.998 353.215 238.842C353.597 238.686 353.848 238.573 353.969 238.504L354.515 240.324ZM363.812 229.43C362.668 229.447 361.654 229.742 360.77 230.314C359.903 230.869 359.288 231.64 358.924 232.628V241H356.636V227.428H358.768V230.574C359.236 229.638 359.851 228.884 360.614 228.312C361.394 227.723 362.209 227.393 363.058 227.324C363.231 227.324 363.379 227.324 363.5 227.324C363.621 227.324 363.725 227.333 363.812 227.35V229.43ZM366.081 241V227.428H368.369V241H366.081ZM366.081 224.88V222.02H368.369V224.88H366.081ZM373.088 227.428L376.676 232.42L376.884 232.836L377.118 232.42L380.68 227.428H383.228L378.21 234.24L383.254 241H380.706L377.118 236.034L376.884 235.644L376.676 236.034L373.088 241H370.54L375.584 234.24L370.566 227.428H373.088ZM385.482 243.106L386.002 240.792H385.222V238.088H387.38V240.792L386.6 243.106H385.482ZM406.512 238.92V241H397.334V238.92H400.87V224.75C400.731 224.958 400.506 225.192 400.194 225.452C399.882 225.695 399.518 225.937 399.102 226.18C398.703 226.405 398.296 226.596 397.88 226.752C397.464 226.908 397.083 226.986 396.736 226.986V224.854C397.204 224.854 397.672 224.733 398.14 224.49C398.625 224.247 399.067 223.961 399.466 223.632C399.882 223.303 400.211 223.008 400.454 222.748C400.714 222.488 400.853 222.349 400.87 222.332H403.21V238.92H406.512ZM408.109 231.64C408.109 230.513 408.299 229.413 408.681 228.338C409.079 227.246 409.651 226.258 410.397 225.374C411.159 224.473 412.087 223.762 413.179 223.242C414.271 222.705 415.51 222.436 416.897 222.436C418.543 222.436 419.956 222.817 421.135 223.58C422.313 224.325 423.189 225.287 423.761 226.466L421.915 227.662C421.551 226.882 421.083 226.267 420.511 225.816C419.956 225.348 419.349 225.019 418.691 224.828C418.049 224.637 417.417 224.542 416.793 224.542C415.77 224.542 414.86 224.75 414.063 225.166C413.283 225.582 412.624 226.137 412.087 226.83C411.549 227.523 411.142 228.303 410.865 229.17C410.605 230.019 410.475 230.877 410.475 231.744C410.475 232.697 410.631 233.616 410.943 234.5C411.272 235.384 411.723 236.164 412.295 236.84C412.867 237.516 413.543 238.053 414.323 238.452C415.103 238.851 415.952 239.05 416.871 239.05C417.512 239.05 418.171 238.937 418.847 238.712C419.523 238.487 420.155 238.14 420.745 237.672C421.334 237.187 421.802 236.563 422.149 235.8L424.099 236.866C423.717 237.785 423.128 238.565 422.331 239.206C421.533 239.847 420.641 240.333 419.653 240.662C418.682 240.991 417.72 241.156 416.767 241.156C415.501 241.156 414.34 240.887 413.283 240.35C412.225 239.795 411.307 239.067 410.527 238.166C409.764 237.247 409.166 236.225 408.733 235.098C408.317 233.954 408.109 232.801 408.109 231.64Z" fill="#175697"/>
</svg>
