<svg width="149" height="149" viewBox="0 0 149 149" fill="none" xmlns="http://www.w3.org/2000/svg">
<path d="M87.3729 6.15619L86.4612 11.0381C100.429 13.6943 113.137 20.8684 122.627 31.4551L126.328 28.1424C116.105 16.7408 102.417 9.01544 87.3729 6.15619Z" fill="#175697"/>
<path d="M61.6276 6.15619C46.745 8.98626 33.186 16.5787 22.9954 27.7885L26.6719 31.1255C36.1337 20.7181 48.7221 13.668 62.5396 11.0381L61.6276 6.15619Z" fill="#175697"/>
<path d="M13.6048 52.9782L8.92436 51.3218C3.64728 66.3233 3.64728 82.6767 8.92436 97.6782L13.6048 96.0218C8.70925 82.0915 8.70925 66.9084 13.6048 52.9782Z" fill="#175697"/>
<path d="M29.065 120.374L25.5679 123.902C35.414 133.692 47.9787 140.292 61.6271 142.844L62.5388 137.962C49.8685 135.593 38.2043 129.464 29.065 120.374Z" fill="#175697"/>
<path d="M120.376 119.936C111.752 128.664 100.814 134.747 88.8494 137.467L89.9504 142.311C102.836 139.381 114.615 132.831 123.902 123.431L120.376 119.936Z" fill="#175697"/>
<path d="M141.674 56.4741L136.877 57.7595C138.334 63.2204 139.07 68.8482 139.067 74.5003C139.076 81.8308 137.834 89.1091 135.395 96.0221L140.075 97.6785C144.738 84.4163 145.295 70.057 141.674 56.4741Z" fill="#175697"/>
<path d="M139.068 34.7667C139.068 34.7667 139.067 34.7667 139.067 34.7667H129.133C127.762 34.7664 126.65 35.8776 126.65 37.2488C126.65 37.2491 126.65 37.2497 126.65 37.25V47.1833C126.65 48.5544 127.761 49.6664 129.132 49.6667C129.133 49.6667 129.133 49.6667 129.133 49.6667H139.067C140.438 49.667 141.55 48.5557 141.55 47.1846C141.55 47.1843 141.55 47.1836 141.55 47.1833V37.25C141.55 35.8789 140.439 34.767 139.068 34.7667ZM136.583 44.7H131.617V39.7333H136.583V44.7Z" fill="#175697"/>
<path d="M79.468 6.50156e-08C79.4676 6.50156e-08 79.467 6.50156e-08 79.4667 6.50156e-08H69.5334C68.1623 -0.000310352 67.0504 1.11098 67.05 2.48209C67.05 2.4824 67.05 2.48302 67.05 2.48333V12.4167C67.0497 13.7878 68.161 14.8997 69.5321 14.9C69.5325 14.9 69.5331 14.9 69.5334 14.9H79.4667C80.8378 14.9003 81.9497 13.789 81.95 12.4179C81.95 12.4176 81.95 12.417 81.95 12.4167V2.48333C81.9504 1.11222 80.8391 0.000310482 79.468 6.50156e-08ZM76.9834 9.93333H72.0167V4.96667H76.9834V9.93333Z" fill="#175697"/>
<path d="M22.3513 32.2833C22.3509 32.2833 22.3503 32.2833 22.35 32.2833H12.4167C11.0456 32.283 9.93366 33.3942 9.93335 34.7654C9.93335 34.7657 9.93335 34.7663 9.93335 34.7666V44.6999C9.93304 46.071 11.0443 47.183 12.4154 47.1833C12.4158 47.1833 12.4164 47.1833 12.4167 47.1833H22.35C23.7211 47.1836 24.833 46.0723 24.8333 44.7012C24.8333 44.7009 24.8333 44.7002 24.8333 44.6999V34.7666C24.8337 33.3955 23.7224 32.2836 22.3513 32.2833ZM19.8667 42.2166H14.9V37.2499H19.8667V42.2166Z" fill="#175697"/>
<path d="M22.3513 101.817C22.3509 101.817 22.3503 101.817 22.35 101.817H12.4167C11.0456 101.816 9.93366 102.928 9.93335 104.299C9.93335 104.299 9.93335 104.3 9.93335 104.3V114.233C9.93304 115.604 11.0443 116.716 12.4154 116.717C12.4158 116.717 12.4164 116.717 12.4167 116.717H22.35C23.7211 116.717 24.833 115.606 24.8333 114.235C24.8333 114.234 24.8333 114.234 24.8333 114.233V104.3C24.8337 102.929 23.7224 101.817 22.3513 101.817ZM19.8667 111.75H14.9V106.783H19.8667V111.75Z" fill="#175697"/>
<path d="M79.468 134.1C79.4676 134.1 79.467 134.1 79.4667 134.1H69.5334C68.1623 134.1 67.0504 135.211 67.05 136.582C67.05 136.582 67.05 136.583 67.05 136.583V146.517C67.0497 147.888 68.161 149 69.5321 149C69.5325 149 69.5331 149 69.5334 149H79.4667C80.8378 149 81.9497 147.889 81.95 146.518C81.95 146.518 81.95 146.517 81.95 146.517V136.583C81.9504 135.212 80.8391 134.1 79.468 134.1ZM76.9834 144.033H72.0167V139.067H76.9834V144.033Z" fill="#175697"/>
<path d="M136.584 101.817C136.584 101.817 136.583 101.817 136.583 101.817H126.65C125.279 101.816 124.167 102.928 124.167 104.299C124.167 104.299 124.167 104.3 124.167 104.3V114.233C124.166 115.604 125.277 116.716 126.649 116.717C126.649 116.717 126.65 116.717 126.65 116.717H136.583C137.954 116.717 139.066 115.606 139.067 114.235C139.067 114.234 139.067 114.234 139.067 114.233V104.3C139.067 102.929 137.956 101.817 136.584 101.817ZM134.1 111.75H129.133V106.783H134.1V111.75Z" fill="#175697"/>
<path d="M74.5002 24.8334C47.0699 24.8334 24.8335 47.0698 24.8335 74.5C24.8335 101.93 47.0699 124.167 74.5002 124.167C101.917 124.136 124.136 101.917 124.167 74.5C124.167 47.0698 101.93 24.8334 74.5002 24.8334ZM59.9832 32.2675C57.0827 35.629 54.7335 39.4289 53.0227 43.526C49.8047 43.1638 46.68 42.7245 43.6867 42.1993C48.3407 37.7545 53.8997 34.3669 59.9832 32.2675ZM39.7096 46.4986C43.3589 47.2268 47.1953 47.8427 51.2003 48.3235C48.7235 55.9837 47.3927 63.9676 47.2505 72.0167H29.9262C30.4263 62.6943 33.8492 53.7661 39.7096 46.4986ZM29.9259 76.9834H47.2502C47.3924 85.0325 48.7235 93.0167 51.2 100.677C47.195 101.157 43.3585 101.773 39.7093 102.501C33.8492 95.234 30.4263 86.3058 29.9259 76.9834ZM43.6867 106.801C46.68 106.276 49.8047 105.837 53.0227 105.474C54.7335 109.571 57.0827 113.371 59.9832 116.733C53.8997 114.633 48.3407 111.246 43.6867 106.801ZM72.0168 118.89C66.7013 117.651 61.8963 112.495 58.3371 104.96C62.7717 104.597 67.35 104.384 72.0168 104.329V118.89ZM72.0168 99.3619C66.6609 99.4246 61.4068 99.6838 56.3476 100.142C53.7777 92.6833 52.3836 84.8704 52.2154 76.9834H72.0168V99.3619ZM72.0168 72.0167H52.2154C52.3836 64.1296 53.7777 56.3168 56.3476 48.8584C61.4068 49.3166 66.6609 49.5754 72.0168 49.6382V72.0167ZM72.0168 44.6718C67.35 44.6159 62.7717 44.4036 58.3371 44.0401C61.8963 36.505 66.7013 31.3493 72.0168 30.1101V44.6718ZM119.074 72.0167H101.75C101.608 63.9676 100.277 55.9834 97.8003 48.3235C101.805 47.8427 105.642 47.2268 109.291 46.4986C115.151 53.7661 118.574 62.6943 119.074 72.0167ZM105.314 42.199C102.32 42.7242 99.1957 43.1635 95.9776 43.5257C94.2669 39.4289 91.9176 35.6287 89.0171 32.2672C95.1007 34.3669 100.66 37.7545 105.314 42.199ZM76.9835 30.1101C82.2991 31.349 87.104 36.5047 90.6632 44.0401C86.2286 44.4036 81.6503 44.6159 76.9835 44.6718V30.1101ZM76.9835 49.6382C82.3394 49.5754 87.5935 49.3162 92.6527 48.8584C95.2226 56.3168 96.6167 64.1296 96.785 72.0167H76.9835V49.6382ZM76.9835 76.9834H96.785C96.6167 84.8704 95.2226 92.6833 92.6527 100.142C87.5935 99.6835 82.3394 99.4246 76.9835 99.3619V76.9834ZM76.9835 118.89V104.328C81.6503 104.384 86.2286 104.596 90.6632 104.96C87.104 112.495 82.2991 117.651 76.9835 118.89ZM89.0171 116.733C91.9176 113.371 94.2669 109.571 95.9776 105.474C99.1957 105.836 102.32 106.276 105.314 106.801C100.66 111.246 95.1007 114.633 89.0171 116.733ZM109.291 102.501C105.641 101.773 101.805 101.157 97.8 100.677C100.277 93.0164 101.608 85.0325 101.75 76.9834H119.074C118.574 86.3058 115.151 95.234 109.291 102.501Z" fill="#175697"/>
</svg>
