<svg width="160" height="46" viewBox="0 0 160 46" fill="none" xmlns="http://www.w3.org/2000/svg">
<path d="M136.065 31.103L134.37 26.8971L143.15 18.1204C143.501 17.7553 143.486 17.1712 143.121 16.8207C142.77 16.4848 142.215 16.4848 141.865 16.8207L133.084 25.5974L117.321 19.3033L125.327 15.9737C125.794 15.7692 125.999 15.2289 125.809 14.7616C125.619 14.2943 125.108 14.0752 124.64 14.265C124.626 14.265 124.626 14.2797 124.611 14.2797L114.545 18.4709C114.194 18.6023 113.961 18.9528 113.975 19.3179C113.975 19.6976 114.194 20.0335 114.545 20.1649L132.602 27.3791L134.355 31.7747C134.487 32.1252 134.838 32.3589 135.203 32.3589C135.32 32.3589 135.437 32.3297 135.553 32.3005C136.021 32.1106 136.255 31.5849 136.065 31.103Z" fill="white"/>
<path d="M159.717 0.274801C159.454 0.0119361 159.06 -0.0756854 158.724 0.0703504L128.512 12.644C128.044 12.8339 127.81 13.3596 128 13.8269C128.146 14.1774 128.482 14.4111 128.862 14.4111C128.979 14.4111 129.111 14.3965 129.227 14.3527L135.363 11.7824L147.109 11.5926L144.626 14.0752C144.275 14.4257 144.261 14.9952 144.597 15.3457C144.597 15.3603 144.611 15.3603 144.626 15.3749C144.976 15.7254 145.561 15.7254 145.926 15.3749L148.41 12.8923L148.22 24.6336L140.696 42.669L137.642 35.0459C137.394 34.5932 136.839 34.418 136.386 34.6662C136.006 34.8707 135.816 35.3088 135.933 35.7177L139.819 45.4145C139.965 45.765 140.301 45.984 140.667 45.984C141.046 45.984 141.382 45.765 141.514 45.4145L149.958 25.1885C149.958 25.1593 149.973 25.1447 149.987 25.1155L155.32 12.3082C155.51 11.8408 155.291 11.3005 154.838 11.1107C154.356 10.9208 153.83 11.1545 153.625 11.6218L150.119 20.0334L150.28 11.0376L156.445 4.87493L155.247 7.72263C155.057 8.18994 155.291 8.73027 155.758 8.92012C156.226 9.10997 156.766 8.89091 156.956 8.4236C156.956 8.4236 156.956 8.4236 156.956 8.40899L159.936 1.26784C160.068 0.917358 159.995 0.523061 159.717 0.274801ZM139.965 9.86935L155.13 3.546L148.965 9.70871L139.965 9.86935Z" fill="white"/>
<path d="M125.21 34.7684C124.845 34.4034 124.26 34.4034 123.895 34.7684L118.373 40.2886C118.008 40.6537 118.008 41.2378 118.373 41.6029C118.738 41.968 119.322 41.968 119.688 41.6029L125.21 36.0682C125.531 35.7177 125.502 35.1481 125.21 34.7684Z" fill="white"/>
<path d="M115.626 43.0487L114.253 44.436C113.902 44.7865 113.888 45.356 114.224 45.7065C114.224 45.7211 114.238 45.7211 114.253 45.7357C114.414 45.911 114.662 46.0132 114.896 45.9986C115.144 46.0132 115.378 45.911 115.538 45.7357L116.926 44.363C117.321 44.0417 117.379 43.4576 117.058 43.0487C116.736 42.6398 116.152 42.596 115.743 42.9172C115.699 42.9465 115.655 42.9903 115.626 43.0487Z" fill="white"/>
<path d="M122.449 28.3283C122.084 27.9632 121.499 27.9632 121.134 28.3283L116.064 33.3957C115.714 33.7608 115.714 34.3303 116.064 34.6954C116.24 34.8707 116.474 34.9729 116.722 34.9583C116.97 34.9729 117.204 34.8707 117.365 34.6954L122.449 29.628C122.756 29.2775 122.697 28.7226 122.449 28.3283Z" fill="white"/>
<path d="M130.352 37.5286L125.283 42.596C124.918 42.9465 124.918 43.5307 125.268 43.8958C125.619 44.2609 126.203 44.2609 126.568 43.9104L131.638 38.8429C132.003 38.4778 132.003 37.8937 131.638 37.5286C131.287 37.1781 130.718 37.1635 130.367 37.4994C130.367 37.514 130.367 37.514 130.352 37.5286Z" fill="white"/>
<path d="M10.8022 21.8986C10.8022 21.7039 10.869 21.53 11.0026 21.377C11.1362 21.224 11.3004 21.1475 11.4952 21.1475C11.6204 21.1475 11.7734 21.1837 11.9543 21.256C12.1352 21.3283 12.3397 21.4048 12.5679 21.4855C12.7961 21.5662 13.0577 21.6427 13.3526 21.715C13.6448 21.7873 13.9788 21.8235 14.3544 21.8235C15.2115 21.8235 15.8543 21.619 16.2829 21.2101C16.7086 20.7984 16.9215 20.2157 16.9215 19.4619C16.9215 19.1559 16.8881 18.893 16.8213 18.6733C16.7518 18.4535 16.6655 18.2671 16.5625 18.1142C16.4596 17.9612 16.3413 17.8402 16.2077 17.7512C16.0714 17.6594 15.9476 17.5829 15.8362 17.5217C15.5301 17.3659 15.1934 17.2268 14.8261 17.1044C14.4616 16.982 14.0928 16.8499 13.72 16.708C13.3499 16.569 12.9909 16.4132 12.643 16.2407C12.2952 16.0683 11.9849 15.8457 11.7122 15.5731C11.4367 15.2978 11.2183 14.964 11.0569 14.5717C10.8983 14.1823 10.8189 13.7067 10.8189 13.1448C10.8189 11.982 11.164 11.0683 11.8541 10.4035C12.547 9.73866 13.4959 9.40625 14.7009 9.40625C14.9458 9.40625 15.2519 9.42433 15.6192 9.46049C15.9893 9.49943 16.351 9.56619 16.7045 9.66077C17.0551 9.75813 17.3556 9.89025 17.6061 10.0572C17.8565 10.2213 17.9817 10.4382 17.9817 10.7081C17.9817 10.9 17.915 11.0697 17.7814 11.2171C17.6478 11.3645 17.4586 11.4382 17.2137 11.4382C17.0579 11.4382 16.909 11.409 16.7671 11.3506C16.6279 11.2894 16.4665 11.2282 16.2829 11.167C16.0964 11.103 15.8849 11.0419 15.6484 10.9834C15.4119 10.925 15.1336 10.8958 14.8136 10.8958C14.5075 10.8958 14.2111 10.932 13.9245 11.0043C13.6351 11.0738 13.3777 11.1893 13.1523 11.3506C12.9297 11.5092 12.7502 11.7261 12.6138 12.0015C12.4802 12.2769 12.4135 12.626 12.4135 13.0488C12.4135 13.3687 12.4524 13.6385 12.5303 13.8583C12.6083 14.0752 12.7001 14.2574 12.8058 14.4048C12.9144 14.5523 13.0326 14.6691 13.1606 14.7553C13.2886 14.8443 13.4111 14.9167 13.528 14.9723C13.8341 15.1281 14.1708 15.2685 14.5381 15.3937C14.9026 15.5189 15.27 15.6482 15.6401 15.7818C16.0074 15.9153 16.3677 16.0683 16.7212 16.2407C17.0746 16.4132 17.3862 16.6385 17.6562 16.9167C17.9233 17.1948 18.1362 17.5245 18.2948 17.9055C18.4562 18.2866 18.5369 18.7581 18.5369 19.32C18.5369 19.957 18.4312 20.5244 18.2197 21.0224C18.011 21.5175 17.7174 21.9347 17.3389 22.2741C16.9605 22.6107 16.5152 22.868 16.0032 23.046C15.4912 23.224 14.9346 23.313 14.3336 23.313C14.0275 23.313 13.6699 23.288 13.2608 23.2379C12.8517 23.1879 12.4649 23.1044 12.1004 22.9876C11.7331 22.8735 11.4256 22.7275 11.1779 22.5495C10.9275 22.3714 10.8022 22.1545 10.8022 21.8986ZM20.6657 22.5703V10.2115C20.6657 9.98066 20.7422 9.78872 20.8953 9.63573C21.0483 9.48274 21.2403 9.40625 21.4713 9.40625C21.8386 9.40625 22.1127 9.57176 22.2936 9.90277L26.0462 17.9222L29.7862 9.88191C29.967 9.5648 30.2356 9.40625 30.5918 9.40625C30.8227 9.40625 31.0148 9.48553 31.1678 9.64408C31.3209 9.80263 31.3974 9.99178 31.3974 10.2115V22.5703C31.3974 22.779 31.325 22.9542 31.1803 23.0961C31.0328 23.2407 30.8561 23.313 30.6502 23.313C30.4304 23.313 30.2439 23.2393 30.0909 23.0919C29.9378 22.9445 29.8613 22.7706 29.8613 22.5703V13.2199L26.7766 19.8249C26.6208 20.1308 26.3703 20.2838 26.0253 20.2838C25.6941 20.2838 25.4506 20.1308 25.2948 19.8249L22.2018 13.2199V22.5703C22.2018 22.779 22.1225 22.9542 21.9639 23.0961C21.8025 23.2407 21.6132 23.313 21.3962 23.313C21.1903 23.313 21.0163 23.2393 20.8744 23.0919C20.7353 22.9445 20.6657 22.7706 20.6657 22.5703ZM33.5471 21.8986C33.5471 21.7039 33.6138 21.53 33.7474 21.377C33.881 21.224 34.0452 21.1475 34.24 21.1475C34.3652 21.1475 34.5182 21.1837 34.6991 21.256C34.88 21.3283 35.0845 21.4048 35.3127 21.4855C35.5409 21.5662 35.8025 21.6427 36.0974 21.715C36.3896 21.7873 36.7236 21.8235 37.0992 21.8235C37.9563 21.8235 38.5991 21.619 39.0277 21.2101C39.4534 20.7984 39.6663 20.2157 39.6663 19.4619C39.6663 19.1559 39.6329 18.893 39.5661 18.6733C39.4966 18.4535 39.4103 18.2671 39.3073 18.1142C39.2044 17.9612 39.0861 17.8402 38.9525 17.7512C38.8162 17.6594 38.6924 17.5829 38.5811 17.5217C38.2749 17.3659 37.9382 17.2268 37.5709 17.1044C37.2064 16.982 36.8377 16.8499 36.4648 16.708C36.0947 16.569 35.7357 16.4132 35.3878 16.2407C35.04 16.0683 34.7297 15.8457 34.457 15.5731C34.1815 15.2978 33.9631 14.964 33.8017 14.5717C33.6431 14.1823 33.5638 13.7067 33.5638 13.1448C33.5638 11.982 33.9088 11.0683 34.5989 10.4035C35.2918 9.73866 36.2408 9.40625 37.4457 9.40625C37.6906 9.40625 37.9967 9.42433 38.364 9.46049C38.7341 9.49943 39.0959 9.56619 39.4493 9.66077C39.8027 9.75813 40.1032 9.89025 40.3509 10.0572C40.6013 10.2213 40.7266 10.4382 40.7266 10.7081C40.7266 10.9 40.6598 11.0697 40.5262 11.2171C40.3926 11.3645 40.2034 11.4382 39.9585 11.4382C39.8027 11.4382 39.6538 11.409 39.5119 11.3506C39.3727 11.2894 39.2113 11.2282 39.0277 11.167C38.8412 11.103 38.6297 11.0419 38.3932 10.9834C38.1567 10.925 37.8784 10.8958 37.5584 10.8958C37.2523 10.8958 36.9559 10.932 36.6693 11.0043C36.3799 11.0738 36.1225 11.1893 35.8971 11.3506C35.6745 11.5092 35.495 11.7261 35.3586 12.0015C35.2251 12.2769 35.1583 12.626 35.1583 13.0488C35.1583 13.3687 35.1972 13.6385 35.2751 13.8583C35.3531 14.0752 35.4449 14.2574 35.5506 14.4048C35.6592 14.5523 35.7774 14.6691 35.9054 14.7553C36.0334 14.8443 36.1559 14.9167 36.2728 14.9723C36.5789 15.1281 36.9156 15.2685 37.2829 15.3937C37.6474 15.5189 38.0148 15.6482 38.3849 15.7818C38.7522 15.9153 39.1126 16.0683 39.466 16.2407C39.8194 16.4132 40.131 16.6385 40.401 16.9167C40.6681 17.1948 40.881 17.5245 41.0396 17.9055C41.201 18.2866 41.2817 18.7581 41.2817 19.32C41.2817 19.957 41.176 20.5244 40.9645 21.0224C40.7558 21.5175 40.4622 21.9347 40.0837 22.2741C39.7053 22.6107 39.26 22.868 38.748 23.046C38.236 23.224 37.6794 23.313 37.0784 23.313C36.7723 23.313 36.4147 23.288 36.0056 23.2379C35.5965 23.1879 35.2097 23.1044 34.8452 22.9876C34.4779 22.8735 34.1704 22.7275 33.9227 22.5495C33.6723 22.3714 33.5471 22.1545 33.5471 21.8986ZM49.2501 22.5078V10.5119C49.2501 10.2477 49.3378 10.0279 49.5131 9.8527C49.6884 9.68024 49.9068 9.59401 50.1684 9.59401H52.9901C53.7832 9.59401 54.4552 9.71223 55.0062 9.94867C55.5572 10.1851 56.0025 10.5022 56.3419 10.9C56.6814 11.2978 56.9291 11.7553 57.0849 12.2727C57.238 12.7901 57.3145 13.3311 57.3145 13.8958C57.3145 14.569 57.2143 15.1698 57.014 15.6983C56.8136 16.2268 56.527 16.6719 56.1541 17.0335C55.784 17.3951 55.3304 17.6705 54.7934 17.8596C54.2591 18.046 53.658 18.1392 52.9901 18.1392H50.7778V22.5078C50.7778 22.7247 50.7041 22.9139 50.5566 23.0752C50.4091 23.2338 50.2269 23.313 50.0098 23.313C49.9096 23.313 49.8122 23.2908 49.7176 23.2463C49.6258 23.2018 49.5451 23.1447 49.4755 23.0752C49.4059 23.0029 49.3517 22.918 49.3127 22.8207C49.271 22.7233 49.2501 22.619 49.2501 22.5078ZM50.7778 11.0919V16.6413H52.9901C53.9168 16.6413 54.6125 16.4174 55.0772 15.9695C55.5419 15.5217 55.7743 14.8235 55.7743 13.8749C55.7743 13.5245 55.7353 13.1837 55.6574 12.8527C55.5795 12.5217 55.4376 12.2254 55.2316 11.964C55.0257 11.6997 54.7433 11.4883 54.3843 11.3298C54.0225 11.1712 53.5578 11.0919 52.9901 11.0919H50.7778ZM59.0551 14.3172C59.0551 14.1086 59.1261 13.9445 59.268 13.8249C59.4072 13.7025 59.5644 13.6413 59.7397 13.6413C59.8955 13.6413 60.0374 13.69 60.1655 13.7873C60.2962 13.8847 60.4103 14.0112 60.5077 14.167C60.9224 13.9111 61.3718 13.7094 61.856 13.562C62.3402 13.4146 62.7701 13.3409 63.1458 13.3409C63.527 13.3409 63.7872 13.4118 63.9263 13.5537C64.0683 13.6927 64.1392 13.8624 64.1392 14.0627C64.1392 14.3075 64.0655 14.4994 63.918 14.6385C63.7705 14.7804 63.5938 14.8443 63.3879 14.8304C63.3183 14.8304 63.2501 14.8304 63.1833 14.8304C62.8633 14.8249 62.5475 14.8471 62.2358 14.8972C61.8601 14.9584 61.4316 15.167 60.9502 15.5231C60.9641 15.6232 60.9738 15.7164 60.9794 15.8026C60.985 15.8861 60.9878 15.9653 60.9878 16.0404V22.5328C60.9878 22.7525 60.9168 22.9306 60.7749 23.0669C60.6357 23.2059 60.4604 23.2755 60.2489 23.2755C60.0291 23.2755 59.8482 23.2045 59.7063 23.0627C59.5672 22.9236 59.4976 22.747 59.4976 22.5328V16.0404C59.4976 15.7206 59.4739 15.4633 59.4266 15.2685C59.3793 15.071 59.3 14.8819 59.1887 14.7011C59.1497 14.6371 59.1177 14.5787 59.0927 14.5258C59.0677 14.473 59.0551 14.4035 59.0551 14.3172ZM65.2704 19.8624V16.658C65.2704 16.1823 65.3483 15.7373 65.5042 15.3228C65.6572 14.9083 65.884 14.5481 66.1845 14.2421C66.4879 13.9361 66.8635 13.6914 67.3116 13.5078C67.7596 13.327 68.2772 13.2366 68.8643 13.2366C69.4515 13.2366 69.9705 13.327 70.4213 13.5078C70.8693 13.6914 71.2436 13.9361 71.5441 14.2421C71.8447 14.5481 72.0714 14.9083 72.2245 15.3228C72.3775 15.7373 72.4541 16.1823 72.4541 16.658V19.8624C72.4541 20.3492 72.3775 20.8012 72.2245 21.2185C72.0714 21.6329 71.8447 21.9931 71.5441 22.2991C71.2436 22.6051 70.8693 22.8443 70.4213 23.0168C69.9705 23.1892 69.4515 23.2755 68.8643 23.2755C68.2772 23.2755 67.7596 23.1892 67.3116 23.0168C66.8635 22.8443 66.4879 22.6051 66.1845 22.2991C65.884 21.9931 65.6572 21.6329 65.5042 21.2185C65.3483 20.8012 65.2704 20.3492 65.2704 19.8624ZM66.7731 16.6413V19.8624C66.7731 20.4994 66.9484 20.9987 67.299 21.3603C67.6469 21.7192 68.1686 21.8986 68.8643 21.8986C69.5572 21.8986 70.079 21.7192 70.4296 21.3603C70.7803 20.9987 70.9556 20.4994 70.9556 19.8624V16.6413C70.9556 16.0154 70.7803 15.5231 70.4296 15.1642C70.079 14.8054 69.5572 14.626 68.8643 14.626C68.1686 14.626 67.6469 14.804 67.299 15.1601C66.9484 15.5161 66.7731 16.0099 66.7731 16.6413ZM74.3116 14.2797C74.3116 14.085 74.3797 13.9236 74.5161 13.7957C74.6552 13.6677 74.8236 13.6037 75.0212 13.6037C75.1909 13.6037 75.337 13.6524 75.4594 13.7498C75.5819 13.8471 75.6932 13.9695 75.7934 14.1169C76.2164 13.8499 76.6644 13.6399 77.1374 13.4869C77.6077 13.3339 78.0933 13.2574 78.5942 13.2574C79.1313 13.2574 79.5765 13.3409 79.9299 13.5078C80.2833 13.6775 80.5825 13.9222 80.8274 14.2421C81.2392 13.9361 81.6719 13.6955 82.1255 13.5203C82.5791 13.345 83.0744 13.2574 83.6115 13.2574C84.6495 13.2574 85.4426 13.5592 85.9908 14.1628C86.5417 14.7637 86.8172 15.5481 86.8172 16.5161V22.5328C86.8172 22.7414 86.756 22.9139 86.6336 23.0502C86.5111 23.1865 86.3219 23.2546 86.0659 23.2546C85.8099 23.2546 85.6207 23.1851 85.4982 23.046C85.3786 22.9041 85.3187 22.7331 85.3187 22.5328V16.5662C85.3187 16.0265 85.174 15.5717 84.8846 15.2018C84.598 14.829 84.1611 14.6427 83.5739 14.6427C83.1621 14.6427 82.7628 14.7386 82.376 14.9306C81.992 15.1197 81.6845 15.3617 81.4535 15.6566C81.5175 15.9487 81.5523 16.2352 81.5578 16.5161V22.5328C81.5578 22.7414 81.4966 22.9139 81.3742 23.0502C81.2517 23.1865 81.0625 23.2546 80.8065 23.2546C80.5505 23.2546 80.3613 23.1851 80.2388 23.046C80.1192 22.9041 80.0593 22.7331 80.0593 22.5328V16.9667C80.0593 16.6246 80.0398 16.3117 80.0009 16.0279C79.9647 15.7414 79.8882 15.4966 79.7713 15.2936C79.6572 15.0905 79.4958 14.932 79.2871 14.8179C79.0812 14.7011 78.8071 14.6427 78.4648 14.6427C78.0391 14.6427 77.6272 14.7192 77.2293 14.8722C76.8341 15.0252 76.5016 15.2046 76.2317 15.4104C76.2706 15.6413 76.2901 15.8388 76.2901 16.0029V22.5328C76.2901 22.7414 76.2303 22.9139 76.1106 23.0502C75.991 23.1865 75.8031 23.2546 75.5471 23.2546C75.2911 23.2546 75.1019 23.1851 74.9794 23.046C74.8598 22.9041 74.7999 22.7331 74.7999 22.5328V16.0029C74.7999 15.7331 74.7902 15.5286 74.7707 15.3895C74.7512 15.2477 74.7248 15.1322 74.6914 15.0432C74.6552 14.9514 74.6163 14.8833 74.5745 14.8388C74.53 14.7971 74.4883 14.7386 74.4493 14.6635C74.4243 14.6246 74.395 14.5759 74.3617 14.5175C74.3283 14.4591 74.3116 14.3798 74.3116 14.2797ZM89.113 19.8624V16.658C89.113 16.1823 89.1895 15.7373 89.3426 15.3228C89.4956 14.9083 89.7238 14.5481 90.0271 14.2421C90.3305 13.9361 90.7061 13.6914 91.1542 13.5078C91.5994 13.327 92.117 13.2366 92.7069 13.2366C93.2941 13.2366 93.8117 13.327 94.2597 13.5078C94.7105 13.6914 95.0862 13.9361 95.3867 14.2421C95.6873 14.5481 95.9141 14.9083 96.0671 15.3228C96.2202 15.7373 96.2967 16.1823 96.2967 16.658V19.8624C96.2967 20.3492 96.2202 20.8012 96.0671 21.2185C95.9141 21.6329 95.6873 21.9931 95.3867 22.2991C95.0862 22.6051 94.7105 22.8443 94.2597 23.0168C93.8117 23.1892 93.2941 23.2755 92.7069 23.2755C92.117 23.2755 91.5994 23.1892 91.1542 23.0168C90.7061 22.8443 90.3305 22.6051 90.0271 22.2991C89.7238 21.9931 89.4956 21.6329 89.3426 21.2185C89.1895 20.8012 89.113 20.3492 89.113 19.8624ZM90.6157 16.6413V19.8624C90.6157 20.4994 90.7896 20.9987 91.1375 21.3603C91.4881 21.7192 92.0112 21.8986 92.7069 21.8986C93.3998 21.8986 93.9216 21.7192 94.2722 21.3603C94.6201 20.9987 94.794 20.4994 94.794 19.8624V16.6413C94.794 16.0154 94.6201 15.5231 94.2722 15.1642C93.9216 14.8054 93.3998 14.626 92.7069 14.626C92.0112 14.626 91.4881 14.804 91.1375 15.1601C90.7896 15.5161 90.6157 16.0099 90.6157 16.6413Z" fill="white"/>
<path d="M2.10376 33.8151C0.926656 33.8151 0.100179 34.7413 0.0626119 36.1308C0.0626119 36.2059 0.112701 36.2559 0.187836 36.2559H0.688731C0.763865 36.2559 0.813954 36.2184 0.813954 36.1308C0.851522 35.0918 1.35242 34.516 2.10376 34.516C2.91771 34.516 3.39356 35.0543 3.39356 35.968V37.9082H1.00179C0.926656 37.9082 0.876566 37.9583 0.876566 38.0334V38.484C0.876566 38.5591 0.926656 38.6092 1.00179 38.6092H3.39356V40.6746C3.39356 41.5883 2.91771 42.1266 2.10376 42.1266C1.27728 42.1266 0.776387 41.5007 0.751343 40.4493C0.751343 40.3616 0.701253 40.3241 0.626119 40.3241H0.125224C0.0500895 40.3241 0 40.3616 0 40.4367C0.0375671 41.8762 0.876566 42.8276 2.10376 42.8276C3.33095 42.8276 4.14491 41.9639 4.14491 40.6746V35.968C4.14491 34.6788 3.33095 33.8151 2.10376 33.8151ZM8.44008 45.2059H8.90341C8.97854 45.2059 9.02863 45.1558 9.02863 45.0807V42.7274H10.0555C11.1574 42.7274 11.8963 41.8888 11.8963 40.7622V38.3839C11.8963 37.2573 11.1574 36.4187 10.0555 36.4187H9.02863V34.0654C9.02863 33.9903 8.97854 33.9402 8.90341 33.9402H8.44008C8.36495 33.9402 8.31486 33.9903 8.31486 34.0654V36.4187H7.28802C6.18605 36.4187 5.44723 37.2573 5.44723 38.3839V40.7622C5.44723 41.8888 6.18605 42.7274 7.28802 42.7274H8.31486V45.0807C8.31486 45.1558 8.36495 45.2059 8.44008 45.2059ZM7.28802 42.039C6.58677 42.039 6.16101 41.5132 6.16101 40.7622V38.3839C6.16101 37.6329 6.58677 37.1071 7.28802 37.1071H8.31486V42.039H7.28802ZM9.02863 42.039V37.1071H10.0555C10.7567 37.1071 11.1825 37.6329 11.1825 38.3839V40.7622C11.1825 41.5132 10.7567 42.039 10.0555 42.039H9.02863ZM16.1413 45.2059H16.6047C16.6798 45.2059 16.7299 45.1558 16.7299 45.0807V42.7274H17.7567C18.8587 42.7274 19.5975 41.8888 19.5975 40.7622V38.3839C19.5975 37.2573 18.8587 36.4187 17.7567 36.4187H16.7299V34.0654C16.7299 33.9903 16.6798 33.9402 16.6047 33.9402H16.1413C16.0662 33.9402 16.0161 33.9903 16.0161 34.0654V36.4187H14.9893C13.8873 36.4187 13.1485 37.2573 13.1485 38.3839V40.7622C13.1485 41.8888 13.8873 42.7274 14.9893 42.7274H16.0161V45.0807C16.0161 45.1558 16.0662 45.2059 16.1413 45.2059ZM14.9893 42.039C14.288 42.039 13.8623 41.5132 13.8623 40.7622V38.3839C13.8623 37.6329 14.288 37.1071 14.9893 37.1071H16.0161V42.039H14.9893ZM16.7299 42.039V37.1071H17.7567C18.458 37.1071 18.8837 37.6329 18.8837 38.3839V40.7622C18.8837 41.5132 18.458 42.039 17.7567 42.039H16.7299ZM22.7657 42.815C23.8676 42.815 24.6315 42.0265 24.6691 40.8498C24.6691 40.7747 24.619 40.7246 24.5439 40.7246H24.0805C24.0054 40.7246 23.9553 40.7622 23.9553 40.8498C23.9303 41.6134 23.4669 42.1266 22.7657 42.1266C22.0143 42.1266 21.5635 41.6009 21.5635 40.8498V40.0863H22.7657C23.9177 40.0863 24.6816 39.2977 24.6816 38.2587C24.6816 37.1572 23.9177 36.3311 22.7657 36.3311C21.5886 36.3311 20.8498 37.1572 20.8498 38.3088V40.8498C20.8498 42.0265 21.6136 42.815 22.7657 42.815ZM21.5635 39.3978V38.3088C21.5635 37.5327 21.9893 37.0195 22.7657 37.0195C23.517 37.0195 23.9678 37.5327 23.9678 38.2587C23.9678 38.9221 23.517 39.3978 22.7657 39.3978H21.5635ZM28.4008 39.1975L29.8408 36.5939C29.8909 36.5063 29.8283 36.4437 29.7406 36.4437H29.2147C29.1521 36.4437 29.102 36.4687 29.0644 36.5313L27.6619 39.1099H26.8104V36.5689C26.8104 36.4938 26.7603 36.4437 26.6852 36.4437H26.2219C26.1467 36.4437 26.0966 36.4938 26.0966 36.5689V42.5772C26.0966 42.6523 26.1467 42.7024 26.2219 42.7024H26.6852C26.7603 42.7024 26.8104 42.6523 26.8104 42.5772V39.7984H27.7872C28.526 39.7984 29.0394 40.2615 29.0394 40.9875V42.5772C29.0394 42.6523 29.0895 42.7024 29.1646 42.7024H29.6279C29.7031 42.7024 29.7532 42.6523 29.7532 42.5772V40.9875C29.7532 40.0988 29.2022 39.4228 28.4008 39.1975ZM32.1074 42.7024H32.5707C32.6458 42.7024 32.6959 42.6523 32.6959 42.5772V37.1322H34.0734C34.1485 37.1322 34.1986 37.0821 34.1986 37.007V36.5689C34.1986 36.4938 34.1485 36.4437 34.0734 36.4437H30.6172C30.5421 36.4437 30.492 36.4938 30.492 36.5689V37.007C30.492 37.0821 30.5421 37.1322 30.6172 37.1322H31.9821V42.5772C31.9821 42.6523 32.0322 42.7024 32.1074 42.7024ZM37.1539 42.7274H38.2809C38.6441 42.7274 38.8444 42.5271 38.8444 42.1641V36.5689C38.8444 36.4938 38.7943 36.4437 38.7192 36.4437H38.2559C38.1807 36.4437 38.1306 36.4938 38.1306 36.5689V42.039H37.1539C36.4151 42.039 35.9016 41.5758 35.9016 40.8498V36.5689C35.9016 36.4938 35.8516 36.4437 35.7764 36.4437H35.3131C35.238 36.4437 35.1879 36.4938 35.1879 36.5689V40.8498C35.1879 41.9513 36.0269 42.7274 37.1539 42.7274ZM43.3149 39.3102C43.7657 39.0598 44.0287 38.6217 44.0287 38.0334C44.0287 37.0195 43.3274 36.3185 42.2505 36.3185C41.1736 36.3185 40.4723 37.0195 40.4723 38.0334V42.1391C40.4723 42.5021 40.6727 42.7024 41.0358 42.7024H42.3632C43.4902 42.7024 44.3292 41.9388 44.3292 40.8623C44.3292 40.1113 43.9285 39.5605 43.3149 39.3102ZM41.1861 38.0334C41.1861 37.395 41.5618 37.007 42.2505 37.007C42.9392 37.007 43.3149 37.395 43.3149 38.0334C43.3149 38.6217 42.9267 39.0098 42.2129 39.0098H41.1861V38.0334ZM42.3632 42.0139H41.1861V39.6982H42.3632C43.102 39.6982 43.6154 40.1488 43.6154 40.8623C43.6154 41.5633 43.102 42.0139 42.3632 42.0139ZM48.5242 36.5689V39.1099H46.3203V36.5689C46.3203 36.4938 46.2702 36.4437 46.195 36.4437H45.7317C45.6566 36.4437 45.6065 36.4938 45.6065 36.5689V42.5772C45.6065 42.6523 45.6566 42.7024 45.7317 42.7024H46.195C46.2702 42.7024 46.3203 42.6523 46.3203 42.5772V39.7858H48.5242V42.5772C48.5242 42.6523 48.5743 42.7024 48.6494 42.7024H49.1128C49.1879 42.7024 49.238 42.6523 49.238 42.5772V36.5689C49.238 36.4938 49.1879 36.4437 49.1128 36.4437H48.6494C48.5743 36.4437 48.5242 36.4938 48.5242 36.5689ZM51.5546 42.7274H52.8069C53.9339 42.7274 54.7729 41.9388 54.7729 40.8248C54.7729 39.7233 53.9339 38.9472 52.8069 38.9472H51.7049V36.5689C51.7049 36.4938 51.6548 36.4437 51.5797 36.4437H51.1163C51.0412 36.4437 50.9911 36.4938 50.9911 36.5689V42.1641C50.9911 42.5271 51.1915 42.7274 51.5546 42.7274ZM55.5242 42.7024H55.9875C56.0627 42.7024 56.1128 42.6523 56.1128 42.5772V36.5689C56.1128 36.4938 56.0627 36.4437 55.9875 36.4437H55.5242C55.4491 36.4437 55.399 36.4938 55.399 36.5689V42.5772C55.399 42.6523 55.4491 42.7024 55.5242 42.7024ZM51.7049 42.039V39.6356H52.8069C53.5457 39.6356 54.0591 40.0988 54.0591 40.8248C54.0591 41.5633 53.5457 42.039 52.8069 42.039H51.7049ZM59.4938 42.815C60.5958 42.815 61.3596 42.0265 61.3972 40.8498C61.3972 40.7747 61.3471 40.7246 61.272 40.7246H60.8087C60.7335 40.7246 60.6834 40.7622 60.6834 40.8498C60.6584 41.6134 60.1951 42.1266 59.4938 42.1266C58.7425 42.1266 58.2917 41.6009 58.2917 40.8498V40.0863H59.4938C60.6459 40.0863 61.4097 39.2977 61.4097 38.2587C61.4097 37.1572 60.6459 36.3311 59.4938 36.3311C58.3167 36.3311 57.5779 37.1572 57.5779 38.3088V40.8498C57.5779 42.0265 58.3418 42.815 59.4938 42.815ZM58.2917 39.3978V38.3088C58.2917 37.5327 58.7174 37.0195 59.4938 37.0195C60.2452 37.0195 60.696 37.5327 60.696 38.2587C60.696 38.9221 60.2452 39.3978 59.4938 39.3978H58.2917ZM67.5958 36.3185C66.4437 36.3185 65.6799 37.1572 65.6799 38.2838V45.0807C65.6799 45.1558 65.73 45.2059 65.8051 45.2059H66.2684C66.3436 45.2059 66.3936 45.1558 66.3936 45.0807V42.2017C66.6942 42.5772 67.1074 42.8276 67.7085 42.8276C68.7478 42.8276 69.5117 41.9889 69.5117 40.8623V38.2838C69.5117 37.1572 68.7478 36.3185 67.5958 36.3185ZM68.7979 40.8623C68.7979 41.6134 68.3471 42.1391 67.5958 42.1391C66.8444 42.1391 66.3936 41.6134 66.3936 40.8623V38.2838C66.3936 37.5327 66.8444 37.007 67.5958 37.007C68.3471 37.007 68.7979 37.5327 68.7979 38.2838V40.8623ZM72.5296 42.815C73.6817 42.815 74.433 41.9889 74.433 40.8749V38.2587C74.433 37.1572 73.6942 36.3185 72.5421 36.3185C71.4652 36.3185 70.764 37.0946 70.7013 38.1586C70.7013 38.2337 70.7514 38.2838 70.8266 38.2838H71.2899C71.365 38.2838 71.4026 38.2462 71.4151 38.1586C71.4652 37.4701 71.8784 37.007 72.5421 37.007C73.281 37.007 73.7192 37.5327 73.7192 38.2587V39.0724H72.5046C71.365 39.0724 70.6012 39.886 70.6012 40.8749C70.6012 41.9889 71.365 42.815 72.5296 42.815ZM72.5296 42.1266C71.7657 42.1266 71.3149 41.6134 71.3149 40.8749C71.3149 40.2615 71.7657 39.7608 72.5046 39.7608H73.7192V40.8749C73.7192 41.6134 73.281 42.1266 72.5296 42.1266ZM77.5886 42.8276C78.6906 42.8276 79.4294 42.0014 79.4921 40.8623C79.4921 40.7872 79.442 40.7372 79.3668 40.7372H78.9035C78.8284 40.7372 78.7783 40.7747 78.7783 40.8623C78.7282 41.6259 78.2899 42.1391 77.5886 42.1391C76.8498 42.1391 76.399 41.6134 76.399 40.8623V38.2838C76.399 37.5327 76.8373 37.007 77.5636 37.007C78.2523 37.007 78.6781 37.4701 78.7282 38.1586C78.7282 38.2462 78.7783 38.2838 78.8534 38.2838H79.3167C79.3919 38.2838 79.442 38.2337 79.442 38.1586C79.3793 37.0946 78.6531 36.3185 77.5636 36.3185C76.4366 36.3185 75.6852 37.1572 75.6852 38.2838V40.8623C75.6852 41.9889 76.4491 42.8276 77.5886 42.8276ZM82.5225 42.8276C83.6244 42.8276 84.3633 42.0014 84.4259 40.8623C84.4259 40.7872 84.3758 40.7372 84.3006 40.7372H83.8373C83.7622 40.7372 83.7121 40.7747 83.7121 40.8623C83.662 41.6259 83.2237 42.1391 82.5225 42.1391C81.7836 42.1391 81.3328 41.6134 81.3328 40.8623V38.2838C81.3328 37.5327 81.7711 37.007 82.4974 37.007C83.1861 37.007 83.6119 37.4701 83.662 38.1586C83.662 38.2462 83.7121 38.2838 83.7872 38.2838H84.2506C84.3257 38.2838 84.3758 38.2337 84.3758 38.1586C84.3132 37.0946 83.5869 36.3185 82.4974 36.3185C81.3704 36.3185 80.6191 37.1572 80.6191 38.2838V40.8623C80.6191 41.9889 81.3829 42.8276 82.5225 42.8276ZM86.3668 42.7274H87.6191C88.7461 42.7274 89.5851 41.9388 89.5851 40.8248C89.5851 39.7233 88.7461 38.9472 87.6191 38.9472H86.5171V36.5689C86.5171 36.4938 86.467 36.4437 86.3919 36.4437H85.9286C85.8534 36.4437 85.8033 36.4938 85.8033 36.5689V42.1641C85.8033 42.5271 86.0037 42.7274 86.3668 42.7274ZM90.3364 42.7024H90.7998C90.8749 42.7024 90.925 42.6523 90.925 42.5772V36.5689C90.925 36.4938 90.8749 36.4437 90.7998 36.4437H90.3364C90.2613 36.4437 90.2112 36.4938 90.2112 36.5689V42.5772C90.2112 42.6523 90.2613 42.7024 90.3364 42.7024ZM86.5171 42.039V39.6356H87.6191C88.3579 39.6356 88.8713 40.0988 88.8713 40.8248C88.8713 41.5633 88.3579 42.039 87.6191 42.039H86.5171ZM91.9142 42.7024C92.8033 42.6398 93.3167 41.9138 93.3167 40.7872V38.2963C93.3167 37.5703 93.8302 37.1071 94.569 37.1071H95.4205V42.5772C95.4205 42.6523 95.4706 42.7024 95.5457 42.7024H96.0091C96.0842 42.7024 96.1343 42.6523 96.1343 42.5772V36.982C96.1343 36.619 95.9339 36.4187 95.5708 36.4187H94.569C93.442 36.4187 92.603 37.1948 92.603 38.2963V40.7872C92.603 41.5383 92.34 41.9388 91.9142 42.0014C91.8266 42.0139 91.789 42.064 91.789 42.1391V42.5772C91.789 42.6523 91.8391 42.7024 91.9142 42.7024ZM100.192 39.1975L101.632 36.5939C101.682 36.5063 101.619 36.4437 101.531 36.4437H101.005C100.943 36.4437 100.893 36.4687 100.855 36.5313L99.4527 39.1099H98.6012V36.5689C98.6012 36.4938 98.5511 36.4437 98.476 36.4437H98.0126C97.9375 36.4437 97.8874 36.4938 97.8874 36.5689V42.5772C97.8874 42.6523 97.9375 42.7024 98.0126 42.7024H98.476C98.5511 42.7024 98.6012 42.6523 98.6012 42.5772V39.7984H99.5779C100.317 39.7984 100.83 40.2615 100.83 40.9875V42.5772C100.83 42.6523 100.88 42.7024 100.955 42.7024H101.419C101.494 42.7024 101.544 42.6523 101.544 42.5772V40.9875C101.544 40.0988 100.993 39.4228 100.192 39.1975ZM104.787 42.7274H105.914C106.277 42.7274 106.478 42.5271 106.478 42.1641V36.5689C106.478 36.4938 106.428 36.4437 106.353 36.4437H105.889C105.814 36.4437 105.764 36.4938 105.764 36.5689V42.039H104.787C104.048 42.039 103.535 41.5758 103.535 40.8498V36.5689C103.535 36.4938 103.485 36.4437 103.41 36.4437H102.946C102.871 36.4437 102.821 36.4938 102.821 36.5689V40.8498C102.821 41.9513 103.66 42.7274 104.787 42.7274Z" fill="white"/>
</svg>
