<svg width="136" height="136" viewBox="0 0 136 136" fill="none" xmlns="http://www.w3.org/2000/svg">
<path d="M121.822 16.172L68.4758 0.168141C67.7296 -0.0560469 66.933 -0.0560469 66.1861 0.168141L12.8395 16.172C11.1541 16.6775 10 18.2288 10 19.9883V78.6691C10 86.3016 13.0897 94.1147 19.1835 101.891C23.8377 107.831 30.2765 113.795 38.3212 119.618C51.8354 129.401 65.1427 135.402 65.7026 135.652C66.2206 135.884 66.7755 136 67.3306 136C67.8855 136 68.4407 135.884 68.9587 135.652C69.5186 135.402 82.8256 129.401 96.3398 119.618C104.384 113.795 110.823 107.831 115.477 101.891C121.571 94.1149 124.661 86.3018 124.661 78.6691V19.9883C124.661 18.2288 123.507 16.6775 121.822 16.172ZM116.692 78.6691C116.692 92.1767 103.139 104.842 91.7697 113.089C81.5766 120.482 71.2393 125.728 67.3309 127.613C63.4225 125.728 53.0849 120.482 42.8918 113.089C31.522 104.842 17.9688 92.1767 17.9688 78.6691V22.9527L67.3306 8.14406L116.692 22.9527V78.6691Z" fill="#175697"/>
<path fill-rule="evenodd" clip-rule="evenodd" d="M102 39.9641C103.763 41.6871 103.763 44.4808 102 46.2039L66.2733 81.1123C64.5099 82.8353 61.6508 82.8353 59.8873 81.1123L41.0279 62.6848C39.2645 60.9617 39.2645 58.1681 41.0279 56.445C42.7914 54.7219 45.6505 54.7219 47.414 56.445L63.0803 71.7526L95.6139 39.9641C97.3773 38.241 100.236 38.241 102 39.9641Z" fill="#175697"/>
</svg>
