<svg width="54" height="46" viewBox="0 0 54 46" fill="none" xmlns="http://www.w3.org/2000/svg">
<path d="M37.4598 14.0781L15.5098 22.539C14.7989 22.8131 14.8419 23.8222 15.5738 24.036L21.1515 25.6652L23.2331 32.1987C23.4505 32.8812 24.3249 33.0881 24.831 32.5769L27.7148 29.6643L33.3731 33.7726C34.0656 34.2754 35.0517 33.9018 35.2275 33.0702L38.9751 15.3474C39.1586 14.4793 38.2952 13.756 37.4598 14.0781ZM34.7078 18.0112L24.5122 26.9294C24.4106 27.0183 24.3459 27.1414 24.3308 27.2748L23.9382 30.7264C23.9254 30.839 23.7662 30.8539 23.7322 30.7457L22.1171 25.5981C22.0432 25.3624 22.1396 25.1071 22.3516 24.977L34.3915 17.5907C34.6684 17.4207 34.9519 17.7977 34.7078 18.0112Z" fill="white"/>
</svg>
