<svg width="26" height="26" viewBox="0 0 26 26" fill="none" xmlns="http://www.w3.org/2000/svg">
<path d="M13.2251 12.2923C15.3376 12.2923 17.0503 10.2121 17.0503 7.64615C17.0503 5.08012 16.488 3 13.2251 3C9.9623 3 9.3999 5.08012 9.3999 7.64615C9.3999 10.2121 11.1126 12.2923 13.2251 12.2923Z" fill="white"/>
<path d="M5.76149 19.3862C5.76084 19.2297 5.76019 19.3421 5.76149 19.3862V19.3862Z" fill="#175697"/>
<path d="M20.2109 19.5084C20.213 19.4656 20.2116 19.2113 20.2109 19.5084V19.5084Z" fill="#175697"/>
<path d="M20.4415 19.1988C20.3706 14.7288 19.7868 13.4551 15.3195 12.6488C15.3195 12.6488 14.6907 13.4501 13.2249 13.4501C11.7592 13.4501 11.1303 12.6488 11.1303 12.6488C6.71169 13.4463 6.09239 14.7011 6.01097 19.0535C6.00429 19.4089 6.00119 19.4276 6 19.3864C6.00027 19.4637 6.0006 19.6067 6.0006 19.856C6.0006 19.856 7.06416 22.0001 13.2249 22.0001C19.3856 22.0001 20.4493 19.856 20.4493 19.856C20.4493 19.6958 20.4494 19.5844 20.4496 19.5086C20.4484 19.5341 20.446 19.4847 20.4415 19.1988Z" fill="white"/>
</svg>
