<svg width="54" height="46" viewBox="0 0 54 46" fill="none" xmlns="http://www.w3.org/2000/svg">
<path d="M37.9016 16.8211L37.8946 16.7931C37.3295 14.5085 34.7816 12.0569 32.4419 11.5469L32.4155 11.5415C28.631 10.8195 24.7938 10.8195 21.0101 11.5415L20.9829 11.5469C18.6439 12.0569 16.0961 14.5085 15.5302 16.7931L15.524 16.8211C14.8253 20.0117 14.8253 23.2473 15.524 26.4379L15.5302 26.4658C16.072 28.653 18.4301 30.9919 20.6825 31.6351V34.1854C20.6825 35.1084 21.8074 35.5618 22.447 34.8957L25.0309 32.2098C25.5914 32.2412 26.1521 32.2586 26.7128 32.2586C28.6178 32.2586 30.5236 32.0785 32.4155 31.7176L32.4419 31.7121C34.7816 31.2021 37.3295 28.7505 37.8946 26.4659L37.9016 26.4379C38.6003 23.2473 38.6003 20.0117 37.9016 16.8211ZM35.8568 25.9752C35.4795 27.4657 33.545 29.3187 32.0079 29.6611C29.9957 30.0437 27.9675 30.2073 25.9414 30.1511C25.9011 30.1501 25.8624 30.1657 25.8343 30.1945C25.5467 30.4897 23.9476 32.1312 23.9476 32.1312L21.9409 34.1908C21.7942 34.3437 21.5364 34.2397 21.5364 34.0285V29.8037C21.5364 29.734 21.4866 29.6747 21.4181 29.6612C21.4177 29.6611 21.4173 29.6611 21.4169 29.661C19.8798 29.3186 17.9461 27.4656 17.568 25.9751C16.9392 23.0912 16.9392 20.1676 17.568 17.2837C17.9461 15.7932 19.8798 13.9402 21.4169 13.5978C24.9312 12.9294 28.4944 12.9294 32.0079 13.5978C33.5458 13.9402 35.4795 15.7932 35.8568 17.2837C36.4863 20.1677 36.4863 23.0912 35.8568 25.9752Z" fill="white"/>
<path d="M30.0563 27.9253C29.82 27.8536 29.5948 27.8054 29.3856 27.7186C27.2185 26.8195 25.224 25.6595 23.6442 23.8814C22.7458 22.8703 22.0426 21.7288 21.4482 20.5207C21.1663 19.9478 20.9288 19.3524 20.6866 18.761C20.4659 18.2216 20.791 17.6644 21.1335 17.258C21.4548 16.8766 21.8682 16.5847 22.316 16.3696C22.6655 16.2017 23.0103 16.2985 23.2655 16.5947C23.8173 17.2351 24.3241 17.9084 24.7346 18.6507C24.9869 19.1073 24.9177 19.6655 24.4603 19.9763C24.3491 20.0518 24.2478 20.1404 24.1443 20.2258C24.0534 20.3005 23.968 20.3761 23.9057 20.4773C23.7919 20.6625 23.7865 20.881 23.8598 21.0823C24.4238 22.6324 25.3746 23.8378 26.9348 24.487C27.1844 24.5909 27.4352 24.7118 27.7228 24.6783C28.2045 24.622 28.3604 24.0937 28.698 23.8176C29.0279 23.5479 29.4495 23.5443 29.8049 23.7692C30.1604 23.9942 30.505 24.2357 30.8475 24.4797C31.1837 24.7193 31.5184 24.9537 31.8286 25.2268C32.1267 25.4894 32.2294 25.8339 32.0615 26.1903C31.7541 26.843 31.3068 27.386 30.6615 27.7327C30.4793 27.8304 30.2617 27.8621 30.0563 27.9253C29.82 27.8535 30.2617 27.8621 30.0563 27.9253Z" fill="white"/>
<path d="M26.7186 15.6232C29.5532 15.7027 31.8814 17.5839 32.3804 20.3863C32.4654 20.8638 32.4956 21.352 32.5334 21.8367C32.5494 22.0405 32.4339 22.2342 32.2139 22.2369C31.9867 22.2396 31.8845 22.0495 31.8697 21.8457C31.8405 21.4423 31.8203 21.0372 31.7647 20.6371C31.4712 18.5255 29.7874 16.7785 27.6856 16.4037C27.3693 16.3472 27.0456 16.3324 26.7253 16.2988C26.5227 16.2775 26.2575 16.2652 26.2126 16.0135C26.1749 15.8024 26.3531 15.6344 26.5541 15.6236C26.6087 15.6205 26.6637 15.623 26.7186 15.6232C29.5532 15.7027 26.6637 15.623 26.7186 15.6232Z" fill="white"/>
<path d="M31.0265 21.2078C31.0219 21.2432 31.0194 21.3264 30.9986 21.4048C30.9234 21.6894 30.492 21.725 30.3926 21.4378C30.3632 21.3526 30.3587 21.2556 30.3586 21.1638C30.3576 20.5634 30.2271 19.9637 29.9243 19.4413C29.6131 18.9044 29.1376 18.4531 28.5799 18.18C28.2427 18.0149 27.878 17.9122 27.5084 17.8511C27.3469 17.8244 27.1836 17.8081 27.0213 17.7855C26.8246 17.7582 26.7195 17.6328 26.7288 17.439C26.7375 17.2573 26.8703 17.1267 27.0682 17.1379C27.7188 17.1748 28.3471 17.3154 28.9255 17.6217C30.1016 18.2445 30.7734 19.2276 30.9695 20.5403C30.9783 20.5998 30.9926 20.6587 30.9971 20.7184C31.0082 20.8658 31.0152 21.0134 31.0265 21.2078C31.0219 21.2432 31.0152 21.0134 31.0265 21.2078Z" fill="white"/>
<path d="M29.2632 21.1391C29.026 21.1434 28.8991 21.0121 28.8747 20.7946C28.8576 20.643 28.8442 20.4894 28.808 20.3419C28.7368 20.0514 28.5824 19.7822 28.338 19.6042C28.2226 19.5201 28.0919 19.4589 27.955 19.4194C27.781 19.3691 27.6004 19.3829 27.4268 19.3404C27.2383 19.2942 27.134 19.1416 27.1637 18.9648C27.1906 18.8038 27.3472 18.6782 27.523 18.691C28.622 18.7703 29.4075 19.3385 29.5196 20.6322C29.5275 20.7235 29.5368 20.82 29.5166 20.9074C29.4819 21.0569 29.3712 21.1318 29.2632 21.1391C29.026 21.1434 29.3712 21.1318 29.2632 21.1391Z" fill="white"/>
</svg>
