<svg width="54" height="46" viewBox="0 0 54 46" fill="none" xmlns="http://www.w3.org/2000/svg">
<path d="M15 35.4193L16.7083 29.3518C15.6098 27.4855 15.0314 25.3621 15.0314 23.1808C15.0314 16.4643 20.4956 11 27.2121 11C33.9286 11 39.3928 16.4643 39.3928 23.1808C39.3928 29.8973 33.9286 35.3615 27.2121 35.3615C25.1193 35.3615 23.0701 34.8258 21.2572 33.8086L15 35.4193ZM21.5771 31.5926L21.9499 31.8203C23.5305 32.7852 25.3502 33.2953 27.2121 33.2953C32.7893 33.2953 37.3266 28.7579 37.3266 23.1808C37.3266 17.6036 32.7893 13.0663 27.2121 13.0663C21.635 13.0663 17.0976 17.6036 17.0976 23.1808C17.0976 25.124 17.6499 27.0112 18.6947 28.6381L18.9458 29.029L17.962 32.5232L21.5771 31.5926Z" fill="white"/>
<path d="M23.7899 17.5114L22.9996 17.4684C22.7513 17.4548 22.5078 17.5378 22.3201 17.7008C21.937 18.0335 21.3243 18.6768 21.1361 19.5151C20.8555 20.765 21.2892 22.2956 22.4116 23.8262C23.534 25.3567 25.6258 27.8056 29.3246 28.8515C30.5165 29.1886 31.4542 28.9613 32.1776 28.4986C32.7506 28.1321 33.1455 27.5438 33.2879 26.8788L33.4141 26.2894C33.4542 26.102 33.359 25.9119 33.185 25.8317L30.5138 24.6005C30.3404 24.5206 30.1347 24.5711 30.0181 24.7222L28.9695 26.0817C28.8902 26.1844 28.7546 26.2251 28.6322 26.1821C27.9141 25.9297 25.5085 24.9222 24.1885 22.3796C24.1313 22.2693 24.1455 22.1355 24.2267 22.0414L25.2289 20.882C25.3313 20.7637 25.3572 20.5972 25.2956 20.4533L24.1442 17.7595C24.0829 17.6161 23.9455 17.5199 23.7899 17.5114Z" fill="white"/>
</svg>
